M48
; DRILL file {KiCad 7.0.0-da2b9df05c~163~ubuntu22.04.1} date Mon Feb 20 23:21:24 2023
; FORMAT={-:-/ absolute / metric / decimal}
; #@! TF.CreationDate,2023-02-20T23:21:24+01:00
; #@! TF.GenerationSoftware,Kicad,Pcbnew,7.0.0-da2b9df05c~163~ubuntu22.04.1
; #@! TF.FileFunction,MixedPlating,1,2
FMAT,2
METRIC
; #@! TA.AperFunction,Plated,PTH,ComponentDrill
T1C0.200
; #@! TA.AperFunction,Plated,PTH,ViaDrill
T2C0.400
; #@! TA.AperFunction,Plated,PTH,ComponentDrill
T3C0.600
; #@! TA.AperFunction,Plated,PTH,ComponentDrill
T4C0.900
; #@! TA.AperFunction,Plated,PTH,ComponentDrill
T5C0.990
; #@! TA.AperFunction,Plated,PTH,ComponentDrill
T6C1.000
; #@! TA.AperFunction,Plated,PTH,ComponentDrill
T7C1.300
; #@! TA.AperFunction,Plated,PTH,ComponentDrill
T8C1.397
; #@! TA.AperFunction,Plated,PTH,ComponentDrill
T9C2.500
; #@! TA.AperFunction,NonPlated,NPTH,ComponentDrill
T10C1.500
; #@! TA.AperFunction,NonPlated,NPTH,ComponentDrill
T11C3.200
%
G90
G05
T1
X-31.32Y-1.917
X-31.32Y-3.442
X-30.557Y-1.155
X-30.557Y-2.68
X-30.557Y-4.205
X-29.795Y-1.917
X-29.795Y-3.442
X-29.032Y-1.155
X-29.032Y-2.68
X-29.032Y-4.205
X-28.27Y-1.917
X-28.27Y-3.442
T2
X-37.1Y5.1
X-33.3Y5.2
X-32.3Y5.2
X-31.4Y17.8
X-29.5Y9.3
X-29.5Y8.3
X-28.7Y27.7
X-28.2Y5.4
X-27.0Y5.4
X-21.7Y11.9
X-21.0Y11.1
X-20.4Y10.3
X-19.8Y18.8
X-17.7Y3.5
X-17.7Y1.0
X0.8Y1.2
X2.3Y4.7
X6.4Y-8.631
X12.5Y6.0
X12.5Y-1.6
X21.7Y-2.7
X22.7Y-2.7
X22.7Y-5.7
X23.7Y-2.7
X24.2Y6.0
X25.3Y-0.1
X25.3Y-1.9
X26.6Y-2.7
X28.1Y-6.6
T4
X-25.0Y-24.0
X-22.46Y-24.0
X22.46Y-24.0
X25.0Y-24.0
T5
X-34.225Y-26.287
X-29.725Y-26.287
X29.775Y-26.287
X34.275Y-26.287
T6
X-14.5Y4.35
X-14.5Y1.81
X-14.5Y-0.73
X-14.5Y-3.27
X-14.5Y-5.81
X-14.5Y-8.35
X-8.905Y-24.0
X-6.365Y-24.0
X-3.825Y-24.0
X-1.285Y-24.0
X1.255Y-24.0
X3.795Y-24.0
X6.335Y-24.0
X8.875Y-24.0
T7
X-35.485Y-23.797
X-28.475Y-23.797
X28.515Y-23.797
X35.525Y-23.797
T8
X-11.0Y20.26
X3.0Y20.26
T9
X-7.0Y24.5
X7.0Y24.5
T10
X27.8Y28.375
X27.8Y21.375
T11
X-42.5Y25.0
X-42.5Y-25.0
X42.5Y25.0
X42.5Y-25.0
T3
X-32.92Y28.0G85X-32.92Y28.6
G05
X-32.92Y24.2G85X-32.92Y24.8
G05
X-24.28Y28.0G85X-24.28Y28.6
G05
X-24.28Y24.2G85X-24.28Y24.8
G05
T0
M30
