G04 #@! TF.GenerationSoftware,KiCad,Pcbnew,7.0.0-da2b9df05c~163~ubuntu22.04.1*
G04 #@! TF.CreationDate,2023-02-20T23:21:24+01:00*
G04 #@! TF.ProjectId,Bluetooth_receiver,426c7565-746f-46f7-9468-5f7265636569,rev?*
G04 #@! TF.SameCoordinates,Original*
G04 #@! TF.FileFunction,Soldermask,Top*
G04 #@! TF.FilePolarity,Negative*
%FSLAX46Y46*%
G04 Gerber Fmt 4.6, Leading zero omitted, Abs format (unit mm)*
G04 Created by KiCad (PCBNEW 7.0.0-da2b9df05c~163~ubuntu22.04.1) date 2023-02-20 23:21:24*
%MOMM*%
%LPD*%
G01*
G04 APERTURE LIST*
G04 Aperture macros list*
%AMRoundRect*
0 Rectangle with rounded corners*
0 $1 Rounding radius*
0 $2 $3 $4 $5 $6 $7 $8 $9 X,Y pos of 4 corners*
0 Add a 4 corners polygon primitive as box body*
4,1,4,$2,$3,$4,$5,$6,$7,$8,$9,$2,$3,0*
0 Add four circle primitives for the rounded corners*
1,1,$1+$1,$2,$3*
1,1,$1+$1,$4,$5*
1,1,$1+$1,$6,$7*
1,1,$1+$1,$8,$9*
0 Add four rect primitives between the rounded corners*
20,1,$1+$1,$2,$3,$4,$5,0*
20,1,$1+$1,$4,$5,$6,$7,0*
20,1,$1+$1,$6,$7,$8,$9,0*
20,1,$1+$1,$8,$9,$2,$3,0*%
%AMRotRect*
0 Rectangle, with rotation*
0 The origin of the aperture is its center*
0 $1 length*
0 $2 width*
0 $3 Rotation angle, in degrees counterclockwise*
0 Add horizontal line*
21,1,$1,$2,0,0,$3*%
%AMFreePoly0*
4,1,19,0.500000,-0.750000,0.000000,-0.750000,0.000000,-0.744911,-0.071157,-0.744911,-0.207708,-0.704816,-0.327430,-0.627875,-0.420627,-0.520320,-0.479746,-0.390866,-0.500000,-0.250000,-0.500000,0.250000,-0.479746,0.390866,-0.420627,0.520320,-0.327430,0.627875,-0.207708,0.704816,-0.071157,0.744911,0.000000,0.744911,0.000000,0.750000,0.500000,0.750000,0.500000,-0.750000,0.500000,-0.750000,
$1*%
%AMFreePoly1*
4,1,19,0.000000,0.744911,0.071157,0.744911,0.207708,0.704816,0.327430,0.627875,0.420627,0.520320,0.479746,0.390866,0.500000,0.250000,0.500000,-0.250000,0.479746,-0.390866,0.420627,-0.520320,0.327430,-0.627875,0.207708,-0.704816,0.071157,-0.744911,0.000000,-0.744911,0.000000,-0.750000,-0.500000,-0.750000,-0.500000,0.750000,0.000000,0.750000,0.000000,0.744911,0.000000,0.744911,
$1*%
G04 Aperture macros list end*
%ADD10C,3.000000*%
%ADD11RoundRect,0.243750X-0.243750X-0.456250X0.243750X-0.456250X0.243750X0.456250X-0.243750X0.456250X0*%
%ADD12R,0.700000X1.200000*%
%ADD13R,0.760000X1.200000*%
%ADD14R,0.800000X1.200000*%
%ADD15O,1.100000X1.700000*%
%ADD16RoundRect,0.250000X-1.050000X-0.550000X1.050000X-0.550000X1.050000X0.550000X-1.050000X0.550000X0*%
%ADD17C,3.200000*%
%ADD18RoundRect,0.200000X-0.275000X0.200000X-0.275000X-0.200000X0.275000X-0.200000X0.275000X0.200000X0*%
%ADD19R,1.500000X2.000000*%
%ADD20R,3.800000X2.000000*%
%ADD21C,2.500000*%
%ADD22C,4.000000*%
%ADD23RoundRect,0.225000X-0.250000X0.225000X-0.250000X-0.225000X0.250000X-0.225000X0.250000X0.225000X0*%
%ADD24RoundRect,0.225000X0.225000X0.250000X-0.225000X0.250000X-0.225000X-0.250000X0.225000X-0.250000X0*%
%ADD25RoundRect,0.200000X0.200000X0.275000X-0.200000X0.275000X-0.200000X-0.275000X0.200000X-0.275000X0*%
%ADD26RoundRect,0.200000X0.275000X-0.200000X0.275000X0.200000X-0.275000X0.200000X-0.275000X-0.200000X0*%
%ADD27RoundRect,0.250000X0.550000X-1.500000X0.550000X1.500000X-0.550000X1.500000X-0.550000X-1.500000X0*%
%ADD28RoundRect,0.225000X-0.225000X-0.250000X0.225000X-0.250000X0.225000X0.250000X-0.225000X0.250000X0*%
%ADD29RotRect,2.000000X1.500000X225.000000*%
%ADD30RotRect,2.000000X3.800000X225.000000*%
%ADD31RoundRect,0.250000X0.353553X1.131371X-1.131371X-0.353553X-0.353553X-1.131371X1.131371X0.353553X0*%
%ADD32RoundRect,0.250000X0.671751X1.449569X-1.449569X-0.671751X-0.671751X-1.449569X1.449569X0.671751X0*%
%ADD33RoundRect,0.225000X0.250000X-0.225000X0.250000X0.225000X-0.250000X0.225000X-0.250000X-0.225000X0*%
%ADD34C,2.100000*%
%ADD35C,1.750000*%
%ADD36FreePoly0,90.000000*%
%ADD37FreePoly1,90.000000*%
%ADD38RoundRect,0.250000X0.220971X-0.662913X0.662913X-0.220971X-0.220971X0.662913X-0.662913X0.220971X0*%
%ADD39C,1.500000*%
%ADD40R,2.500000X1.200000*%
%ADD41R,1.800000X1.800000*%
%ADD42C,1.800000*%
%ADD43R,1.700000X1.700000*%
%ADD44O,1.700000X1.700000*%
%ADD45RoundRect,0.250000X1.050000X0.550000X-1.050000X0.550000X-1.050000X-0.550000X1.050000X-0.550000X0*%
%ADD46RoundRect,0.100000X-0.100000X0.637500X-0.100000X-0.637500X0.100000X-0.637500X0.100000X0.637500X0*%
%ADD47R,0.900000X1.500000*%
%ADD48R,1.500000X0.900000*%
%ADD49C,0.600000*%
%ADD50R,4.200000X4.200000*%
%ADD51RoundRect,0.200000X-0.200000X-0.275000X0.200000X-0.275000X0.200000X0.275000X-0.200000X0.275000X0*%
%ADD52R,1.550000X1.300000*%
%ADD53RoundRect,0.250000X0.550000X-1.050000X0.550000X1.050000X-0.550000X1.050000X-0.550000X-1.050000X0*%
G04 APERTURE END LIST*
D10*
G04 #@! TO.C,FID3*
X36400000Y25000000D03*
G04 #@! TD*
D11*
G04 #@! TO.C,D3*
X-24687500Y-27500000D03*
X-22812500Y-27500000D03*
G04 #@! TD*
D12*
G04 #@! TO.C,J1*
X-28099999Y24499999D03*
D13*
X-30119999Y24499999D03*
D14*
X-31349999Y24499999D03*
D12*
X-29099999Y24499999D03*
D13*
X-27079999Y24499999D03*
D14*
X-25849999Y24499999D03*
D15*
X-24279999Y24499999D03*
X-24279999Y28299999D03*
X-32919999Y24499999D03*
X-32919999Y28299999D03*
G04 #@! TD*
D16*
G04 #@! TO.C,C8*
X28800000Y-4200000D03*
X32400000Y-4200000D03*
G04 #@! TD*
D17*
G04 #@! TO.C,H3*
X42500000Y-25000000D03*
G04 #@! TD*
D11*
G04 #@! TO.C,D4*
X22812500Y-27500000D03*
X24687500Y-27500000D03*
G04 #@! TD*
D18*
G04 #@! TO.C,R1*
X-22100000Y27325000D03*
X-22100000Y25675000D03*
G04 #@! TD*
D19*
G04 #@! TO.C,U2*
X-23699999Y19149999D03*
X-25999999Y19149999D03*
D20*
X-25999999Y12849999D03*
D19*
X-28299999Y19149999D03*
G04 #@! TD*
D18*
G04 #@! TO.C,R7*
X14900000Y14725000D03*
X14900000Y13075000D03*
G04 #@! TD*
D21*
G04 #@! TO.C,J5*
X3000000Y20260000D03*
X-11000000Y20260000D03*
D22*
X-7000000Y24500000D03*
X7000000Y24500000D03*
G04 #@! TD*
D23*
G04 #@! TO.C,C14*
X13100000Y14675000D03*
X13100000Y13125000D03*
G04 #@! TD*
D24*
G04 #@! TO.C,C15*
X18975000Y1300000D03*
X17425000Y1300000D03*
G04 #@! TD*
D25*
G04 #@! TO.C,R5*
X24325000Y-20750000D03*
X22675000Y-20750000D03*
G04 #@! TD*
D17*
G04 #@! TO.C,H1*
X-42500000Y25000000D03*
G04 #@! TD*
D26*
G04 #@! TO.C,R4*
X-20250000Y-24825000D03*
X-20250000Y-23175000D03*
G04 #@! TD*
D23*
G04 #@! TO.C,C12*
X19100000Y14675000D03*
X19100000Y13125000D03*
G04 #@! TD*
D27*
G04 #@! TO.C,C3*
X-17800000Y13200000D03*
X-17800000Y18800000D03*
G04 #@! TD*
D28*
G04 #@! TO.C,C5*
X28425000Y1400000D03*
X29975000Y1400000D03*
G04 #@! TD*
D29*
G04 #@! TO.C,U3*
X3522003Y5924440D03*
X1895657Y7550785D03*
D30*
X-2559113Y3096013D03*
D29*
X269312Y9177131D03*
G04 #@! TD*
D31*
G04 #@! TO.C,C2*
X-3937973Y11475230D03*
X-6483557Y8929646D03*
G04 #@! TD*
D32*
G04 #@! TO.C,C4*
X7379899Y1679899D03*
X3420101Y-2279899D03*
G04 #@! TD*
D28*
G04 #@! TO.C,C11*
X25325000Y-6600000D03*
X26875000Y-6600000D03*
G04 #@! TD*
D33*
G04 #@! TO.C,C10*
X24200000Y3225000D03*
X24200000Y4775000D03*
G04 #@! TD*
D34*
G04 #@! TO.C,SW1*
X35525000Y-23797500D03*
X28515000Y-23797500D03*
D35*
X34275000Y-26287500D03*
X29775000Y-26287500D03*
G04 #@! TD*
D36*
G04 #@! TO.C,JP1*
X-9750000Y-2800000D03*
D37*
X-9750000Y-1500000D03*
G04 #@! TD*
D17*
G04 #@! TO.C,H2*
X42500000Y25000000D03*
G04 #@! TD*
D33*
G04 #@! TO.C,C9*
X25800000Y3225000D03*
X25800000Y4775000D03*
G04 #@! TD*
D38*
G04 #@! TO.C,R8*
X-10034144Y12965856D03*
X-7965856Y15034144D03*
G04 #@! TD*
D39*
G04 #@! TO.C,J4*
X27800000Y28375000D03*
X27800000Y21375000D03*
D40*
X31049999Y23774999D03*
X31049999Y26774999D03*
X24549999Y18674999D03*
X31049999Y19774999D03*
G04 #@! TD*
D41*
G04 #@! TO.C,D1*
X-24999999Y-23999999D03*
D42*
X-22460000Y-24000000D03*
G04 #@! TD*
D16*
G04 #@! TO.C,C7*
X28800000Y4800000D03*
X32400000Y4800000D03*
G04 #@! TD*
D43*
G04 #@! TO.C,J3*
X-14499999Y4349999D03*
D44*
X-14499999Y1809999D03*
X-14499999Y-729999D03*
X-14499999Y-3269999D03*
X-14499999Y-5809999D03*
X-14499999Y-8349999D03*
G04 #@! TD*
D45*
G04 #@! TO.C,C16*
X20000000Y4800000D03*
X16400000Y4800000D03*
G04 #@! TD*
D10*
G04 #@! TO.C,FID1*
X-44500000Y19100000D03*
G04 #@! TD*
D46*
G04 #@! TO.C,U4*
X26625000Y1362500D03*
X25975000Y1362500D03*
X25325000Y1362500D03*
X24675000Y1362500D03*
X24025000Y1362500D03*
X23375000Y1362500D03*
X22725000Y1362500D03*
X22075000Y1362500D03*
X21425000Y1362500D03*
X20775000Y1362500D03*
X20775000Y-4362500D03*
X21425000Y-4362500D03*
X22075000Y-4362500D03*
X22725000Y-4362500D03*
X23375000Y-4362500D03*
X24025000Y-4362500D03*
X24675000Y-4362500D03*
X25325000Y-4362500D03*
X25975000Y-4362500D03*
X26625000Y-4362500D03*
G04 #@! TD*
D16*
G04 #@! TO.C,C13*
X28800000Y-9100000D03*
X32400000Y-9100000D03*
G04 #@! TD*
D47*
G04 #@! TO.C,U1*
X-37134999Y-10749999D03*
X-35864999Y-10749999D03*
X-34594999Y-10749999D03*
X-33324999Y-10749999D03*
X-32054999Y-10749999D03*
X-30784999Y-10749999D03*
X-29514999Y-10749999D03*
X-28244999Y-10749999D03*
X-26974999Y-10749999D03*
X-25704999Y-10749999D03*
X-24434999Y-10749999D03*
X-23164999Y-10749999D03*
X-21894999Y-10749999D03*
X-20624999Y-10749999D03*
D48*
X-19374999Y-7709999D03*
X-19374999Y-6439999D03*
X-19374999Y-5169999D03*
X-19374999Y-3899999D03*
X-19374999Y-2629999D03*
X-19374999Y-1359999D03*
X-19374999Y-89999D03*
X-19374999Y1179999D03*
X-19374999Y2449999D03*
X-19374999Y3719999D03*
D47*
X-20624999Y6749999D03*
X-21894999Y6749999D03*
X-23164999Y6749999D03*
X-24434999Y6749999D03*
X-25704999Y6749999D03*
X-26974999Y6749999D03*
X-28244999Y6749999D03*
X-29514999Y6749999D03*
X-30784999Y6749999D03*
X-32054999Y6749999D03*
X-33324999Y6749999D03*
X-34594999Y6749999D03*
X-35864999Y6749999D03*
X-37134999Y6749999D03*
D49*
X-30557500Y-4205000D03*
X-29032500Y-4205000D03*
X-31320000Y-3442500D03*
X-29795000Y-3442500D03*
X-28270000Y-3442500D03*
X-30557500Y-2680000D03*
D50*
X-29794999Y-2679999D03*
D49*
X-29032500Y-2680000D03*
X-31320000Y-1917500D03*
X-29795000Y-1917500D03*
X-28270000Y-1917500D03*
X-30557500Y-1155000D03*
X-29032500Y-1155000D03*
G04 #@! TD*
D51*
G04 #@! TO.C,R3*
X-27725000Y22000000D03*
X-26075000Y22000000D03*
G04 #@! TD*
D41*
G04 #@! TO.C,D2*
X22459999Y-23999999D03*
D42*
X25000000Y-24000000D03*
G04 #@! TD*
D25*
G04 #@! TO.C,R2*
X-29475000Y22000000D03*
X-31125000Y22000000D03*
G04 #@! TD*
D52*
G04 #@! TO.C,SW3*
X-35974999Y-15999999D03*
X-28024999Y-15999999D03*
X-35974999Y-20499999D03*
X-28024999Y-20499999D03*
G04 #@! TD*
D17*
G04 #@! TO.C,H4*
X-42500000Y-25000000D03*
G04 #@! TD*
D10*
G04 #@! TO.C,FID2*
X38300000Y-20000000D03*
G04 #@! TD*
D28*
G04 #@! TO.C,C6*
X28425000Y-700000D03*
X29975000Y-700000D03*
G04 #@! TD*
D53*
G04 #@! TO.C,C1*
X-33100000Y14200000D03*
X-33100000Y17800000D03*
G04 #@! TD*
D18*
G04 #@! TO.C,R6*
X17300000Y14725000D03*
X17300000Y13075000D03*
G04 #@! TD*
D34*
G04 #@! TO.C,SW2*
X-28475000Y-23797500D03*
X-35485000Y-23797500D03*
D35*
X-29725000Y-26287500D03*
X-34225000Y-26287500D03*
G04 #@! TD*
D43*
G04 #@! TO.C,J2*
X8874999Y-23999999D03*
D44*
X6334999Y-23999999D03*
X3794999Y-23999999D03*
X1254999Y-23999999D03*
X-1284999Y-23999999D03*
X-3824999Y-23999999D03*
X-6364999Y-23999999D03*
X-8904999Y-23999999D03*
G04 #@! TD*
M02*
