G04 #@! TF.GenerationSoftware,KiCad,Pcbnew,7.0.0-da2b9df05c~163~ubuntu22.04.1*
G04 #@! TF.CreationDate,2023-02-20T23:21:24+01:00*
G04 #@! TF.ProjectId,Bluetooth_receiver,426c7565-746f-46f7-9468-5f7265636569,rev?*
G04 #@! TF.SameCoordinates,Original*
G04 #@! TF.FileFunction,Copper,L2,Bot*
G04 #@! TF.FilePolarity,Positive*
%FSLAX46Y46*%
G04 Gerber Fmt 4.6, Leading zero omitted, Abs format (unit mm)*
G04 Created by KiCad (PCBNEW 7.0.0-da2b9df05c~163~ubuntu22.04.1) date 2023-02-20 23:21:24*
%MOMM*%
%LPD*%
G01*
G04 APERTURE LIST*
G04 #@! TA.AperFunction,ComponentPad*
%ADD10O,1.100000X1.700000*%
G04 #@! TD*
G04 #@! TA.AperFunction,ComponentPad*
%ADD11C,2.500000*%
G04 #@! TD*
G04 #@! TA.AperFunction,ComponentPad*
%ADD12C,4.000000*%
G04 #@! TD*
G04 #@! TA.AperFunction,ComponentPad*
%ADD13C,2.100000*%
G04 #@! TD*
G04 #@! TA.AperFunction,ComponentPad*
%ADD14C,1.750000*%
G04 #@! TD*
G04 #@! TA.AperFunction,ComponentPad*
%ADD15R,1.800000X1.800000*%
G04 #@! TD*
G04 #@! TA.AperFunction,ComponentPad*
%ADD16C,1.800000*%
G04 #@! TD*
G04 #@! TA.AperFunction,ComponentPad*
%ADD17R,1.700000X1.700000*%
G04 #@! TD*
G04 #@! TA.AperFunction,ComponentPad*
%ADD18O,1.700000X1.700000*%
G04 #@! TD*
G04 #@! TA.AperFunction,HeatsinkPad*
%ADD19C,0.600000*%
G04 #@! TD*
G04 #@! TA.AperFunction,ViaPad*
%ADD20C,0.800000*%
G04 #@! TD*
G04 #@! TA.AperFunction,Conductor*
%ADD21C,0.250000*%
G04 #@! TD*
G04 #@! TA.AperFunction,Conductor*
%ADD22C,0.500000*%
G04 #@! TD*
G04 APERTURE END LIST*
D10*
G04 #@! TO.P,J1,S1,SHIELD*
G04 #@! TO.N,Net-(J1-SHIELD)*
X-24279999Y24499999D03*
X-24279999Y28299999D03*
X-32919999Y24499999D03*
X-32919999Y28299999D03*
G04 #@! TD*
D11*
G04 #@! TO.P,J5,1,IN1*
G04 #@! TO.N,L_LINE_OUT*
X3000000Y20260000D03*
G04 #@! TO.P,J5,2,IN2*
G04 #@! TO.N,R_LINE_OUT*
X-11000000Y20260000D03*
D12*
G04 #@! TO.P,J5,3,EXT*
G04 #@! TO.N,GNDA*
X-7000000Y24500000D03*
X7000000Y24500000D03*
G04 #@! TD*
D13*
G04 #@! TO.P,SW1,*
G04 #@! TO.N,*
X35525000Y-23797500D03*
X28515000Y-23797500D03*
D14*
G04 #@! TO.P,SW1,1,1*
G04 #@! TO.N,GND*
X34275000Y-26287500D03*
G04 #@! TO.P,SW1,2,2*
G04 #@! TO.N,BTN_1*
X29775000Y-26287500D03*
G04 #@! TD*
D15*
G04 #@! TO.P,D1,1,K*
G04 #@! TO.N,GND*
X-24999999Y-23999999D03*
D16*
G04 #@! TO.P,D1,2,A*
G04 #@! TO.N,Net-(D1-A)*
X-22460000Y-24000000D03*
G04 #@! TD*
D17*
G04 #@! TO.P,J3,1,Pin_1*
G04 #@! TO.N,EN*
X-14499999Y4349999D03*
D18*
G04 #@! TO.P,J3,2,Pin_2*
G04 #@! TO.N,BOOT*
X-14499999Y1809999D03*
G04 #@! TO.P,J3,3,Pin_3*
G04 #@! TO.N,RX*
X-14499999Y-729999D03*
G04 #@! TO.P,J3,4,Pin_4*
G04 #@! TO.N,TX*
X-14499999Y-3269999D03*
G04 #@! TO.P,J3,5,Pin_5*
G04 #@! TO.N,Net-(J3-Pin_5)*
X-14499999Y-5809999D03*
G04 #@! TO.P,J3,6,Pin_6*
G04 #@! TO.N,GND*
X-14499999Y-8349999D03*
G04 #@! TD*
D19*
G04 #@! TO.P,U1,39,GND*
G04 #@! TO.N,GND*
X-30557500Y-4205000D03*
X-29032500Y-4205000D03*
X-31320000Y-3442500D03*
X-29795000Y-3442500D03*
X-28270000Y-3442500D03*
X-30557500Y-2680000D03*
X-29032500Y-2680000D03*
X-31320000Y-1917500D03*
X-29795000Y-1917500D03*
X-28270000Y-1917500D03*
X-30557500Y-1155000D03*
X-29032500Y-1155000D03*
G04 #@! TD*
D15*
G04 #@! TO.P,D2,1,K*
G04 #@! TO.N,GND*
X22459999Y-23999999D03*
D16*
G04 #@! TO.P,D2,2,A*
G04 #@! TO.N,Net-(D2-A)*
X25000000Y-24000000D03*
G04 #@! TD*
D13*
G04 #@! TO.P,SW2,*
G04 #@! TO.N,*
X-28475000Y-23797500D03*
X-35485000Y-23797500D03*
D14*
G04 #@! TO.P,SW2,1,1*
G04 #@! TO.N,GND*
X-29725000Y-26287500D03*
G04 #@! TO.P,SW2,2,2*
G04 #@! TO.N,BOOT*
X-34225000Y-26287500D03*
G04 #@! TD*
D17*
G04 #@! TO.P,J2,1,Pin_1*
G04 #@! TO.N,GND*
X8874999Y-23999999D03*
D18*
G04 #@! TO.P,J2,2,Pin_2*
G04 #@! TO.N,+3.3V*
X6334999Y-23999999D03*
G04 #@! TO.P,J2,3,Pin_3*
G04 #@! TO.N,SCL*
X3794999Y-23999999D03*
G04 #@! TO.P,J2,4,Pin_4*
G04 #@! TO.N,SDA*
X1254999Y-23999999D03*
G04 #@! TO.P,J2,5,Pin_5*
G04 #@! TO.N,TFT_RST*
X-1284999Y-23999999D03*
G04 #@! TO.P,J2,6,Pin_6*
G04 #@! TO.N,TFT_DC*
X-3824999Y-23999999D03*
G04 #@! TO.P,J2,7,Pin_7*
G04 #@! TO.N,TFT_CS*
X-6364999Y-23999999D03*
G04 #@! TO.P,J2,8,Pin_8*
G04 #@! TO.N,TFT_BLK*
X-8904999Y-23999999D03*
G04 #@! TD*
D20*
G04 #@! TO.N,GND*
X22700000Y-5700000D03*
X28100000Y-6600000D03*
X-37100000Y5100000D03*
X-28700000Y27700000D03*
X-19800000Y18800000D03*
X-31400000Y17800000D03*
X2300000Y4700000D03*
X800000Y1200000D03*
G04 #@! TO.N,GNDA*
X12500000Y-1600000D03*
X24200000Y6000000D03*
X25300000Y-100000D03*
X12500000Y6000000D03*
X25300000Y-1900000D03*
G04 #@! TO.N,+3.3V*
X26600000Y-2700000D03*
X6400000Y-8630549D03*
G04 #@! TO.N,SCL*
X-29500000Y9300000D03*
G04 #@! TO.N,SDA*
X-29500000Y8300000D03*
G04 #@! TO.N,I2S_WS*
X-21700000Y11900000D03*
X23699503Y-2700000D03*
G04 #@! TO.N,I2S_OUT*
X-21000000Y11100000D03*
X22700000Y-2700000D03*
G04 #@! TO.N,I2S_CLK*
X-20400000Y10300000D03*
X21700497Y-2700000D03*
G04 #@! TO.N,D-EMP*
X-27000000Y5400000D03*
X-17700000Y3500000D03*
G04 #@! TO.N,soft_mute*
X-17700000Y1000000D03*
X-28200000Y5400000D03*
G04 #@! TO.N,RX*
X-32300497Y5200000D03*
G04 #@! TO.N,TX*
X-33300000Y5200000D03*
G04 #@! TD*
D21*
G04 #@! TO.N,GND*
X800000Y3200000D02*
X800000Y1200000D01*
X2300000Y4700000D02*
X800000Y3200000D01*
G04 #@! TO.N,GNDA*
X12500000Y6000000D02*
X12500000Y-1600000D01*
D22*
G04 #@! TO.N,+3.3V*
X6400000Y-8630549D02*
X6400000Y-23935000D01*
X25100000Y-4200000D02*
X10830549Y-4200000D01*
X6335000Y-24000000D02*
G75*
G03*
X6400000Y-23935000I0J65000D01*
G01*
X10830549Y-4200000D02*
G75*
G03*
X6400000Y-8630549I-49J-4430500D01*
G01*
X25100000Y-4200000D02*
G75*
G03*
X26600000Y-2700000I0J1500000D01*
G01*
D21*
G04 #@! TO.N,SCL*
X-29500000Y9300000D02*
X-19364799Y9300000D01*
X3700000Y-13764799D02*
X3700000Y-23905000D01*
X3700000Y-23905000D02*
G75*
G03*
X3795000Y-24000000I95000J0D01*
G01*
X3700000Y-13764799D02*
G75*
G03*
X-19364799Y9300000I-23064800J-1D01*
G01*
G04 #@! TO.N,SDA*
X-29500000Y8300000D02*
X-19931650Y8300000D01*
X1400000Y-13031650D02*
X1400000Y-23855000D01*
X1255000Y-24000000D02*
G75*
G03*
X1400000Y-23855000I0J145000D01*
G01*
X1400000Y-13031650D02*
G75*
G03*
X-19931650Y8300000I-21331650J0D01*
G01*
G04 #@! TO.N,BOOT*
X-14500000Y1810000D02*
X-14210000Y1810000D01*
X-34225000Y-26287500D02*
X-33291486Y-26287500D01*
X-12500000Y100000D02*
X-12500000Y-5496008D01*
X-25803996Y-18800000D02*
G75*
G03*
X-12500000Y-5496008I-4J13304000D01*
G01*
X-12500000Y100000D02*
G75*
G03*
X-14210000Y1810000I-1710000J0D01*
G01*
X-25803996Y-18800000D02*
G75*
G03*
X-32000000Y-24996014I-4J-6196000D01*
G01*
X-33291486Y-26287500D02*
G75*
G03*
X-32000000Y-24996014I-14J1291500D01*
G01*
G04 #@! TO.N,I2S_WS*
X-21700000Y11900000D02*
X9099510Y11900000D01*
X23699500Y-2700000D02*
G75*
G03*
X9099510Y11900000I-14600000J0D01*
G01*
G04 #@! TO.N,I2S_OUT*
X-21000000Y11100000D02*
X8899999Y11100000D01*
X22700000Y-2700000D02*
G75*
G03*
X8899999Y11100000I-13800000J0D01*
G01*
G04 #@! TO.N,I2S_CLK*
X-20400000Y10300000D02*
X8700497Y10300000D01*
X21700500Y-2700000D02*
G75*
G03*
X8700497Y10300000I-13000000J0D01*
G01*
G04 #@! TO.N,D-EMP*
X-17700000Y3500000D02*
X-25627278Y3500000D01*
X-27000000Y5400000D02*
X-27000000Y4872722D01*
X-27000000Y4872722D02*
G75*
G03*
X-25627278Y3500000I1372700J-22D01*
G01*
G04 #@! TO.N,soft_mute*
X-17700000Y1000000D02*
X-24325112Y1000000D01*
X-28200000Y5400000D02*
X-28200000Y4874888D01*
X-28200000Y4874888D02*
G75*
G03*
X-24325112Y1000000I3874900J12D01*
G01*
G04 #@! TO.N,RX*
X-29800000Y-7800000D02*
X-22300000Y-7800000D01*
X-32300497Y5200000D02*
X-32300497Y4963524D01*
X-18200000Y-5426194D02*
X-18200000Y-3399787D01*
X-32400000Y4700000D02*
X-32400000Y-5200000D01*
X-15530213Y-730000D02*
X-14500000Y-730000D01*
X-32300497Y4963524D02*
X-32319138Y4944883D01*
X-22300000Y-7800000D02*
X-20573806Y-7800000D01*
X-32400000Y-5200000D02*
G75*
G03*
X-29800000Y-7800000I2600000J0D01*
G01*
X-15530213Y-730000D02*
G75*
G03*
X-18200000Y-3399787I13J-2669800D01*
G01*
X-20573806Y-7800000D02*
G75*
G03*
X-18200000Y-5426194I6J2373800D01*
G01*
X-32319147Y4944890D02*
G75*
G03*
X-32400000Y4700000I341647J-248590D01*
G01*
G04 #@! TO.N,TX*
X-15476387Y-3270000D02*
X-14500000Y-3270000D01*
X-29829149Y-8348187D02*
X-20546120Y-8348187D01*
X-17600000Y-5402067D02*
X-17600000Y-5393580D01*
X-33300000Y5200000D02*
X-33300000Y-4877336D01*
X-15476387Y-3270000D02*
G75*
G03*
X-17600000Y-5393580I-13J-2123600D01*
G01*
X-33299987Y-4877336D02*
G75*
G03*
X-29829149Y-8348187I3470887J36D01*
G01*
X-20546120Y-8348200D02*
G75*
G03*
X-17600000Y-5402067I20J2946100D01*
G01*
G04 #@! TD*
G04 #@! TA.AperFunction,Conductor*
G04 #@! TO.N,GNDA*
G36*
X42502562Y29999395D02*
G01*
X42717600Y29990500D01*
X42913455Y29981948D01*
X42923330Y29981119D01*
X43136743Y29954517D01*
X43136793Y29954510D01*
X43334945Y29928423D01*
X43344192Y29926847D01*
X43553521Y29882956D01*
X43554765Y29882688D01*
X43750386Y29839320D01*
X43758901Y29837111D01*
X43963665Y29776150D01*
X43965325Y29775641D01*
X44156696Y29715302D01*
X44164453Y29712569D01*
X44363363Y29634954D01*
X44365513Y29634089D01*
X44551024Y29557248D01*
X44557972Y29554114D01*
X44725903Y29472018D01*
X44749587Y29460439D01*
X44752383Y29459028D01*
X44930420Y29366348D01*
X44936636Y29362882D01*
X45119793Y29253745D01*
X45122929Y29251813D01*
X45186491Y29211319D01*
X45292282Y29143922D01*
X45297710Y29140259D01*
X45471184Y29016401D01*
X45474616Y29013860D01*
X45633912Y28891628D01*
X45638567Y28887874D01*
X45801226Y28750109D01*
X45804838Y28746928D01*
X45952925Y28611231D01*
X45956807Y28607514D01*
X46107512Y28456809D01*
X46111232Y28452924D01*
X46246921Y28304845D01*
X46250107Y28301228D01*
X46387872Y28138569D01*
X46391626Y28133914D01*
X46513858Y27974618D01*
X46516399Y27971186D01*
X46640257Y27797712D01*
X46643920Y27792284D01*
X46751800Y27622948D01*
X46753743Y27619795D01*
X46862880Y27436638D01*
X46866346Y27430422D01*
X46959026Y27252385D01*
X46960437Y27249589D01*
X47054099Y27058003D01*
X47057260Y27050995D01*
X47134051Y26865605D01*
X47134991Y26863266D01*
X47168353Y26777768D01*
X47212559Y26664477D01*
X47215302Y26656691D01*
X47275602Y26465446D01*
X47276186Y26463540D01*
X47337105Y26258916D01*
X47339321Y26250373D01*
X47382671Y26054834D01*
X47382971Y26053441D01*
X47426844Y25844198D01*
X47428422Y25834938D01*
X47454459Y25637171D01*
X47454568Y25636323D01*
X47481114Y25423359D01*
X47481948Y25413430D01*
X47490513Y25217272D01*
X47490525Y25216987D01*
X47499394Y25002562D01*
X47499500Y24997438D01*
X47499500Y-3876000D01*
X47482887Y-3938000D01*
X47437500Y-3983387D01*
X47375500Y-4000000D01*
X27173492Y-4000000D01*
X27112576Y-3984006D01*
X27067375Y-3940150D01*
X27049549Y-3879745D01*
X27063696Y-3818374D01*
X27161549Y-3631930D01*
X27161551Y-3631924D01*
X27163290Y-3628612D01*
X27260178Y-3373139D01*
X27269233Y-3336397D01*
X27297481Y-3283099D01*
X27339040Y-3236944D01*
X27434527Y-3071556D01*
X27493542Y-2889928D01*
X27513504Y-2700000D01*
X27493542Y-2510072D01*
X27434527Y-2328444D01*
X27339040Y-2163056D01*
X27211253Y-2021134D01*
X27206003Y-2017319D01*
X27205999Y-2017316D01*
X27062006Y-1912699D01*
X27062004Y-1912697D01*
X27056752Y-1908882D01*
X27050821Y-1906241D01*
X27050817Y-1906239D01*
X26888226Y-1833849D01*
X26888219Y-1833846D01*
X26882288Y-1831206D01*
X26875935Y-1829855D01*
X26875927Y-1829853D01*
X26701849Y-1792852D01*
X26701846Y-1792851D01*
X26695487Y-1791500D01*
X26504513Y-1791500D01*
X26498154Y-1792851D01*
X26498150Y-1792852D01*
X26324072Y-1829853D01*
X26324061Y-1829856D01*
X26317712Y-1831206D01*
X26311782Y-1833845D01*
X26311773Y-1833849D01*
X26149182Y-1906239D01*
X26149174Y-1906243D01*
X26143248Y-1908882D01*
X26137999Y-1912695D01*
X26137993Y-1912699D01*
X25994000Y-2017316D01*
X25993991Y-2017323D01*
X25988747Y-2021134D01*
X25984403Y-2025957D01*
X25984400Y-2025961D01*
X25949299Y-2064945D01*
X25860960Y-2163056D01*
X25857714Y-2168676D01*
X25857711Y-2168682D01*
X25768721Y-2322817D01*
X25768718Y-2322822D01*
X25765473Y-2328444D01*
X25763467Y-2334616D01*
X25763465Y-2334622D01*
X25708465Y-2503892D01*
X25708463Y-2503901D01*
X25706458Y-2510072D01*
X25705780Y-2516522D01*
X25705778Y-2516532D01*
X25694777Y-2621209D01*
X25686496Y-2700000D01*
X25687175Y-2706460D01*
X25705778Y-2883467D01*
X25705779Y-2883475D01*
X25706458Y-2889928D01*
X25708463Y-2896100D01*
X25708465Y-2896107D01*
X25738820Y-2989529D01*
X25744405Y-3038791D01*
X25730246Y-3086303D01*
X25722291Y-3101185D01*
X25708788Y-3121393D01*
X25632068Y-3214878D01*
X25614879Y-3232067D01*
X25521394Y-3308788D01*
X25501182Y-3322293D01*
X25394533Y-3379298D01*
X25372075Y-3388601D01*
X25256344Y-3423707D01*
X25232504Y-3428449D01*
X25139558Y-3437603D01*
X25106060Y-3440903D01*
X25093907Y-3441500D01*
X24532448Y-3441500D01*
X24467658Y-3423227D01*
X24421963Y-3373794D01*
X24408830Y-3307770D01*
X24432131Y-3244614D01*
X24434194Y-3241773D01*
X24438543Y-3236944D01*
X24534030Y-3071556D01*
X24593045Y-2889928D01*
X24613007Y-2700000D01*
X24593045Y-2510072D01*
X24534030Y-2328444D01*
X24438543Y-2163056D01*
X24347974Y-2062469D01*
X24325486Y-2026763D01*
X24316274Y-1985582D01*
X24296301Y-1579017D01*
X24222992Y-834696D01*
X24113249Y-94869D01*
X23967336Y638683D01*
X23813760Y1251792D01*
X23785975Y1362718D01*
X23785974Y1362720D01*
X23785606Y1364191D01*
X23568496Y2079908D01*
X23316528Y2784110D01*
X23030311Y3475101D01*
X22710533Y4151215D01*
X22357965Y4810824D01*
X21973456Y5452338D01*
X21557932Y6074213D01*
X21408545Y6275638D01*
X21319128Y6396204D01*
X21112396Y6674950D01*
X20637919Y7253102D01*
X20135645Y7807277D01*
X19606784Y8336138D01*
X19052610Y8838412D01*
X18474458Y9312889D01*
X18283088Y9454819D01*
X17874919Y9757539D01*
X17874899Y9757554D01*
X17873722Y9758426D01*
X17251847Y10173950D01*
X16610333Y10558460D01*
X16608999Y10559173D01*
X16608985Y10559181D01*
X15952081Y10910303D01*
X15952070Y10910309D01*
X15950724Y10911028D01*
X15949354Y10911676D01*
X15949344Y10911681D01*
X15275987Y11230156D01*
X15275977Y11230161D01*
X15274610Y11230807D01*
X15273206Y11231389D01*
X15273196Y11231393D01*
X14585018Y11516445D01*
X14585015Y11516446D01*
X14583620Y11517024D01*
X14273114Y11628125D01*
X13880861Y11768476D01*
X13880849Y11768480D01*
X13879418Y11768992D01*
X13877985Y11769427D01*
X13877966Y11769433D01*
X13165160Y11985661D01*
X13165138Y11985668D01*
X13163701Y11986103D01*
X12719708Y12097318D01*
X12439671Y12167464D01*
X12439662Y12167466D01*
X12438193Y12167834D01*
X12436685Y12168134D01*
X11706129Y12313452D01*
X11706098Y12313458D01*
X11704642Y12313747D01*
X11703158Y12313968D01*
X11703153Y12313968D01*
X10966325Y12423266D01*
X10966319Y12423267D01*
X10964814Y12423490D01*
X10960027Y12423962D01*
X10222015Y12496651D01*
X10221978Y12496654D01*
X10220493Y12496800D01*
X10218974Y12496875D01*
X10218969Y12496875D01*
X9474988Y12533425D01*
X9474968Y12533426D01*
X9473472Y12533499D01*
X9471986Y12533500D01*
X9471946Y12533500D01*
X9179540Y12533500D01*
X-7482138Y12533500D01*
X-7529591Y12542939D01*
X-7569819Y12569819D01*
X-13963681Y18963681D01*
X-13990561Y19003909D01*
X-14000000Y19051362D01*
X-14000000Y20260000D01*
X-12763431Y20260000D01*
X-12743735Y19997174D01*
X-12685087Y19740220D01*
X-12588796Y19494876D01*
X-12586481Y19490866D01*
X-12586476Y19490856D01*
X-12494811Y19332088D01*
X-12457015Y19266624D01*
X-12292686Y19060562D01*
X-12099481Y18881294D01*
X-11881715Y18732824D01*
X-11644254Y18618468D01*
X-11392400Y18540782D01*
X-11131781Y18501500D01*
X-10872856Y18501500D01*
X-10868219Y18501500D01*
X-10607600Y18540782D01*
X-10355746Y18618468D01*
X-10118284Y18732824D01*
X-9900519Y18881294D01*
X-9707314Y19060562D01*
X-9542985Y19266624D01*
X-9411204Y19494876D01*
X-9314913Y19740220D01*
X-9256265Y19997174D01*
X-9236569Y20260000D01*
X1236569Y20260000D01*
X1256265Y19997174D01*
X1314913Y19740220D01*
X1411204Y19494876D01*
X1413519Y19490866D01*
X1413524Y19490856D01*
X1505189Y19332088D01*
X1542985Y19266624D01*
X1707314Y19060562D01*
X1900519Y18881294D01*
X2118285Y18732824D01*
X2355746Y18618468D01*
X2607600Y18540782D01*
X2868219Y18501500D01*
X3127144Y18501500D01*
X3131781Y18501500D01*
X3392400Y18540782D01*
X3644254Y18618468D01*
X3881716Y18732824D01*
X4099481Y18881294D01*
X4292686Y19060562D01*
X4457015Y19266624D01*
X4588796Y19494876D01*
X4685087Y19740220D01*
X4743735Y19997174D01*
X4763431Y20260000D01*
X4743735Y20522826D01*
X4685087Y20779780D01*
X4588796Y21025124D01*
X4586477Y21029140D01*
X4586475Y21029145D01*
X4478227Y21216635D01*
X4457015Y21253376D01*
X4400643Y21324064D01*
X26795631Y21324064D01*
X26796582Y21317852D01*
X26796583Y21317846D01*
X26825491Y21129144D01*
X26825493Y21129136D01*
X26826444Y21122929D01*
X26828625Y21117039D01*
X26828627Y21117033D01*
X26894928Y20938014D01*
X26894930Y20938010D01*
X26897114Y20932113D01*
X26900440Y20926777D01*
X26900442Y20926773D01*
X26994885Y20775252D01*
X27004748Y20759429D01*
X27144941Y20611947D01*
X27311951Y20495705D01*
X27498942Y20415460D01*
X27698259Y20374500D01*
X27847600Y20374500D01*
X27850742Y20374500D01*
X28002438Y20389926D01*
X28196588Y20450841D01*
X28374502Y20549591D01*
X28528895Y20682134D01*
X28653448Y20843042D01*
X28743060Y21025729D01*
X28794063Y21222715D01*
X28804369Y21425936D01*
X28773556Y21627071D01*
X28702886Y21817887D01*
X28595252Y21990571D01*
X28455059Y22138053D01*
X28288049Y22254295D01*
X28282275Y22256773D01*
X28106836Y22332061D01*
X28106831Y22332063D01*
X28101058Y22334540D01*
X28063590Y22342240D01*
X27907899Y22374235D01*
X27907894Y22374236D01*
X27901741Y22375500D01*
X27749258Y22375500D01*
X27746147Y22375184D01*
X27746134Y22375183D01*
X27603814Y22360710D01*
X27603811Y22360710D01*
X27597562Y22360074D01*
X27591564Y22358193D01*
X27591563Y22358192D01*
X27409415Y22301043D01*
X27409410Y22301041D01*
X27403412Y22299159D01*
X27397916Y22296109D01*
X27397910Y22296106D01*
X27230997Y22203462D01*
X27230991Y22203458D01*
X27225498Y22200409D01*
X27220733Y22196320D01*
X27220728Y22196315D01*
X27075873Y22071960D01*
X27075868Y22071956D01*
X27071105Y22067866D01*
X27067262Y22062902D01*
X27067255Y22062894D01*
X26950405Y21911936D01*
X26946552Y21906958D01*
X26943784Y21901317D01*
X26943780Y21901309D01*
X26859708Y21729916D01*
X26859704Y21729908D01*
X26856940Y21724271D01*
X26855365Y21718191D01*
X26855364Y21718186D01*
X26833300Y21632968D01*
X26805937Y21527285D01*
X26805619Y21521018D01*
X26805618Y21521010D01*
X26795949Y21330346D01*
X26795949Y21330341D01*
X26795631Y21324064D01*
X4400643Y21324064D01*
X4292686Y21459438D01*
X4099481Y21638706D01*
X4095652Y21641317D01*
X4095649Y21641319D01*
X3885551Y21784561D01*
X3881716Y21787176D01*
X3806853Y21823228D01*
X3648436Y21899518D01*
X3644254Y21901532D01*
X3610525Y21911936D01*
X3396836Y21977850D01*
X3396832Y21977851D01*
X3392400Y21979218D01*
X3387812Y21979910D01*
X3387810Y21979910D01*
X3136366Y22017809D01*
X3136364Y22017810D01*
X3131781Y22018500D01*
X2868219Y22018500D01*
X2863636Y22017810D01*
X2863633Y22017809D01*
X2612189Y21979910D01*
X2612184Y21979910D01*
X2607600Y21979218D01*
X2603170Y21977852D01*
X2603163Y21977850D01*
X2360183Y21902901D01*
X2360178Y21902900D01*
X2355746Y21901532D01*
X2351567Y21899520D01*
X2351563Y21899518D01*
X2122470Y21789192D01*
X2122463Y21789189D01*
X2118285Y21787176D01*
X2114452Y21784563D01*
X2114449Y21784561D01*
X1904350Y21641319D01*
X1904340Y21641312D01*
X1900519Y21638706D01*
X1897123Y21635555D01*
X1897113Y21635547D01*
X1710718Y21462597D01*
X1710714Y21462594D01*
X1707314Y21459438D01*
X1704425Y21455816D01*
X1704421Y21455811D01*
X1594398Y21317846D01*
X1542985Y21253376D01*
X1540666Y21249361D01*
X1540665Y21249358D01*
X1413524Y21029145D01*
X1413516Y21029130D01*
X1411204Y21025124D01*
X1409510Y21020810D01*
X1409508Y21020804D01*
X1337788Y20838065D01*
X1314913Y20779780D01*
X1313880Y20775259D01*
X1313879Y20775252D01*
X1257296Y20527346D01*
X1257294Y20527338D01*
X1256265Y20522826D01*
X1255918Y20518207D01*
X1255918Y20518201D01*
X1238264Y20282620D01*
X1236569Y20260000D01*
X-9236569Y20260000D01*
X-9256265Y20522826D01*
X-9314913Y20779780D01*
X-9411204Y21025124D01*
X-9413523Y21029140D01*
X-9413525Y21029145D01*
X-9521773Y21216635D01*
X-9542985Y21253376D01*
X-9707314Y21459438D01*
X-9900519Y21638706D01*
X-9904348Y21641317D01*
X-9904351Y21641319D01*
X-10114449Y21784561D01*
X-10118284Y21787176D01*
X-10193147Y21823228D01*
X-10351564Y21899518D01*
X-10355746Y21901532D01*
X-10389475Y21911936D01*
X-10603164Y21977850D01*
X-10603168Y21977851D01*
X-10607600Y21979218D01*
X-10612188Y21979910D01*
X-10612190Y21979910D01*
X-10863634Y22017809D01*
X-10863636Y22017810D01*
X-10868219Y22018500D01*
X-11131781Y22018500D01*
X-11136364Y22017810D01*
X-11136367Y22017809D01*
X-11387811Y21979910D01*
X-11387816Y21979910D01*
X-11392400Y21979218D01*
X-11396830Y21977852D01*
X-11396837Y21977850D01*
X-11639817Y21902901D01*
X-11639822Y21902900D01*
X-11644254Y21901532D01*
X-11648433Y21899520D01*
X-11648437Y21899518D01*
X-11877530Y21789192D01*
X-11877537Y21789189D01*
X-11881715Y21787176D01*
X-11885548Y21784563D01*
X-11885551Y21784561D01*
X-12095650Y21641319D01*
X-12095660Y21641312D01*
X-12099481Y21638706D01*
X-12102877Y21635555D01*
X-12102887Y21635547D01*
X-12289282Y21462597D01*
X-12289286Y21462594D01*
X-12292686Y21459438D01*
X-12295575Y21455816D01*
X-12295579Y21455811D01*
X-12405602Y21317846D01*
X-12457015Y21253376D01*
X-12459334Y21249361D01*
X-12459335Y21249358D01*
X-12586476Y21029145D01*
X-12586484Y21029130D01*
X-12588796Y21025124D01*
X-12590490Y21020810D01*
X-12590492Y21020804D01*
X-12662212Y20838065D01*
X-12685087Y20779780D01*
X-12686120Y20775259D01*
X-12686121Y20775252D01*
X-12742704Y20527346D01*
X-12742706Y20527338D01*
X-12743735Y20522826D01*
X-12744082Y20518207D01*
X-12744082Y20518201D01*
X-12761736Y20282620D01*
X-12763431Y20260000D01*
X-14000000Y20260000D01*
X-14000000Y22561704D01*
X-8581426Y22561704D01*
X-8574152Y22553518D01*
X-8345380Y22387306D01*
X-8338790Y22383124D01*
X-8069968Y22235338D01*
X-8062929Y22232025D01*
X-7777693Y22119093D01*
X-7770298Y22116690D01*
X-7473163Y22040398D01*
X-7465505Y22038937D01*
X-7161154Y22000489D01*
X-7153392Y22000000D01*
X-6846608Y22000000D01*
X-6838847Y22000489D01*
X-6534496Y22038937D01*
X-6526838Y22040398D01*
X-6229703Y22116690D01*
X-6222308Y22119093D01*
X-5937072Y22232025D01*
X-5930033Y22235338D01*
X-5661202Y22383128D01*
X-5654632Y22387298D01*
X-5425847Y22553520D01*
X-5418576Y22561703D01*
X-5418577Y22561704D01*
X5418574Y22561704D01*
X5425848Y22553518D01*
X5654620Y22387306D01*
X5661210Y22383124D01*
X5930032Y22235338D01*
X5937071Y22232025D01*
X6222307Y22119093D01*
X6229702Y22116690D01*
X6526837Y22040398D01*
X6534495Y22038937D01*
X6838846Y22000489D01*
X6846608Y22000000D01*
X7153392Y22000000D01*
X7161153Y22000489D01*
X7465504Y22038937D01*
X7473162Y22040398D01*
X7770297Y22116690D01*
X7777692Y22119093D01*
X8062928Y22232025D01*
X8069967Y22235338D01*
X8338798Y22383128D01*
X8345368Y22387298D01*
X8574153Y22553520D01*
X8581424Y22561703D01*
X8575520Y22570927D01*
X8396447Y22750000D01*
X10199459Y22750000D01*
X10199500Y22749901D01*
X10199617Y22749617D01*
X10200000Y22749459D01*
X10200099Y22749500D01*
X12699901Y22749500D01*
X12700000Y22749459D01*
X12700383Y22749617D01*
X12700500Y22749901D01*
X12700541Y22750000D01*
X12700500Y22750099D01*
X12700500Y24932235D01*
X40645788Y24932235D01*
X40646282Y24927738D01*
X40646283Y24927733D01*
X40674917Y24667494D01*
X40674918Y24667487D01*
X40675414Y24662982D01*
X40676559Y24658602D01*
X40676561Y24658592D01*
X40739605Y24417446D01*
X40743928Y24400912D01*
X40745693Y24396758D01*
X40745696Y24396750D01*
X40848099Y24155777D01*
X40849870Y24151610D01*
X40852226Y24147749D01*
X40852229Y24147744D01*
X40988618Y23924263D01*
X40990982Y23920390D01*
X41164255Y23712180D01*
X41167630Y23709156D01*
X41167631Y23709155D01*
X41318090Y23574343D01*
X41365998Y23531418D01*
X41591910Y23381956D01*
X41837176Y23266980D01*
X42096569Y23188940D01*
X42364561Y23149500D01*
X42565369Y23149500D01*
X42567631Y23149500D01*
X42770156Y23164323D01*
X43034553Y23223220D01*
X43287558Y23319986D01*
X43523777Y23452559D01*
X43738177Y23618112D01*
X43926186Y23813119D01*
X44083799Y24033421D01*
X44207656Y24274325D01*
X44295118Y24530695D01*
X44344319Y24797067D01*
X44354212Y25067765D01*
X44324586Y25337018D01*
X44256072Y25599088D01*
X44150130Y25848390D01*
X44009018Y26079610D01*
X43835745Y26287820D01*
X43730759Y26381888D01*
X43637382Y26465554D01*
X43637378Y26465558D01*
X43634002Y26468582D01*
X43408090Y26618044D01*
X43403996Y26619964D01*
X43403991Y26619966D01*
X43166929Y26731096D01*
X43166925Y26731098D01*
X43162824Y26733020D01*
X43158477Y26734328D01*
X43158474Y26734329D01*
X42907772Y26809754D01*
X42907771Y26809755D01*
X42903431Y26811060D01*
X42898957Y26811719D01*
X42898950Y26811720D01*
X42639913Y26849842D01*
X42639907Y26849843D01*
X42635439Y26850500D01*
X42432369Y26850500D01*
X42430120Y26850336D01*
X42430109Y26850335D01*
X42234363Y26836008D01*
X42234359Y26836008D01*
X42229844Y26835677D01*
X42225426Y26834693D01*
X42225420Y26834692D01*
X41969877Y26777768D01*
X41969861Y26777764D01*
X41965447Y26776780D01*
X41961216Y26775162D01*
X41961210Y26775160D01*
X41716673Y26681633D01*
X41716663Y26681629D01*
X41712442Y26680014D01*
X41708494Y26677799D01*
X41708489Y26677796D01*
X41480176Y26549660D01*
X41480171Y26549657D01*
X41476223Y26547441D01*
X41472639Y26544675D01*
X41472635Y26544671D01*
X41265407Y26384657D01*
X41265394Y26384646D01*
X41261823Y26381888D01*
X41258685Y26378634D01*
X41258678Y26378627D01*
X41076958Y26190143D01*
X41076952Y26190136D01*
X41073814Y26186881D01*
X41071189Y26183213D01*
X41071179Y26183200D01*
X40918834Y25970260D01*
X40918830Y25970255D01*
X40916201Y25966579D01*
X40914132Y25962556D01*
X40914129Y25962550D01*
X40794416Y25729707D01*
X40794411Y25729696D01*
X40792344Y25725675D01*
X40790884Y25721398D01*
X40790879Y25721384D01*
X40706348Y25473605D01*
X40706344Y25473593D01*
X40704882Y25469305D01*
X40704057Y25464841D01*
X40704057Y25464839D01*
X40656504Y25207394D01*
X40656502Y25207381D01*
X40655681Y25202933D01*
X40655515Y25198407D01*
X40655515Y25198401D01*
X40648171Y24997438D01*
X40645788Y24932235D01*
X12700500Y24932235D01*
X12700500Y26249901D01*
X12700541Y26250000D01*
X12700383Y26250383D01*
X12700099Y26250500D01*
X12700000Y26250541D01*
X12699901Y26250500D01*
X10200099Y26250500D01*
X10200000Y26250541D01*
X10199901Y26250500D01*
X10199617Y26250383D01*
X10199459Y26250000D01*
X10199500Y26249901D01*
X10199500Y22750099D01*
X10199459Y22750000D01*
X8396447Y22750000D01*
X7011542Y24134905D01*
X7000000Y24141569D01*
X6988457Y24134905D01*
X5424478Y22570927D01*
X5418574Y22561704D01*
X-5418577Y22561704D01*
X-5424480Y22570927D01*
X-6988458Y24134905D01*
X-7000000Y24141569D01*
X-7011543Y24134905D01*
X-8575522Y22570927D01*
X-8581426Y22561704D01*
X-14000000Y22561704D01*
X-14000000Y22750000D01*
X-12700541Y22750000D01*
X-12700500Y22749901D01*
X-12700383Y22749617D01*
X-12700000Y22749459D01*
X-12699901Y22749500D01*
X-10200099Y22749500D01*
X-10200000Y22749459D01*
X-10199617Y22749617D01*
X-10199500Y22749901D01*
X-10199459Y22750000D01*
X-10199500Y22750099D01*
X-10199500Y24496106D01*
X-9504698Y24496106D01*
X-9485436Y24189941D01*
X-9484462Y24182221D01*
X-9426977Y23880876D01*
X-9425041Y23873337D01*
X-9330241Y23581574D01*
X-9327378Y23574343D01*
X-9196757Y23296760D01*
X-9193013Y23289949D01*
X-9028632Y23030925D01*
X-9024058Y23024629D01*
X-8946751Y22931181D01*
X-8935453Y22923416D01*
X-8923468Y22930087D01*
X-7365096Y24488458D01*
X-7358432Y24500000D01*
X-6641569Y24500000D01*
X-6634905Y24488458D01*
X-5076533Y22930086D01*
X-5064551Y22923416D01*
X-5053249Y22931184D01*
X-4975946Y23024626D01*
X-4971370Y23030924D01*
X-4806988Y23289949D01*
X-4803244Y23296760D01*
X-4672623Y23574343D01*
X-4669760Y23581574D01*
X-4574960Y23873337D01*
X-4573024Y23880876D01*
X-4515539Y24182221D01*
X-4514565Y24189941D01*
X-4495302Y24496106D01*
X4495302Y24496106D01*
X4514564Y24189941D01*
X4515538Y24182221D01*
X4573023Y23880876D01*
X4574959Y23873337D01*
X4669759Y23581574D01*
X4672622Y23574343D01*
X4803243Y23296760D01*
X4806987Y23289949D01*
X4971368Y23030925D01*
X4975942Y23024629D01*
X5053249Y22931181D01*
X5064547Y22923416D01*
X5076532Y22930087D01*
X6634904Y24488458D01*
X6641568Y24500000D01*
X7358431Y24500000D01*
X7365095Y24488458D01*
X8923467Y22930086D01*
X8935449Y22923416D01*
X8946751Y22931184D01*
X9024054Y23024626D01*
X9028630Y23030924D01*
X9193012Y23289949D01*
X9196756Y23296760D01*
X9327377Y23574343D01*
X9330240Y23581574D01*
X9425040Y23873337D01*
X9426976Y23880876D01*
X9484461Y24182221D01*
X9485435Y24189941D01*
X9504698Y24496106D01*
X9504698Y24503894D01*
X9485435Y24810060D01*
X9484461Y24817780D01*
X9426976Y25119125D01*
X9425040Y25126664D01*
X9330240Y25418427D01*
X9327377Y25425658D01*
X9196756Y25703241D01*
X9193012Y25710052D01*
X9028631Y25969076D01*
X9024057Y25975372D01*
X8946749Y26068821D01*
X8935450Y26076586D01*
X8923467Y26069916D01*
X7365095Y24511543D01*
X7358431Y24500000D01*
X6641568Y24500000D01*
X6634904Y24511543D01*
X5076532Y26069915D01*
X5064548Y26076585D01*
X5053247Y26068818D01*
X4975940Y25975369D01*
X4971373Y25969083D01*
X4806987Y25710052D01*
X4803243Y25703241D01*
X4672622Y25425658D01*
X4669759Y25418427D01*
X4574959Y25126664D01*
X4573023Y25119125D01*
X4515538Y24817780D01*
X4514564Y24810060D01*
X4495302Y24503894D01*
X4495302Y24496106D01*
X-4495302Y24496106D01*
X-4495302Y24503894D01*
X-4514565Y24810060D01*
X-4515539Y24817780D01*
X-4573024Y25119125D01*
X-4574960Y25126664D01*
X-4669760Y25418427D01*
X-4672623Y25425658D01*
X-4803244Y25703241D01*
X-4806988Y25710052D01*
X-4971369Y25969076D01*
X-4975943Y25975372D01*
X-5053251Y26068821D01*
X-5064550Y26076586D01*
X-5076533Y26069916D01*
X-6634905Y24511543D01*
X-6641569Y24500000D01*
X-7358432Y24500000D01*
X-7365096Y24511543D01*
X-8923468Y26069915D01*
X-8935452Y26076585D01*
X-8946753Y26068818D01*
X-9024060Y25975369D01*
X-9028627Y25969083D01*
X-9193013Y25710052D01*
X-9196757Y25703241D01*
X-9327378Y25425658D01*
X-9330241Y25418427D01*
X-9425041Y25126664D01*
X-9426977Y25119125D01*
X-9484462Y24817780D01*
X-9485436Y24810060D01*
X-9504698Y24503894D01*
X-9504698Y24496106D01*
X-10199500Y24496106D01*
X-10199500Y26249901D01*
X-10199459Y26250000D01*
X-10199617Y26250383D01*
X-10199901Y26250500D01*
X-10200000Y26250541D01*
X-10200099Y26250500D01*
X-12699901Y26250500D01*
X-12700000Y26250541D01*
X-12700099Y26250500D01*
X-12700383Y26250383D01*
X-12700541Y26250000D01*
X-12700500Y26249901D01*
X-12700500Y22750099D01*
X-12700541Y22750000D01*
X-14000000Y22750000D01*
X-14000000Y26438298D01*
X-8581426Y26438298D01*
X-8575520Y26429073D01*
X-7011543Y24865096D01*
X-7000000Y24858432D01*
X-6988458Y24865096D01*
X-5424482Y26429073D01*
X-5418576Y26438298D01*
X5418574Y26438298D01*
X5424480Y26429073D01*
X6988457Y24865096D01*
X7000000Y24858432D01*
X7011542Y24865096D01*
X8575518Y26429073D01*
X8581424Y26438298D01*
X8574150Y26446484D01*
X8345379Y26612695D01*
X8338789Y26616877D01*
X8069967Y26764663D01*
X8062928Y26767976D01*
X7777692Y26880908D01*
X7770297Y26883311D01*
X7473162Y26959603D01*
X7465504Y26961064D01*
X7161153Y26999512D01*
X7153392Y27000000D01*
X6846608Y27000000D01*
X6838846Y26999512D01*
X6534495Y26961064D01*
X6526837Y26959603D01*
X6229702Y26883311D01*
X6222307Y26880908D01*
X5937071Y26767976D01*
X5930032Y26764663D01*
X5661210Y26616877D01*
X5654620Y26612695D01*
X5425848Y26446484D01*
X5418574Y26438298D01*
X-5418576Y26438298D01*
X-5425850Y26446484D01*
X-5654621Y26612695D01*
X-5661211Y26616877D01*
X-5930033Y26764663D01*
X-5937072Y26767976D01*
X-6222308Y26880908D01*
X-6229703Y26883311D01*
X-6526838Y26959603D01*
X-6534496Y26961064D01*
X-6838847Y26999512D01*
X-6846608Y27000000D01*
X-7153392Y27000000D01*
X-7161154Y26999512D01*
X-7465505Y26961064D01*
X-7473163Y26959603D01*
X-7770298Y26883311D01*
X-7777693Y26880908D01*
X-8062929Y26767976D01*
X-8069968Y26764663D01*
X-8338790Y26616877D01*
X-8345380Y26612695D01*
X-8574152Y26446484D01*
X-8581426Y26438298D01*
X-14000000Y26438298D01*
X-14000000Y28324064D01*
X26795631Y28324064D01*
X26796582Y28317852D01*
X26796583Y28317846D01*
X26825491Y28129144D01*
X26825493Y28129136D01*
X26826444Y28122929D01*
X26828625Y28117039D01*
X26828627Y28117033D01*
X26894928Y27938014D01*
X26894930Y27938010D01*
X26897114Y27932113D01*
X26900440Y27926777D01*
X26900442Y27926773D01*
X26912044Y27908159D01*
X27004748Y27759429D01*
X27144941Y27611947D01*
X27311951Y27495705D01*
X27498942Y27415460D01*
X27698259Y27374500D01*
X27847600Y27374500D01*
X27850742Y27374500D01*
X28002438Y27389926D01*
X28196588Y27450841D01*
X28374502Y27549591D01*
X28528895Y27682134D01*
X28653448Y27843042D01*
X28743060Y28025729D01*
X28794063Y28222715D01*
X28804369Y28425936D01*
X28773556Y28627071D01*
X28702886Y28817887D01*
X28644265Y28911936D01*
X28598578Y28985235D01*
X28598577Y28985236D01*
X28595252Y28990571D01*
X28455059Y29138053D01*
X28288049Y29254295D01*
X28282275Y29256773D01*
X28106836Y29332061D01*
X28106831Y29332063D01*
X28101058Y29334540D01*
X28063590Y29342240D01*
X27907899Y29374235D01*
X27907894Y29374236D01*
X27901741Y29375500D01*
X27749258Y29375500D01*
X27746147Y29375184D01*
X27746134Y29375183D01*
X27603814Y29360710D01*
X27603811Y29360710D01*
X27597562Y29360074D01*
X27591564Y29358193D01*
X27591563Y29358192D01*
X27409415Y29301043D01*
X27409410Y29301041D01*
X27403412Y29299159D01*
X27397916Y29296109D01*
X27397910Y29296106D01*
X27230997Y29203462D01*
X27230991Y29203458D01*
X27225498Y29200409D01*
X27220733Y29196320D01*
X27220728Y29196315D01*
X27075873Y29071960D01*
X27075868Y29071956D01*
X27071105Y29067866D01*
X27067262Y29062902D01*
X27067255Y29062894D01*
X27007143Y28985235D01*
X26946552Y28906958D01*
X26943784Y28901317D01*
X26943780Y28901309D01*
X26859708Y28729916D01*
X26859704Y28729908D01*
X26856940Y28724271D01*
X26855365Y28718191D01*
X26855364Y28718186D01*
X26807511Y28533366D01*
X26805937Y28527285D01*
X26805619Y28521018D01*
X26805618Y28521010D01*
X26795949Y28330346D01*
X26795949Y28330341D01*
X26795631Y28324064D01*
X-14000000Y28324064D01*
X-14000000Y29875500D01*
X-13983387Y29937500D01*
X-13938000Y29982887D01*
X-13876000Y29999500D01*
X42497439Y29999500D01*
X42502562Y29999395D01*
G37*
G04 #@! TD.AperFunction*
G04 #@! TA.AperFunction,Conductor*
G36*
X8702158Y9666455D02*
G01*
X9366663Y9648455D01*
X9373353Y9648092D01*
X10034212Y9594279D01*
X10040867Y9593556D01*
X10697884Y9504040D01*
X10704456Y9502962D01*
X11355627Y9378013D01*
X11362167Y9376574D01*
X12005649Y9216548D01*
X12012087Y9214760D01*
X12645941Y9020136D01*
X12652270Y9018004D01*
X13274672Y8789345D01*
X13280887Y8786868D01*
X13889984Y8524854D01*
X13896058Y8522044D01*
X14270903Y8336138D01*
X14490069Y8227442D01*
X14495998Y8224298D01*
X14886644Y8003436D01*
X15073170Y7897979D01*
X15078917Y7894522D01*
X15217190Y7806139D01*
X15637586Y7537427D01*
X15643145Y7533658D01*
X16181658Y7146845D01*
X16187004Y7142781D01*
X16703770Y6727393D01*
X16708889Y6723046D01*
X17202445Y6280257D01*
X17207320Y6275638D01*
X17676135Y5806823D01*
X17680754Y5801948D01*
X18123543Y5308392D01*
X18127890Y5303273D01*
X18543278Y4786507D01*
X18547342Y4781161D01*
X18934150Y4242657D01*
X18937919Y4237098D01*
X19295011Y3678433D01*
X19298474Y3672679D01*
X19624801Y3095492D01*
X19627946Y3089559D01*
X19922537Y2495571D01*
X19925357Y2489476D01*
X20187361Y1880403D01*
X20189847Y1874164D01*
X20418496Y1251792D01*
X20420640Y1245428D01*
X20615253Y611607D01*
X20617050Y605136D01*
X20777070Y-38321D01*
X20778513Y-44880D01*
X20903455Y-696014D01*
X20904542Y-702641D01*
X20994053Y-1359618D01*
X20994779Y-1366294D01*
X21047173Y-2009740D01*
X21041055Y-2059503D01*
X21015733Y-2102775D01*
X20992291Y-2128811D01*
X20961457Y-2163056D01*
X20958211Y-2168676D01*
X20958208Y-2168682D01*
X20869218Y-2322817D01*
X20869215Y-2322822D01*
X20865970Y-2328444D01*
X20863964Y-2334616D01*
X20863962Y-2334622D01*
X20808962Y-2503892D01*
X20808960Y-2503901D01*
X20806955Y-2510072D01*
X20806277Y-2516522D01*
X20806275Y-2516532D01*
X20795274Y-2621209D01*
X20786993Y-2700000D01*
X20787672Y-2706460D01*
X20806275Y-2883467D01*
X20806276Y-2883475D01*
X20806955Y-2889928D01*
X20808960Y-2896100D01*
X20808962Y-2896107D01*
X20863962Y-3065377D01*
X20865970Y-3071556D01*
X20961457Y-3236944D01*
X20965803Y-3241771D01*
X20967869Y-3244614D01*
X20991170Y-3307770D01*
X20978037Y-3373794D01*
X20932342Y-3423227D01*
X20867552Y-3441500D01*
X10830607Y-3441500D01*
X10618535Y-3441498D01*
X10615984Y-3441498D01*
X10613453Y-3441707D01*
X10613445Y-3441708D01*
X10190742Y-3476730D01*
X10190728Y-3476731D01*
X10188202Y-3476941D01*
X10185690Y-3477360D01*
X10185683Y-3477361D01*
X9767333Y-3547167D01*
X9767317Y-3547170D01*
X9764808Y-3547589D01*
X9762342Y-3548213D01*
X9762325Y-3548217D01*
X9351167Y-3652333D01*
X9351143Y-3652339D01*
X9348695Y-3652960D01*
X9346307Y-3653779D01*
X9346286Y-3653786D01*
X8945121Y-3791504D01*
X8945108Y-3791508D01*
X8942705Y-3792334D01*
X8940367Y-3793359D01*
X8940358Y-3793363D01*
X8915763Y-3804151D01*
X8867662Y-3814582D01*
X8819292Y-3805479D01*
X8778275Y-3778275D01*
X1835633Y3164367D01*
X1803539Y3219954D01*
X1803539Y3284142D01*
X1835633Y3339729D01*
X2251085Y3755181D01*
X2291313Y3782061D01*
X2338766Y3791500D01*
X2388984Y3791500D01*
X2395487Y3791500D01*
X2582288Y3831206D01*
X2756752Y3908882D01*
X2911253Y4021134D01*
X3039040Y4163056D01*
X3134527Y4328444D01*
X3193542Y4510072D01*
X3213504Y4700000D01*
X3193542Y4889928D01*
X3134527Y5071556D01*
X3039040Y5236944D01*
X2911253Y5378866D01*
X2906003Y5382681D01*
X2905999Y5382684D01*
X2762006Y5487301D01*
X2762004Y5487303D01*
X2756752Y5491118D01*
X2750821Y5493759D01*
X2750817Y5493761D01*
X2588226Y5566151D01*
X2588219Y5566154D01*
X2582288Y5568794D01*
X2575935Y5570145D01*
X2575927Y5570147D01*
X2401849Y5607148D01*
X2401846Y5607149D01*
X2395487Y5608500D01*
X2204513Y5608500D01*
X2198154Y5607149D01*
X2198150Y5607148D01*
X2024072Y5570147D01*
X2024061Y5570144D01*
X2017712Y5568794D01*
X2011782Y5566155D01*
X2011773Y5566151D01*
X1849182Y5493761D01*
X1849174Y5493757D01*
X1843248Y5491118D01*
X1837999Y5487305D01*
X1837993Y5487301D01*
X1694000Y5382684D01*
X1693991Y5382677D01*
X1688747Y5378866D01*
X1684403Y5374043D01*
X1684400Y5374039D01*
X1571489Y5248638D01*
X1560960Y5236944D01*
X1557714Y5231324D01*
X1557711Y5231318D01*
X1468721Y5077183D01*
X1468718Y5077178D01*
X1465473Y5071556D01*
X1463467Y5065384D01*
X1463465Y5065378D01*
X1408465Y4896108D01*
X1408463Y4896099D01*
X1406458Y4889928D01*
X1405779Y4883469D01*
X1405779Y4883468D01*
X1389018Y4724004D01*
X1377617Y4683582D01*
X1353378Y4649285D01*
X939728Y4235634D01*
X884141Y4203540D01*
X819953Y4203540D01*
X764366Y4235634D01*
X-4454819Y9454819D01*
X-4485069Y9504182D01*
X-4489611Y9561898D01*
X-4467456Y9615385D01*
X-4423433Y9652985D01*
X-4367138Y9666500D01*
X8623576Y9666500D01*
X8698800Y9666500D01*
X8702158Y9666455D01*
G37*
G04 #@! TD.AperFunction*
G04 #@! TD*
G04 #@! TA.AperFunction,Conductor*
G04 #@! TO.N,GND*
G36*
X-14575500Y29982887D02*
G01*
X-14530113Y29937500D01*
X-14513500Y29875500D01*
X-14513500Y28350206D01*
X-14513500Y26336799D01*
X-14513500Y25737000D01*
X-14513500Y22663203D01*
X-14513500Y20260001D01*
X-14513500Y19051362D01*
X-14513203Y19048344D01*
X-14513202Y19048329D01*
X-14503932Y18954209D01*
X-14503930Y18954190D01*
X-14503633Y18951183D01*
X-14494194Y18903730D01*
X-14464972Y18807399D01*
X-14417518Y18718620D01*
X-14390638Y18678392D01*
X-14388708Y18676041D01*
X-14388707Y18676039D01*
X-14328710Y18602933D01*
X-14328705Y18602927D01*
X-14326780Y18600582D01*
X-14324629Y18598431D01*
X-8471379Y12745181D01*
X-8441129Y12695818D01*
X-8436587Y12638102D01*
X-8458742Y12584615D01*
X-8502765Y12547015D01*
X-8559060Y12533500D01*
X-20992691Y12533500D01*
X-21043126Y12544220D01*
X-21079022Y12570300D01*
X-21079571Y12569690D01*
X-21084402Y12574040D01*
X-21088747Y12578866D01*
X-21093997Y12582681D01*
X-21094001Y12582684D01*
X-21237994Y12687301D01*
X-21237996Y12687303D01*
X-21243248Y12691118D01*
X-21249179Y12693759D01*
X-21249183Y12693761D01*
X-21411774Y12766151D01*
X-21411781Y12766154D01*
X-21417712Y12768794D01*
X-21424065Y12770145D01*
X-21424073Y12770147D01*
X-21598151Y12807148D01*
X-21598154Y12807149D01*
X-21604513Y12808500D01*
X-21795487Y12808500D01*
X-21801846Y12807149D01*
X-21801850Y12807148D01*
X-21975928Y12770147D01*
X-21975939Y12770144D01*
X-21982288Y12768794D01*
X-21988218Y12766155D01*
X-21988227Y12766151D01*
X-22150818Y12693761D01*
X-22150826Y12693757D01*
X-22156752Y12691118D01*
X-22162001Y12687305D01*
X-22162007Y12687301D01*
X-22306000Y12582684D01*
X-22306009Y12582677D01*
X-22311253Y12578866D01*
X-22315597Y12574043D01*
X-22315600Y12574039D01*
X-22352101Y12533500D01*
X-22439040Y12436944D01*
X-22442286Y12431324D01*
X-22442289Y12431318D01*
X-22531279Y12277183D01*
X-22531282Y12277178D01*
X-22534527Y12271556D01*
X-22536533Y12265384D01*
X-22536535Y12265378D01*
X-22591535Y12096108D01*
X-22591537Y12096099D01*
X-22593542Y12089928D01*
X-22594220Y12083478D01*
X-22594222Y12083468D01*
X-22612222Y11912205D01*
X-22613504Y11900000D01*
X-22612825Y11893540D01*
X-22594222Y11716533D01*
X-22594221Y11716525D01*
X-22593542Y11710072D01*
X-22591537Y11703900D01*
X-22591535Y11703893D01*
X-22536535Y11534623D01*
X-22534527Y11528444D01*
X-22439040Y11363056D01*
X-22311253Y11221134D01*
X-22306003Y11217320D01*
X-22306000Y11217317D01*
X-22163137Y11113521D01*
X-22156752Y11108882D01*
X-21982288Y11031206D01*
X-21978833Y11030472D01*
X-21938868Y11008322D01*
X-21909085Y10971547D01*
X-21895248Y10926293D01*
X-21894223Y10916542D01*
X-21894222Y10916534D01*
X-21893542Y10910072D01*
X-21834527Y10728444D01*
X-21739040Y10563056D01*
X-21611253Y10421134D01*
X-21606003Y10417320D01*
X-21606000Y10417317D01*
X-21463137Y10313521D01*
X-21456752Y10308882D01*
X-21374359Y10272199D01*
X-21372855Y10271529D01*
X-21322973Y10231135D01*
X-21299970Y10171213D01*
X-21294223Y10116542D01*
X-21294222Y10116534D01*
X-21293542Y10110072D01*
X-21291536Y10103896D01*
X-21291534Y10103890D01*
X-21288910Y10095815D01*
X-21284369Y10038100D01*
X-21306525Y9984613D01*
X-21350548Y9947015D01*
X-21406842Y9933500D01*
X-28792691Y9933500D01*
X-28843126Y9944220D01*
X-28879022Y9970300D01*
X-28879571Y9969690D01*
X-28884402Y9974040D01*
X-28888747Y9978866D01*
X-28893997Y9982681D01*
X-28894001Y9982684D01*
X-29037994Y10087301D01*
X-29037996Y10087303D01*
X-29043248Y10091118D01*
X-29049179Y10093759D01*
X-29049183Y10093761D01*
X-29211774Y10166151D01*
X-29211781Y10166154D01*
X-29217712Y10168794D01*
X-29224065Y10170145D01*
X-29224073Y10170147D01*
X-29398151Y10207148D01*
X-29398154Y10207149D01*
X-29404513Y10208500D01*
X-29595487Y10208500D01*
X-29601846Y10207149D01*
X-29601850Y10207148D01*
X-29775928Y10170147D01*
X-29775939Y10170144D01*
X-29782288Y10168794D01*
X-29788218Y10166155D01*
X-29788227Y10166151D01*
X-29950818Y10093761D01*
X-29950826Y10093757D01*
X-29956752Y10091118D01*
X-29962001Y10087305D01*
X-29962007Y10087301D01*
X-30106000Y9982684D01*
X-30106009Y9982677D01*
X-30111253Y9978866D01*
X-30115597Y9974043D01*
X-30115600Y9974039D01*
X-30152101Y9933500D01*
X-30239040Y9836944D01*
X-30242286Y9831324D01*
X-30242289Y9831318D01*
X-30331279Y9677183D01*
X-30331282Y9677178D01*
X-30334527Y9671556D01*
X-30336533Y9665384D01*
X-30336535Y9665378D01*
X-30391535Y9496108D01*
X-30391537Y9496099D01*
X-30393542Y9489928D01*
X-30394220Y9483478D01*
X-30394222Y9483468D01*
X-30412222Y9312205D01*
X-30413504Y9300000D01*
X-30412825Y9293540D01*
X-30394222Y9116533D01*
X-30394221Y9116525D01*
X-30393542Y9110072D01*
X-30391537Y9103900D01*
X-30391535Y9103893D01*
X-30386738Y9089131D01*
X-30334527Y8928444D01*
X-30331279Y8922818D01*
X-30331277Y8922814D01*
X-30296166Y8861999D01*
X-30279553Y8800000D01*
X-30296166Y8738001D01*
X-30331277Y8677187D01*
X-30331281Y8677180D01*
X-30334527Y8671556D01*
X-30336533Y8665384D01*
X-30336535Y8665378D01*
X-30391535Y8496108D01*
X-30391537Y8496099D01*
X-30393542Y8489928D01*
X-30394220Y8483478D01*
X-30394222Y8483468D01*
X-30412222Y8312205D01*
X-30413504Y8300000D01*
X-30412825Y8293540D01*
X-30394222Y8116533D01*
X-30394221Y8116525D01*
X-30393542Y8110072D01*
X-30391537Y8103900D01*
X-30391535Y8103893D01*
X-30336535Y7934623D01*
X-30334527Y7928444D01*
X-30331280Y7922820D01*
X-30331279Y7922818D01*
X-30289272Y7850059D01*
X-30239040Y7763056D01*
X-30111253Y7621134D01*
X-30106003Y7617320D01*
X-30106000Y7617317D01*
X-30070679Y7591655D01*
X-29956752Y7508882D01*
X-29950819Y7506241D01*
X-29950818Y7506240D01*
X-29803880Y7440819D01*
X-29782288Y7431206D01*
X-29775930Y7429855D01*
X-29775928Y7429854D01*
X-29739126Y7422032D01*
X-29595487Y7391500D01*
X-29411016Y7391500D01*
X-29404513Y7391500D01*
X-29217712Y7431206D01*
X-29043248Y7508882D01*
X-28888747Y7621134D01*
X-28884400Y7625963D01*
X-28879571Y7630310D01*
X-28879022Y7629701D01*
X-28843126Y7655780D01*
X-28792691Y7666500D01*
X-20008571Y7666500D01*
X-19932963Y7666500D01*
X-19930332Y7666473D01*
X-19055796Y7647906D01*
X-19050621Y7647686D01*
X-18178924Y7592101D01*
X-18173707Y7591657D01*
X-17305215Y7499131D01*
X-17300059Y7498472D01*
X-16436209Y7369160D01*
X-16431084Y7368281D01*
X-15573526Y7202428D01*
X-15568458Y7201336D01*
X-14718706Y6999236D01*
X-14713679Y6997927D01*
X-13873250Y6759938D01*
X-13868288Y6758419D01*
X-13038763Y6484990D01*
X-13033843Y6483252D01*
X-12216629Y6174849D01*
X-12211817Y6172915D01*
X-11408464Y5830122D01*
X-11403709Y5827973D01*
X-10615616Y5451387D01*
X-10610953Y5449035D01*
X-10227399Y5245328D01*
X-9839591Y5039361D01*
X-9834996Y5036794D01*
X-9555589Y4872832D01*
X-9081722Y4594756D01*
X-9077265Y4592012D01*
X-8560106Y4258242D01*
X-8343413Y4118390D01*
X-8339052Y4115442D01*
X-8083962Y3935027D01*
X-7883718Y3793402D01*
X-7625992Y3611123D01*
X-7621763Y3607995D01*
X-6994078Y3122818D01*
X-6930734Y3073856D01*
X-6926647Y3070556D01*
X-6360063Y2592853D01*
X-6258934Y2507589D01*
X-6254990Y2504119D01*
X-5847618Y2129947D01*
X-5611722Y1913276D01*
X-5607922Y1909633D01*
X-4990368Y1292079D01*
X-4986725Y1288279D01*
X-4397835Y647137D01*
X-4395889Y645019D01*
X-4392416Y641071D01*
X-3936428Y100242D01*
X-3829452Y-26638D01*
X-3826148Y-30730D01*
X-3787129Y-81209D01*
X-3292008Y-721759D01*
X-3288878Y-725991D01*
X-2784559Y-1439051D01*
X-2781611Y-1443412D01*
X-2307997Y-2177251D01*
X-2305237Y-2181734D01*
X-1863207Y-2934995D01*
X-1860640Y-2939590D01*
X-1450975Y-3710934D01*
X-1448605Y-3715634D01*
X-1072038Y-4503687D01*
X-1069870Y-4508484D01*
X-1049002Y-4557389D01*
X-773067Y-5204058D01*
X-727101Y-5311780D01*
X-725143Y-5316652D01*
X-625401Y-5580951D01*
X-416754Y-6133828D01*
X-415002Y-6138790D01*
X-146413Y-6953632D01*
X-141596Y-6968244D01*
X-140054Y-6973278D01*
X97917Y-7813645D01*
X99242Y-7818738D01*
X294683Y-8640489D01*
X301326Y-8668418D01*
X302435Y-8673564D01*
X468274Y-9531051D01*
X469164Y-9536239D01*
X598466Y-10400025D01*
X599134Y-10405246D01*
X691654Y-11273692D01*
X692101Y-11278937D01*
X747683Y-12150578D01*
X747906Y-12155837D01*
X766472Y-13030331D01*
X766500Y-13032963D01*
X766500Y-22645801D01*
X749023Y-22709275D01*
X701517Y-22754856D01*
X513934Y-22856369D01*
X513922Y-22856376D01*
X509424Y-22858811D01*
X505389Y-22861951D01*
X505376Y-22861960D01*
X335801Y-22993948D01*
X335795Y-22993952D01*
X331760Y-22997094D01*
X328297Y-23000855D01*
X328288Y-23000864D01*
X182753Y-23158956D01*
X182747Y-23158963D01*
X179278Y-23162732D01*
X176481Y-23167012D01*
X176474Y-23167022D01*
X88809Y-23301205D01*
X44017Y-23342438D01*
X-15000Y-23357383D01*
X-74017Y-23342438D01*
X-118809Y-23301205D01*
X-206475Y-23167022D01*
X-206477Y-23167020D01*
X-209278Y-23162732D01*
X-237645Y-23131917D01*
X-358289Y-23000864D01*
X-358292Y-23000861D01*
X-361760Y-22997094D01*
X-413226Y-22957036D01*
X-535377Y-22861960D01*
X-535385Y-22861955D01*
X-539424Y-22858811D01*
X-543929Y-22856373D01*
X-543935Y-22856369D01*
X-732920Y-22754096D01*
X-732926Y-22754093D01*
X-737426Y-22751658D01*
X-742267Y-22749996D01*
X-742274Y-22749993D01*
X-945512Y-22680222D01*
X-945513Y-22680221D01*
X-950365Y-22678556D01*
X-955415Y-22677713D01*
X-955424Y-22677711D01*
X-1167369Y-22642344D01*
X-1167378Y-22642343D01*
X-1172431Y-22641500D01*
X-1397569Y-22641500D01*
X-1402622Y-22642343D01*
X-1402632Y-22642344D01*
X-1614577Y-22677711D01*
X-1614589Y-22677713D01*
X-1619635Y-22678556D01*
X-1624485Y-22680220D01*
X-1624489Y-22680222D01*
X-1827727Y-22749993D01*
X-1827738Y-22749997D01*
X-1832574Y-22751658D01*
X-1837071Y-22754091D01*
X-1837081Y-22754096D01*
X-2026066Y-22856369D01*
X-2026078Y-22856376D01*
X-2030576Y-22858811D01*
X-2034611Y-22861951D01*
X-2034624Y-22861960D01*
X-2204199Y-22993948D01*
X-2204205Y-22993952D01*
X-2208240Y-22997094D01*
X-2211703Y-23000855D01*
X-2211712Y-23000864D01*
X-2357247Y-23158956D01*
X-2357253Y-23158963D01*
X-2360722Y-23162732D01*
X-2363519Y-23167012D01*
X-2363526Y-23167022D01*
X-2451191Y-23301205D01*
X-2495983Y-23342438D01*
X-2555000Y-23357383D01*
X-2614017Y-23342438D01*
X-2658809Y-23301205D01*
X-2746475Y-23167022D01*
X-2746477Y-23167020D01*
X-2749278Y-23162732D01*
X-2777645Y-23131917D01*
X-2898289Y-23000864D01*
X-2898292Y-23000861D01*
X-2901760Y-22997094D01*
X-2953226Y-22957036D01*
X-3075377Y-22861960D01*
X-3075385Y-22861955D01*
X-3079424Y-22858811D01*
X-3083929Y-22856373D01*
X-3083935Y-22856369D01*
X-3272920Y-22754096D01*
X-3272926Y-22754093D01*
X-3277426Y-22751658D01*
X-3282267Y-22749996D01*
X-3282274Y-22749993D01*
X-3485512Y-22680222D01*
X-3485513Y-22680221D01*
X-3490365Y-22678556D01*
X-3495415Y-22677713D01*
X-3495424Y-22677711D01*
X-3707369Y-22642344D01*
X-3707378Y-22642343D01*
X-3712431Y-22641500D01*
X-3937569Y-22641500D01*
X-3942622Y-22642343D01*
X-3942632Y-22642344D01*
X-4154577Y-22677711D01*
X-4154589Y-22677713D01*
X-4159635Y-22678556D01*
X-4164485Y-22680220D01*
X-4164489Y-22680222D01*
X-4367727Y-22749993D01*
X-4367738Y-22749997D01*
X-4372574Y-22751658D01*
X-4377071Y-22754091D01*
X-4377081Y-22754096D01*
X-4566066Y-22856369D01*
X-4566078Y-22856376D01*
X-4570576Y-22858811D01*
X-4574611Y-22861951D01*
X-4574624Y-22861960D01*
X-4744199Y-22993948D01*
X-4744205Y-22993952D01*
X-4748240Y-22997094D01*
X-4751703Y-23000855D01*
X-4751712Y-23000864D01*
X-4897247Y-23158956D01*
X-4897253Y-23158963D01*
X-4900722Y-23162732D01*
X-4903519Y-23167012D01*
X-4903526Y-23167022D01*
X-4991191Y-23301205D01*
X-5035983Y-23342438D01*
X-5095000Y-23357383D01*
X-5154017Y-23342438D01*
X-5198809Y-23301205D01*
X-5286475Y-23167022D01*
X-5286477Y-23167020D01*
X-5289278Y-23162732D01*
X-5317645Y-23131917D01*
X-5438289Y-23000864D01*
X-5438292Y-23000861D01*
X-5441760Y-22997094D01*
X-5493226Y-22957036D01*
X-5615377Y-22861960D01*
X-5615385Y-22861955D01*
X-5619424Y-22858811D01*
X-5623929Y-22856373D01*
X-5623935Y-22856369D01*
X-5812920Y-22754096D01*
X-5812926Y-22754093D01*
X-5817426Y-22751658D01*
X-5822267Y-22749996D01*
X-5822274Y-22749993D01*
X-6025512Y-22680222D01*
X-6025513Y-22680221D01*
X-6030365Y-22678556D01*
X-6035415Y-22677713D01*
X-6035424Y-22677711D01*
X-6247369Y-22642344D01*
X-6247378Y-22642343D01*
X-6252431Y-22641500D01*
X-6477569Y-22641500D01*
X-6482622Y-22642343D01*
X-6482632Y-22642344D01*
X-6694577Y-22677711D01*
X-6694589Y-22677713D01*
X-6699635Y-22678556D01*
X-6704485Y-22680220D01*
X-6704489Y-22680222D01*
X-6907727Y-22749993D01*
X-6907738Y-22749997D01*
X-6912574Y-22751658D01*
X-6917071Y-22754091D01*
X-6917081Y-22754096D01*
X-7106066Y-22856369D01*
X-7106078Y-22856376D01*
X-7110576Y-22858811D01*
X-7114611Y-22861951D01*
X-7114624Y-22861960D01*
X-7284199Y-22993948D01*
X-7284205Y-22993952D01*
X-7288240Y-22997094D01*
X-7291703Y-23000855D01*
X-7291712Y-23000864D01*
X-7437247Y-23158956D01*
X-7437253Y-23158963D01*
X-7440722Y-23162732D01*
X-7443519Y-23167012D01*
X-7443526Y-23167022D01*
X-7531191Y-23301205D01*
X-7575983Y-23342438D01*
X-7635000Y-23357383D01*
X-7694017Y-23342438D01*
X-7738809Y-23301205D01*
X-7826475Y-23167022D01*
X-7826477Y-23167020D01*
X-7829278Y-23162732D01*
X-7857645Y-23131917D01*
X-7978289Y-23000864D01*
X-7978292Y-23000861D01*
X-7981760Y-22997094D01*
X-8033226Y-22957036D01*
X-8155377Y-22861960D01*
X-8155385Y-22861955D01*
X-8159424Y-22858811D01*
X-8163929Y-22856373D01*
X-8163935Y-22856369D01*
X-8352920Y-22754096D01*
X-8352926Y-22754093D01*
X-8357426Y-22751658D01*
X-8362267Y-22749996D01*
X-8362274Y-22749993D01*
X-8565512Y-22680222D01*
X-8565513Y-22680221D01*
X-8570365Y-22678556D01*
X-8575415Y-22677713D01*
X-8575424Y-22677711D01*
X-8787369Y-22642344D01*
X-8787378Y-22642343D01*
X-8792431Y-22641500D01*
X-9017569Y-22641500D01*
X-9022622Y-22642343D01*
X-9022632Y-22642344D01*
X-9234577Y-22677711D01*
X-9234589Y-22677713D01*
X-9239635Y-22678556D01*
X-9244485Y-22680220D01*
X-9244489Y-22680222D01*
X-9447727Y-22749993D01*
X-9447738Y-22749997D01*
X-9452574Y-22751658D01*
X-9457071Y-22754091D01*
X-9457081Y-22754096D01*
X-9646066Y-22856369D01*
X-9646078Y-22856376D01*
X-9650576Y-22858811D01*
X-9654611Y-22861951D01*
X-9654624Y-22861960D01*
X-9824199Y-22993948D01*
X-9824205Y-22993952D01*
X-9828240Y-22997094D01*
X-9831703Y-23000855D01*
X-9831712Y-23000864D01*
X-9977247Y-23158956D01*
X-9977253Y-23158963D01*
X-9980722Y-23162732D01*
X-9983519Y-23167012D01*
X-9983526Y-23167022D01*
X-10088260Y-23327331D01*
X-10103860Y-23351209D01*
X-10105915Y-23355892D01*
X-10105920Y-23355903D01*
X-10184235Y-23534446D01*
X-10194296Y-23557384D01*
X-10195554Y-23562349D01*
X-10195555Y-23562354D01*
X-10248305Y-23770657D01*
X-10248307Y-23770666D01*
X-10249564Y-23775632D01*
X-10249988Y-23780741D01*
X-10249989Y-23780751D01*
X-10261880Y-23924262D01*
X-10268156Y-24000000D01*
X-10267732Y-24005117D01*
X-10249989Y-24219248D01*
X-10249988Y-24219256D01*
X-10249564Y-24224368D01*
X-10248307Y-24229335D01*
X-10248305Y-24229342D01*
X-10234187Y-24285092D01*
X-10194296Y-24442616D01*
X-10187150Y-24458907D01*
X-10105920Y-24644096D01*
X-10105917Y-24644101D01*
X-10103860Y-24648791D01*
X-10044495Y-24739656D01*
X-9983526Y-24832977D01*
X-9983523Y-24832981D01*
X-9980722Y-24837268D01*
X-9977248Y-24841041D01*
X-9977247Y-24841043D01*
X-9831712Y-24999135D01*
X-9831709Y-24999138D01*
X-9828240Y-25002906D01*
X-9813163Y-25014641D01*
X-9654624Y-25138039D01*
X-9654619Y-25138042D01*
X-9650576Y-25141189D01*
X-9646069Y-25143628D01*
X-9646066Y-25143630D01*
X-9457081Y-25245903D01*
X-9452574Y-25248342D01*
X-9239635Y-25321444D01*
X-9017569Y-25358500D01*
X-8797564Y-25358500D01*
X-8792431Y-25358500D01*
X-8570365Y-25321444D01*
X-8357426Y-25248342D01*
X-8159424Y-25141189D01*
X-7981760Y-25002906D01*
X-7829278Y-24837268D01*
X-7789453Y-24776312D01*
X-7738809Y-24698795D01*
X-7694018Y-24657561D01*
X-7635000Y-24642616D01*
X-7575982Y-24657561D01*
X-7531191Y-24698795D01*
X-7443530Y-24832972D01*
X-7443522Y-24832982D01*
X-7440722Y-24837268D01*
X-7437248Y-24841041D01*
X-7437247Y-24841043D01*
X-7291712Y-24999135D01*
X-7291709Y-24999138D01*
X-7288240Y-25002906D01*
X-7273163Y-25014641D01*
X-7114624Y-25138039D01*
X-7114619Y-25138042D01*
X-7110576Y-25141189D01*
X-7106069Y-25143628D01*
X-7106066Y-25143630D01*
X-6917081Y-25245903D01*
X-6912574Y-25248342D01*
X-6699635Y-25321444D01*
X-6477569Y-25358500D01*
X-6257564Y-25358500D01*
X-6252431Y-25358500D01*
X-6030365Y-25321444D01*
X-5817426Y-25248342D01*
X-5619424Y-25141189D01*
X-5441760Y-25002906D01*
X-5289278Y-24837268D01*
X-5249453Y-24776312D01*
X-5198809Y-24698795D01*
X-5154018Y-24657561D01*
X-5095000Y-24642616D01*
X-5035982Y-24657561D01*
X-4991191Y-24698795D01*
X-4903530Y-24832972D01*
X-4903522Y-24832982D01*
X-4900722Y-24837268D01*
X-4897248Y-24841041D01*
X-4897247Y-24841043D01*
X-4751712Y-24999135D01*
X-4751709Y-24999138D01*
X-4748240Y-25002906D01*
X-4733163Y-25014641D01*
X-4574624Y-25138039D01*
X-4574619Y-25138042D01*
X-4570576Y-25141189D01*
X-4566069Y-25143628D01*
X-4566066Y-25143630D01*
X-4377081Y-25245903D01*
X-4372574Y-25248342D01*
X-4159635Y-25321444D01*
X-3937569Y-25358500D01*
X-3717564Y-25358500D01*
X-3712431Y-25358500D01*
X-3490365Y-25321444D01*
X-3277426Y-25248342D01*
X-3079424Y-25141189D01*
X-2901760Y-25002906D01*
X-2749278Y-24837268D01*
X-2709453Y-24776312D01*
X-2658809Y-24698795D01*
X-2614018Y-24657561D01*
X-2555000Y-24642616D01*
X-2495982Y-24657561D01*
X-2451191Y-24698795D01*
X-2363530Y-24832972D01*
X-2363522Y-24832982D01*
X-2360722Y-24837268D01*
X-2357248Y-24841041D01*
X-2357247Y-24841043D01*
X-2211712Y-24999135D01*
X-2211709Y-24999138D01*
X-2208240Y-25002906D01*
X-2193163Y-25014641D01*
X-2034624Y-25138039D01*
X-2034619Y-25138042D01*
X-2030576Y-25141189D01*
X-2026069Y-25143628D01*
X-2026066Y-25143630D01*
X-1837081Y-25245903D01*
X-1832574Y-25248342D01*
X-1619635Y-25321444D01*
X-1397569Y-25358500D01*
X-1177564Y-25358500D01*
X-1172431Y-25358500D01*
X-950365Y-25321444D01*
X-737426Y-25248342D01*
X-539424Y-25141189D01*
X-361760Y-25002906D01*
X-209278Y-24837268D01*
X-169453Y-24776312D01*
X-118809Y-24698795D01*
X-74018Y-24657561D01*
X-15000Y-24642616D01*
X44018Y-24657561D01*
X88809Y-24698795D01*
X176470Y-24832972D01*
X176478Y-24832982D01*
X179278Y-24837268D01*
X182752Y-24841041D01*
X182753Y-24841043D01*
X328288Y-24999135D01*
X328291Y-24999138D01*
X331760Y-25002906D01*
X346837Y-25014641D01*
X505376Y-25138039D01*
X505381Y-25138042D01*
X509424Y-25141189D01*
X513931Y-25143628D01*
X513934Y-25143630D01*
X702919Y-25245903D01*
X707426Y-25248342D01*
X920365Y-25321444D01*
X1142431Y-25358500D01*
X1362436Y-25358500D01*
X1367569Y-25358500D01*
X1589635Y-25321444D01*
X1802574Y-25248342D01*
X2000576Y-25141189D01*
X2178240Y-25002906D01*
X2330722Y-24837268D01*
X2370547Y-24776312D01*
X2421191Y-24698795D01*
X2465982Y-24657561D01*
X2525000Y-24642616D01*
X2584018Y-24657561D01*
X2628809Y-24698795D01*
X2716470Y-24832972D01*
X2716478Y-24832982D01*
X2719278Y-24837268D01*
X2722752Y-24841041D01*
X2722753Y-24841043D01*
X2868288Y-24999135D01*
X2868291Y-24999138D01*
X2871760Y-25002906D01*
X2886837Y-25014641D01*
X3045376Y-25138039D01*
X3045381Y-25138042D01*
X3049424Y-25141189D01*
X3053931Y-25143628D01*
X3053934Y-25143630D01*
X3242919Y-25245903D01*
X3247426Y-25248342D01*
X3460365Y-25321444D01*
X3682431Y-25358500D01*
X3902436Y-25358500D01*
X3907569Y-25358500D01*
X4129635Y-25321444D01*
X4342574Y-25248342D01*
X4540576Y-25141189D01*
X4718240Y-25002906D01*
X4870722Y-24837268D01*
X4910547Y-24776312D01*
X4961191Y-24698795D01*
X5005982Y-24657561D01*
X5065000Y-24642616D01*
X5124018Y-24657561D01*
X5168809Y-24698795D01*
X5256470Y-24832972D01*
X5256478Y-24832982D01*
X5259278Y-24837268D01*
X5262752Y-24841041D01*
X5262753Y-24841043D01*
X5408288Y-24999135D01*
X5408291Y-24999138D01*
X5411760Y-25002906D01*
X5426837Y-25014641D01*
X5585376Y-25138039D01*
X5585381Y-25138042D01*
X5589424Y-25141189D01*
X5593931Y-25143628D01*
X5593934Y-25143630D01*
X5782919Y-25245903D01*
X5787426Y-25248342D01*
X6000365Y-25321444D01*
X6222431Y-25358500D01*
X6442436Y-25358500D01*
X6447569Y-25358500D01*
X6669635Y-25321444D01*
X6882574Y-25248342D01*
X7080576Y-25141189D01*
X7258240Y-25002906D01*
X7327911Y-24927223D01*
X7380530Y-24893373D01*
X7442984Y-24889525D01*
X7499366Y-24916663D01*
X7535318Y-24967876D01*
X7578548Y-25083779D01*
X7586962Y-25099189D01*
X7662498Y-25200092D01*
X7674907Y-25212501D01*
X7775810Y-25288037D01*
X7791222Y-25296452D01*
X7910358Y-25340888D01*
X7925332Y-25344426D01*
X7973885Y-25349646D01*
X7980482Y-25350000D01*
X8608674Y-25350000D01*
X8621549Y-25346549D01*
X8625000Y-25333674D01*
X9125000Y-25333674D01*
X9128450Y-25346549D01*
X9141326Y-25350000D01*
X9769518Y-25350000D01*
X9776114Y-25349646D01*
X9824667Y-25344426D01*
X9839641Y-25340888D01*
X9958777Y-25296452D01*
X9974189Y-25288037D01*
X10075092Y-25212501D01*
X10087501Y-25200092D01*
X10163037Y-25099189D01*
X10171452Y-25083777D01*
X10215888Y-24964641D01*
X10219426Y-24949667D01*
X10219980Y-24944518D01*
X21060000Y-24944518D01*
X21060353Y-24951114D01*
X21065573Y-24999667D01*
X21069111Y-25014641D01*
X21113547Y-25133777D01*
X21121962Y-25149189D01*
X21197498Y-25250092D01*
X21209907Y-25262501D01*
X21310810Y-25338037D01*
X21326222Y-25346452D01*
X21445358Y-25390888D01*
X21460332Y-25394426D01*
X21508885Y-25399646D01*
X21515482Y-25400000D01*
X22193674Y-25400000D01*
X22206549Y-25396549D01*
X22210000Y-25383674D01*
X22710000Y-25383674D01*
X22713450Y-25396549D01*
X22726326Y-25400000D01*
X23404518Y-25400000D01*
X23411114Y-25399646D01*
X23459667Y-25394426D01*
X23474641Y-25390888D01*
X23593777Y-25346452D01*
X23609189Y-25338037D01*
X23710092Y-25262501D01*
X23722501Y-25250092D01*
X23798037Y-25149189D01*
X23806453Y-25133776D01*
X23828940Y-25073486D01*
X23864892Y-25022271D01*
X23921274Y-24995133D01*
X23983730Y-24998982D01*
X24036352Y-25032836D01*
X24042780Y-25039818D01*
X24226983Y-25183190D01*
X24231490Y-25185629D01*
X24231493Y-25185631D01*
X24413828Y-25284305D01*
X24432273Y-25294287D01*
X24653049Y-25370080D01*
X24883288Y-25408500D01*
X25111579Y-25408500D01*
X25116712Y-25408500D01*
X25346951Y-25370080D01*
X25567727Y-25294287D01*
X25773017Y-25183190D01*
X25957220Y-25039818D01*
X26115314Y-24868083D01*
X26242984Y-24672669D01*
X26336749Y-24458907D01*
X26394051Y-24232626D01*
X26413327Y-24000000D01*
X26396547Y-23797500D01*
X26951681Y-23797500D01*
X26952063Y-23802354D01*
X26969958Y-24029740D01*
X26970928Y-24042057D01*
X26972063Y-24046786D01*
X26972064Y-24046790D01*
X27027057Y-24275855D01*
X27027059Y-24275863D01*
X27028195Y-24280592D01*
X27030059Y-24285092D01*
X27078033Y-24400912D01*
X27122073Y-24507232D01*
X27124609Y-24511371D01*
X27124613Y-24511378D01*
X27239462Y-24698795D01*
X27250248Y-24716396D01*
X27253413Y-24720102D01*
X27253414Y-24720103D01*
X27315338Y-24792606D01*
X27409567Y-24902933D01*
X27596104Y-25062252D01*
X27600256Y-25064796D01*
X27600257Y-25064797D01*
X27797441Y-25185631D01*
X27805268Y-25190427D01*
X28031908Y-25284305D01*
X28270443Y-25341572D01*
X28508989Y-25360345D01*
X28568893Y-25381361D01*
X28610546Y-25429272D01*
X28623029Y-25491518D01*
X28603068Y-25551784D01*
X28556883Y-25622476D01*
X28554078Y-25626770D01*
X28552023Y-25631454D01*
X28552017Y-25631466D01*
X28468051Y-25822891D01*
X28461977Y-25836739D01*
X28460719Y-25841704D01*
X28460718Y-25841709D01*
X28406951Y-26054028D01*
X28406949Y-26054037D01*
X28405692Y-26059003D01*
X28405268Y-26064112D01*
X28405267Y-26064122D01*
X28389833Y-26250386D01*
X28386758Y-26287500D01*
X28387182Y-26292617D01*
X28405267Y-26510877D01*
X28405268Y-26510885D01*
X28405692Y-26515997D01*
X28406949Y-26520964D01*
X28406951Y-26520971D01*
X28459311Y-26727735D01*
X28461977Y-26738261D01*
X28464037Y-26742957D01*
X28552017Y-26943533D01*
X28552020Y-26943539D01*
X28554078Y-26948230D01*
X28556878Y-26952516D01*
X28556882Y-26952523D01*
X28629200Y-27063213D01*
X28679482Y-27140176D01*
X28834769Y-27308863D01*
X28838815Y-27312012D01*
X28838816Y-27312013D01*
X29011655Y-27446539D01*
X29011658Y-27446541D01*
X29015704Y-27449690D01*
X29217350Y-27558815D01*
X29434207Y-27633262D01*
X29660360Y-27671000D01*
X29884507Y-27671000D01*
X29889640Y-27671000D01*
X30115793Y-27633262D01*
X30332650Y-27558815D01*
X30534296Y-27449690D01*
X30570287Y-27421677D01*
X33499822Y-27421677D01*
X33507927Y-27432865D01*
X33516317Y-27439395D01*
X33524883Y-27444991D01*
X33716269Y-27548564D01*
X33725623Y-27552667D01*
X33931447Y-27623326D01*
X33941359Y-27625837D01*
X34156002Y-27661655D01*
X34166197Y-27662500D01*
X34383803Y-27662500D01*
X34393997Y-27661655D01*
X34608640Y-27625837D01*
X34618552Y-27623326D01*
X34824376Y-27552667D01*
X34833730Y-27548564D01*
X35025114Y-27444993D01*
X35033682Y-27439395D01*
X35042072Y-27432865D01*
X35050176Y-27421676D01*
X35043516Y-27409570D01*
X34286542Y-26652595D01*
X34275000Y-26645931D01*
X34263457Y-26652595D01*
X33506483Y-27409569D01*
X33499822Y-27421677D01*
X30570287Y-27421677D01*
X30715231Y-27308863D01*
X30870518Y-27140176D01*
X30995922Y-26948230D01*
X31088023Y-26738261D01*
X31144308Y-26515997D01*
X31162818Y-26292617D01*
X32895712Y-26292617D01*
X32913681Y-26509476D01*
X32915363Y-26519564D01*
X32968787Y-26730527D01*
X32972103Y-26740184D01*
X33059519Y-26939473D01*
X33064385Y-26948463D01*
X33134307Y-27055489D01*
X33142274Y-27063213D01*
X33151654Y-27057290D01*
X33909903Y-26299042D01*
X33916567Y-26287500D01*
X33909903Y-26275957D01*
X33151654Y-25517708D01*
X33142274Y-25511785D01*
X33134306Y-25519510D01*
X33064391Y-25626526D01*
X33059516Y-25635534D01*
X32972103Y-25834815D01*
X32968787Y-25844472D01*
X32915363Y-26055435D01*
X32913681Y-26065523D01*
X32895712Y-26282383D01*
X32895712Y-26292617D01*
X31162818Y-26292617D01*
X31163242Y-26287500D01*
X31144308Y-26059003D01*
X31088023Y-25836739D01*
X31012769Y-25665179D01*
X30997982Y-25631466D01*
X30997981Y-25631464D01*
X30995922Y-25626770D01*
X30991407Y-25619860D01*
X30873325Y-25439121D01*
X30870518Y-25434824D01*
X30850846Y-25413455D01*
X30776328Y-25332506D01*
X30715231Y-25266137D01*
X30711183Y-25262986D01*
X30570285Y-25153321D01*
X33499822Y-25153321D01*
X33506482Y-25165428D01*
X34275000Y-25933947D01*
X35398344Y-27057290D01*
X35407724Y-27063213D01*
X35415691Y-27055488D01*
X35485615Y-26948463D01*
X35490480Y-26939473D01*
X35577896Y-26740184D01*
X35581212Y-26730527D01*
X35634636Y-26519564D01*
X35636318Y-26509476D01*
X35654288Y-26292617D01*
X35654288Y-26282383D01*
X35636318Y-26065523D01*
X35634636Y-26055435D01*
X35581212Y-25844472D01*
X35577896Y-25834815D01*
X35490480Y-25635526D01*
X35485614Y-25626536D01*
X35436785Y-25551796D01*
X35416824Y-25491530D01*
X35429306Y-25429284D01*
X35470960Y-25381374D01*
X35530863Y-25360357D01*
X35769557Y-25341572D01*
X36008092Y-25284305D01*
X36234732Y-25190427D01*
X36434900Y-25067765D01*
X40645788Y-25067765D01*
X40646282Y-25072262D01*
X40646283Y-25072267D01*
X40674917Y-25332506D01*
X40674918Y-25332513D01*
X40675414Y-25337018D01*
X40676559Y-25341398D01*
X40676561Y-25341408D01*
X40726965Y-25534204D01*
X40743928Y-25599088D01*
X40745693Y-25603242D01*
X40745696Y-25603250D01*
X40844919Y-25836739D01*
X40849870Y-25848390D01*
X40852226Y-25852251D01*
X40852229Y-25852256D01*
X40983757Y-26067772D01*
X40990982Y-26079610D01*
X40993885Y-26083098D01*
X41154382Y-26275957D01*
X41164255Y-26287820D01*
X41167630Y-26290844D01*
X41167631Y-26290845D01*
X41362495Y-26465444D01*
X41365998Y-26468582D01*
X41591910Y-26618044D01*
X41837176Y-26733020D01*
X42096569Y-26811060D01*
X42364561Y-26850500D01*
X42565369Y-26850500D01*
X42567631Y-26850500D01*
X42770156Y-26835677D01*
X43034553Y-26776780D01*
X43287558Y-26680014D01*
X43523777Y-26547441D01*
X43738177Y-26381888D01*
X43926186Y-26186881D01*
X44083799Y-25966579D01*
X44207656Y-25725675D01*
X44295118Y-25469305D01*
X44344319Y-25202933D01*
X44354212Y-24932235D01*
X44324586Y-24662982D01*
X44256072Y-24400912D01*
X44150130Y-24151610D01*
X44009018Y-23920390D01*
X43835745Y-23712180D01*
X43819328Y-23697470D01*
X43637382Y-23534446D01*
X43637378Y-23534442D01*
X43634002Y-23531418D01*
X43408090Y-23381956D01*
X43403996Y-23380036D01*
X43403991Y-23380034D01*
X43166929Y-23268904D01*
X43166925Y-23268902D01*
X43162824Y-23266980D01*
X43158477Y-23265672D01*
X43158474Y-23265671D01*
X42907772Y-23190246D01*
X42907771Y-23190245D01*
X42903431Y-23188940D01*
X42898957Y-23188281D01*
X42898950Y-23188280D01*
X42639913Y-23150158D01*
X42639907Y-23150157D01*
X42635439Y-23149500D01*
X42432369Y-23149500D01*
X42430120Y-23149664D01*
X42430109Y-23149665D01*
X42234363Y-23163992D01*
X42234359Y-23163992D01*
X42229844Y-23164323D01*
X42225426Y-23165307D01*
X42225420Y-23165308D01*
X41969877Y-23222232D01*
X41969861Y-23222236D01*
X41965447Y-23223220D01*
X41961216Y-23224838D01*
X41961210Y-23224840D01*
X41716673Y-23318367D01*
X41716663Y-23318371D01*
X41712442Y-23319986D01*
X41708494Y-23322201D01*
X41708489Y-23322204D01*
X41480176Y-23450340D01*
X41480171Y-23450343D01*
X41476223Y-23452559D01*
X41472639Y-23455325D01*
X41472635Y-23455329D01*
X41265407Y-23615343D01*
X41265394Y-23615354D01*
X41261823Y-23618112D01*
X41258685Y-23621366D01*
X41258678Y-23621373D01*
X41076958Y-23809857D01*
X41076952Y-23809864D01*
X41073814Y-23813119D01*
X41071189Y-23816787D01*
X41071179Y-23816800D01*
X40918834Y-24029740D01*
X40918830Y-24029745D01*
X40916201Y-24033421D01*
X40914132Y-24037444D01*
X40914129Y-24037450D01*
X40794416Y-24270293D01*
X40794411Y-24270304D01*
X40792344Y-24274325D01*
X40790884Y-24278602D01*
X40790879Y-24278616D01*
X40706348Y-24526395D01*
X40706344Y-24526407D01*
X40704882Y-24530695D01*
X40704057Y-24535159D01*
X40704057Y-24535161D01*
X40656504Y-24792606D01*
X40656502Y-24792619D01*
X40655681Y-24797067D01*
X40655515Y-24801593D01*
X40655515Y-24801599D01*
X40647451Y-25022271D01*
X40645788Y-25067765D01*
X36434900Y-25067765D01*
X36443896Y-25062252D01*
X36630433Y-24902933D01*
X36789752Y-24716396D01*
X36917927Y-24507232D01*
X37011805Y-24280592D01*
X37069072Y-24042057D01*
X37088319Y-23797500D01*
X37069072Y-23552943D01*
X37011805Y-23314408D01*
X36917927Y-23087768D01*
X36894986Y-23050332D01*
X36792295Y-22882754D01*
X36789752Y-22878604D01*
X36630433Y-22692067D01*
X36571227Y-22641500D01*
X36447603Y-22535914D01*
X36447602Y-22535913D01*
X36443896Y-22532748D01*
X36439745Y-22530204D01*
X36439742Y-22530202D01*
X36238878Y-22407113D01*
X36238871Y-22407109D01*
X36234732Y-22404573D01*
X36230237Y-22402711D01*
X36230235Y-22402710D01*
X36012592Y-22312559D01*
X36008092Y-22310695D01*
X36003363Y-22309559D01*
X36003355Y-22309557D01*
X35774290Y-22254564D01*
X35774286Y-22254563D01*
X35769557Y-22253428D01*
X35764706Y-22253046D01*
X35764705Y-22253046D01*
X35529854Y-22234563D01*
X35525000Y-22234181D01*
X35520146Y-22234563D01*
X35285294Y-22253046D01*
X35285291Y-22253046D01*
X35280443Y-22253428D01*
X35275715Y-22254562D01*
X35275709Y-22254564D01*
X35046644Y-22309557D01*
X35046632Y-22309560D01*
X35041908Y-22310695D01*
X35037411Y-22312557D01*
X35037407Y-22312559D01*
X34819764Y-22402710D01*
X34819756Y-22402713D01*
X34815268Y-22404573D01*
X34811133Y-22407106D01*
X34811121Y-22407113D01*
X34610257Y-22530202D01*
X34610247Y-22530208D01*
X34606104Y-22532748D01*
X34602403Y-22535908D01*
X34602396Y-22535914D01*
X34423267Y-22688906D01*
X34423261Y-22688911D01*
X34419567Y-22692067D01*
X34416411Y-22695761D01*
X34416406Y-22695767D01*
X34263414Y-22874896D01*
X34263408Y-22874903D01*
X34260248Y-22878604D01*
X34257704Y-22882754D01*
X34257705Y-22882754D01*
X34134613Y-23083621D01*
X34134606Y-23083633D01*
X34132073Y-23087768D01*
X34130213Y-23092256D01*
X34130210Y-23092264D01*
X34041696Y-23305955D01*
X34038195Y-23314408D01*
X34037060Y-23319132D01*
X34037057Y-23319144D01*
X33982064Y-23548209D01*
X33982062Y-23548215D01*
X33980928Y-23552943D01*
X33980546Y-23557791D01*
X33980546Y-23557794D01*
X33962678Y-23784834D01*
X33961681Y-23797500D01*
X33962063Y-23802354D01*
X33979958Y-24029740D01*
X33980928Y-24042057D01*
X33982063Y-24046786D01*
X33982064Y-24046790D01*
X34037057Y-24275855D01*
X34037059Y-24275863D01*
X34038195Y-24280592D01*
X34040059Y-24285092D01*
X34088033Y-24400912D01*
X34132073Y-24507232D01*
X34134609Y-24511371D01*
X34134613Y-24511378D01*
X34224194Y-24657561D01*
X34260248Y-24716396D01*
X34260670Y-24716890D01*
X34283294Y-24776312D01*
X34272621Y-24840276D01*
X34231121Y-24890105D01*
X34170143Y-24912173D01*
X34156002Y-24913344D01*
X33941359Y-24949162D01*
X33931447Y-24951673D01*
X33725623Y-25022332D01*
X33716269Y-25026435D01*
X33524881Y-25130008D01*
X33516320Y-25135601D01*
X33507927Y-25142134D01*
X33499822Y-25153321D01*
X30570285Y-25153321D01*
X30538344Y-25128460D01*
X30538338Y-25128456D01*
X30534296Y-25125310D01*
X30521040Y-25118136D01*
X30337156Y-25018623D01*
X30337150Y-25018620D01*
X30332650Y-25016185D01*
X30327809Y-25014523D01*
X30327802Y-25014520D01*
X30120646Y-24943404D01*
X30120645Y-24943403D01*
X30115793Y-24941738D01*
X30110743Y-24940895D01*
X30110734Y-24940893D01*
X29894702Y-24904844D01*
X29894693Y-24904843D01*
X29889640Y-24904000D01*
X29884509Y-24904000D01*
X29879401Y-24903577D01*
X29879516Y-24902183D01*
X29823506Y-24886979D01*
X29778018Y-24840589D01*
X29762231Y-24777566D01*
X29780479Y-24715211D01*
X29875846Y-24559583D01*
X29907927Y-24507232D01*
X30001805Y-24280592D01*
X30059072Y-24042057D01*
X30078319Y-23797500D01*
X30059072Y-23552943D01*
X30001805Y-23314408D01*
X29907927Y-23087768D01*
X29884986Y-23050332D01*
X29782295Y-22882754D01*
X29779752Y-22878604D01*
X29620433Y-22692067D01*
X29561227Y-22641500D01*
X29437603Y-22535914D01*
X29437602Y-22535913D01*
X29433896Y-22532748D01*
X29429745Y-22530204D01*
X29429742Y-22530202D01*
X29228878Y-22407113D01*
X29228871Y-22407109D01*
X29224732Y-22404573D01*
X29220237Y-22402711D01*
X29220235Y-22402710D01*
X29002592Y-22312559D01*
X28998092Y-22310695D01*
X28993363Y-22309559D01*
X28993355Y-22309557D01*
X28764290Y-22254564D01*
X28764286Y-22254563D01*
X28759557Y-22253428D01*
X28754706Y-22253046D01*
X28754705Y-22253046D01*
X28519854Y-22234563D01*
X28515000Y-22234181D01*
X28510146Y-22234563D01*
X28275294Y-22253046D01*
X28275291Y-22253046D01*
X28270443Y-22253428D01*
X28265715Y-22254562D01*
X28265709Y-22254564D01*
X28036644Y-22309557D01*
X28036632Y-22309560D01*
X28031908Y-22310695D01*
X28027411Y-22312557D01*
X28027407Y-22312559D01*
X27809764Y-22402710D01*
X27809756Y-22402713D01*
X27805268Y-22404573D01*
X27801133Y-22407106D01*
X27801121Y-22407113D01*
X27600257Y-22530202D01*
X27600247Y-22530208D01*
X27596104Y-22532748D01*
X27592403Y-22535908D01*
X27592396Y-22535914D01*
X27413267Y-22688906D01*
X27413261Y-22688911D01*
X27409567Y-22692067D01*
X27406411Y-22695761D01*
X27406406Y-22695767D01*
X27253414Y-22874896D01*
X27253408Y-22874903D01*
X27250248Y-22878604D01*
X27247704Y-22882754D01*
X27247705Y-22882754D01*
X27124613Y-23083621D01*
X27124606Y-23083633D01*
X27122073Y-23087768D01*
X27120213Y-23092256D01*
X27120210Y-23092264D01*
X27031696Y-23305955D01*
X27028195Y-23314408D01*
X27027060Y-23319132D01*
X27027057Y-23319144D01*
X26972064Y-23548209D01*
X26972062Y-23548215D01*
X26970928Y-23552943D01*
X26970546Y-23557791D01*
X26970546Y-23557794D01*
X26952678Y-23784834D01*
X26951681Y-23797500D01*
X26396547Y-23797500D01*
X26394051Y-23767374D01*
X26336749Y-23541093D01*
X26242984Y-23327331D01*
X26239634Y-23322204D01*
X26136486Y-23164323D01*
X26115314Y-23131917D01*
X25980396Y-22985358D01*
X25960688Y-22963949D01*
X25960686Y-22963947D01*
X25957220Y-22960182D01*
X25773017Y-22816810D01*
X25768512Y-22814372D01*
X25768506Y-22814368D01*
X25572233Y-22708151D01*
X25572227Y-22708148D01*
X25567727Y-22705713D01*
X25562886Y-22704051D01*
X25562879Y-22704048D01*
X25351804Y-22631586D01*
X25351803Y-22631585D01*
X25346951Y-22629920D01*
X25341901Y-22629077D01*
X25341892Y-22629075D01*
X25121774Y-22592344D01*
X25121765Y-22592343D01*
X25116712Y-22591500D01*
X24883288Y-22591500D01*
X24878235Y-22592343D01*
X24878225Y-22592344D01*
X24658107Y-22629075D01*
X24658095Y-22629077D01*
X24653049Y-22629920D01*
X24648199Y-22631584D01*
X24648195Y-22631586D01*
X24437120Y-22704048D01*
X24437109Y-22704052D01*
X24432273Y-22705713D01*
X24427776Y-22708146D01*
X24427766Y-22708151D01*
X24231493Y-22814368D01*
X24231481Y-22814375D01*
X24226983Y-22816810D01*
X24222940Y-22819956D01*
X24222935Y-22819960D01*
X24046821Y-22957036D01*
X24046815Y-22957040D01*
X24042780Y-22960182D01*
X24039317Y-22963943D01*
X24039307Y-22963953D01*
X24036348Y-22967168D01*
X23983724Y-23001020D01*
X23921270Y-23004865D01*
X23864890Y-22977727D01*
X23828940Y-22926514D01*
X23806452Y-22866221D01*
X23798037Y-22850810D01*
X23722501Y-22749907D01*
X23710092Y-22737498D01*
X23609189Y-22661962D01*
X23593777Y-22653547D01*
X23474641Y-22609111D01*
X23459667Y-22605573D01*
X23411114Y-22600353D01*
X23404518Y-22600000D01*
X22726326Y-22600000D01*
X22713450Y-22603450D01*
X22710000Y-22616326D01*
X22710000Y-25383674D01*
X22210000Y-25383674D01*
X22210000Y-24266326D01*
X22206549Y-24253450D01*
X22193674Y-24250000D01*
X21076326Y-24250000D01*
X21063450Y-24253450D01*
X21060000Y-24266326D01*
X21060000Y-24944518D01*
X10219980Y-24944518D01*
X10224646Y-24901114D01*
X10225000Y-24894518D01*
X10225000Y-24266326D01*
X10221549Y-24253450D01*
X10208674Y-24250000D01*
X9141326Y-24250000D01*
X9128450Y-24253450D01*
X9125000Y-24266326D01*
X9125000Y-25333674D01*
X8625000Y-25333674D01*
X8625000Y-23733674D01*
X9125000Y-23733674D01*
X9128450Y-23746549D01*
X9141326Y-23750000D01*
X10208674Y-23750000D01*
X10221549Y-23746549D01*
X10225000Y-23733674D01*
X21060000Y-23733674D01*
X21063450Y-23746549D01*
X21076326Y-23750000D01*
X22193674Y-23750000D01*
X22206549Y-23746549D01*
X22210000Y-23733674D01*
X22210000Y-22616326D01*
X22206549Y-22603450D01*
X22193674Y-22600000D01*
X21515482Y-22600000D01*
X21508885Y-22600353D01*
X21460332Y-22605573D01*
X21445358Y-22609111D01*
X21326222Y-22653547D01*
X21310810Y-22661962D01*
X21209907Y-22737498D01*
X21197498Y-22749907D01*
X21121962Y-22850810D01*
X21113547Y-22866222D01*
X21069111Y-22985358D01*
X21065573Y-23000332D01*
X21060353Y-23048885D01*
X21060000Y-23055482D01*
X21060000Y-23733674D01*
X10225000Y-23733674D01*
X10225000Y-23105482D01*
X10224646Y-23098885D01*
X10219426Y-23050332D01*
X10215888Y-23035358D01*
X10171452Y-22916222D01*
X10163037Y-22900810D01*
X10087501Y-22799907D01*
X10075092Y-22787498D01*
X9974189Y-22711962D01*
X9958777Y-22703547D01*
X9839641Y-22659111D01*
X9824667Y-22655573D01*
X9776114Y-22650353D01*
X9769518Y-22650000D01*
X9141326Y-22650000D01*
X9128450Y-22653450D01*
X9125000Y-22666326D01*
X9125000Y-23733674D01*
X8625000Y-23733674D01*
X8625000Y-22666326D01*
X8621549Y-22653450D01*
X8608674Y-22650000D01*
X7980482Y-22650000D01*
X7973885Y-22650353D01*
X7925332Y-22655573D01*
X7910358Y-22659111D01*
X7791222Y-22703547D01*
X7775810Y-22711962D01*
X7674907Y-22787498D01*
X7662498Y-22799907D01*
X7586962Y-22900810D01*
X7578548Y-22916220D01*
X7535318Y-23032123D01*
X7499366Y-23083336D01*
X7442984Y-23110474D01*
X7380530Y-23106626D01*
X7327907Y-23072772D01*
X7261711Y-23000864D01*
X7261708Y-23000861D01*
X7258240Y-22997094D01*
X7206336Y-22956694D01*
X7171099Y-22913303D01*
X7158500Y-22858843D01*
X7158500Y-9167013D01*
X7175113Y-9105013D01*
X7222650Y-9022676D01*
X7234527Y-9002105D01*
X7293542Y-8820477D01*
X7313504Y-8630549D01*
X7293542Y-8440621D01*
X7234527Y-8258993D01*
X7211093Y-8218405D01*
X7196670Y-8179602D01*
X7195823Y-8138212D01*
X7201870Y-8097448D01*
X7228158Y-7920216D01*
X7230531Y-7908288D01*
X7234677Y-7891736D01*
X7315134Y-7570525D01*
X7318655Y-7558916D01*
X7435964Y-7231052D01*
X7440603Y-7219853D01*
X7589486Y-6905063D01*
X7595209Y-6894355D01*
X7774222Y-6595688D01*
X7780962Y-6585600D01*
X7988396Y-6305907D01*
X7996099Y-6296522D01*
X8229944Y-6038514D01*
X8238514Y-6029944D01*
X8496522Y-5796099D01*
X8505907Y-5788396D01*
X8785600Y-5580962D01*
X8795688Y-5574222D01*
X9094355Y-5395209D01*
X9105063Y-5389486D01*
X9419853Y-5240603D01*
X9431052Y-5235964D01*
X9758916Y-5118655D01*
X9770525Y-5115134D01*
X10108310Y-5030525D01*
X10120204Y-5028160D01*
X10464640Y-4977071D01*
X10476734Y-4975879D01*
X10827557Y-4958648D01*
X10833638Y-4958500D01*
X10910262Y-4958501D01*
X10910267Y-4958500D01*
X25020278Y-4958500D01*
X25144180Y-4958500D01*
X25236614Y-4958500D01*
X25507850Y-4925566D01*
X25773139Y-4860178D01*
X26028612Y-4763290D01*
X26270543Y-4636315D01*
X26495405Y-4481103D01*
X26617324Y-4373092D01*
X26666551Y-4346381D01*
X26722513Y-4344055D01*
X26773787Y-4366590D01*
X26860317Y-4431273D01*
X26982172Y-4480672D01*
X27043088Y-4496666D01*
X27173492Y-4513500D01*
X27177473Y-4513500D01*
X47375500Y-4513500D01*
X47437500Y-4530113D01*
X47482887Y-4575500D01*
X47499500Y-4637500D01*
X47499500Y-24997438D01*
X47499394Y-25002563D01*
X47490525Y-25216987D01*
X47490513Y-25217271D01*
X47481948Y-25413428D01*
X47481114Y-25423357D01*
X47454568Y-25636321D01*
X47454459Y-25637169D01*
X47428422Y-25834936D01*
X47426844Y-25844196D01*
X47382971Y-26053439D01*
X47382671Y-26054832D01*
X47339321Y-26250371D01*
X47337105Y-26258914D01*
X47276186Y-26463538D01*
X47275602Y-26465444D01*
X47215302Y-26656689D01*
X47212559Y-26664475D01*
X47135008Y-26863224D01*
X47134051Y-26865603D01*
X47057260Y-27050993D01*
X47054099Y-27058001D01*
X46960437Y-27249587D01*
X46959026Y-27252383D01*
X46866346Y-27430420D01*
X46862880Y-27436636D01*
X46753743Y-27619793D01*
X46751800Y-27622946D01*
X46643920Y-27792282D01*
X46640257Y-27797710D01*
X46516399Y-27971184D01*
X46513858Y-27974616D01*
X46391626Y-28133912D01*
X46387872Y-28138567D01*
X46250107Y-28301226D01*
X46246908Y-28304858D01*
X46111254Y-28452899D01*
X46107512Y-28456807D01*
X45956807Y-28607512D01*
X45952899Y-28611254D01*
X45804858Y-28746908D01*
X45801226Y-28750107D01*
X45638567Y-28887872D01*
X45633912Y-28891626D01*
X45474616Y-29013858D01*
X45471184Y-29016399D01*
X45297710Y-29140257D01*
X45292282Y-29143920D01*
X45122946Y-29251800D01*
X45119793Y-29253743D01*
X44936636Y-29362880D01*
X44930420Y-29366346D01*
X44752383Y-29459026D01*
X44749587Y-29460437D01*
X44558001Y-29554099D01*
X44550993Y-29557260D01*
X44365603Y-29634051D01*
X44363224Y-29635008D01*
X44164475Y-29712559D01*
X44156689Y-29715302D01*
X43965444Y-29775602D01*
X43963538Y-29776186D01*
X43758914Y-29837105D01*
X43750371Y-29839321D01*
X43554832Y-29882671D01*
X43553439Y-29882971D01*
X43344196Y-29926844D01*
X43334936Y-29928422D01*
X43137169Y-29954459D01*
X43136321Y-29954568D01*
X42923357Y-29981114D01*
X42913428Y-29981948D01*
X42717381Y-29990508D01*
X42717097Y-29990520D01*
X42502563Y-29999394D01*
X42497438Y-29999500D01*
X-42497438Y-29999500D01*
X-42502563Y-29999394D01*
X-42717099Y-29990520D01*
X-42717383Y-29990508D01*
X-42913430Y-29981948D01*
X-42923359Y-29981114D01*
X-43136323Y-29954568D01*
X-43137171Y-29954459D01*
X-43334938Y-29928422D01*
X-43344198Y-29926844D01*
X-43553441Y-29882971D01*
X-43554834Y-29882671D01*
X-43750373Y-29839321D01*
X-43758916Y-29837105D01*
X-43963540Y-29776186D01*
X-43965446Y-29775602D01*
X-44156691Y-29715302D01*
X-44164477Y-29712559D01*
X-44293015Y-29662404D01*
X-44363266Y-29634991D01*
X-44365605Y-29634051D01*
X-44550995Y-29557260D01*
X-44558003Y-29554099D01*
X-44749589Y-29460437D01*
X-44752385Y-29459026D01*
X-44930422Y-29366346D01*
X-44936638Y-29362880D01*
X-45119795Y-29253743D01*
X-45122948Y-29251800D01*
X-45292284Y-29143920D01*
X-45297712Y-29140257D01*
X-45471186Y-29016399D01*
X-45474618Y-29013858D01*
X-45633914Y-28891626D01*
X-45638569Y-28887872D01*
X-45801228Y-28750107D01*
X-45804845Y-28746921D01*
X-45952924Y-28611232D01*
X-45956809Y-28607512D01*
X-46107514Y-28456807D01*
X-46111231Y-28452925D01*
X-46246928Y-28304838D01*
X-46250109Y-28301226D01*
X-46387874Y-28138567D01*
X-46391628Y-28133912D01*
X-46513860Y-27974616D01*
X-46516401Y-27971184D01*
X-46640259Y-27797710D01*
X-46643922Y-27792282D01*
X-46751802Y-27622946D01*
X-46753745Y-27619793D01*
X-46862882Y-27436636D01*
X-46866348Y-27430420D01*
X-46959028Y-27252383D01*
X-46960439Y-27249587D01*
X-46972018Y-27225903D01*
X-47054114Y-27057972D01*
X-47057248Y-27051024D01*
X-47134089Y-26865513D01*
X-47134954Y-26863363D01*
X-47212569Y-26664453D01*
X-47215304Y-26656689D01*
X-47228277Y-26615544D01*
X-47275641Y-26465325D01*
X-47276150Y-26463665D01*
X-47337111Y-26258901D01*
X-47339320Y-26250386D01*
X-47382688Y-26054765D01*
X-47382973Y-26053439D01*
X-47388505Y-26027057D01*
X-47426847Y-25844192D01*
X-47428424Y-25834936D01*
X-47428805Y-25832042D01*
X-47454510Y-25636793D01*
X-47454517Y-25636743D01*
X-47481119Y-25423330D01*
X-47481948Y-25413455D01*
X-47490514Y-25217271D01*
X-47496698Y-25067765D01*
X-44354212Y-25067765D01*
X-44353718Y-25072262D01*
X-44353717Y-25072267D01*
X-44325083Y-25332506D01*
X-44325082Y-25332513D01*
X-44324586Y-25337018D01*
X-44323441Y-25341398D01*
X-44323439Y-25341408D01*
X-44273035Y-25534204D01*
X-44256072Y-25599088D01*
X-44254307Y-25603242D01*
X-44254304Y-25603250D01*
X-44155081Y-25836739D01*
X-44150130Y-25848390D01*
X-44147774Y-25852251D01*
X-44147771Y-25852256D01*
X-44016243Y-26067772D01*
X-44009018Y-26079610D01*
X-44006115Y-26083098D01*
X-43845618Y-26275957D01*
X-43835745Y-26287820D01*
X-43832370Y-26290844D01*
X-43832369Y-26290845D01*
X-43637505Y-26465444D01*
X-43634002Y-26468582D01*
X-43408090Y-26618044D01*
X-43162824Y-26733020D01*
X-42903431Y-26811060D01*
X-42635439Y-26850500D01*
X-42434631Y-26850500D01*
X-42432369Y-26850500D01*
X-42229844Y-26835677D01*
X-41965447Y-26776780D01*
X-41712442Y-26680014D01*
X-41476223Y-26547441D01*
X-41261823Y-26381888D01*
X-41073814Y-26186881D01*
X-40916201Y-25966579D01*
X-40792344Y-25725675D01*
X-40704882Y-25469305D01*
X-40655681Y-25202933D01*
X-40645788Y-24932235D01*
X-40675414Y-24662982D01*
X-40743928Y-24400912D01*
X-40849870Y-24151610D01*
X-40990982Y-23920390D01*
X-41093251Y-23797500D01*
X-37048319Y-23797500D01*
X-37047937Y-23802354D01*
X-37030042Y-24029740D01*
X-37029072Y-24042057D01*
X-37027937Y-24046786D01*
X-37027936Y-24046790D01*
X-36972943Y-24275855D01*
X-36972941Y-24275863D01*
X-36971805Y-24280592D01*
X-36969941Y-24285092D01*
X-36921967Y-24400912D01*
X-36877927Y-24507232D01*
X-36875391Y-24511371D01*
X-36875387Y-24511378D01*
X-36760538Y-24698795D01*
X-36749752Y-24716396D01*
X-36746587Y-24720102D01*
X-36746586Y-24720103D01*
X-36684662Y-24792606D01*
X-36590433Y-24902933D01*
X-36403896Y-25062252D01*
X-36399744Y-25064796D01*
X-36399743Y-25064797D01*
X-36202559Y-25185631D01*
X-36194732Y-25190427D01*
X-35968092Y-25284305D01*
X-35729557Y-25341572D01*
X-35491011Y-25360345D01*
X-35431107Y-25381361D01*
X-35389454Y-25429272D01*
X-35376971Y-25491518D01*
X-35396932Y-25551784D01*
X-35443117Y-25622476D01*
X-35445922Y-25626770D01*
X-35447977Y-25631454D01*
X-35447983Y-25631466D01*
X-35531949Y-25822891D01*
X-35538023Y-25836739D01*
X-35539281Y-25841704D01*
X-35539282Y-25841709D01*
X-35593049Y-26054028D01*
X-35593051Y-26054037D01*
X-35594308Y-26059003D01*
X-35594732Y-26064112D01*
X-35594733Y-26064122D01*
X-35610167Y-26250386D01*
X-35613242Y-26287500D01*
X-35612818Y-26292617D01*
X-35594733Y-26510877D01*
X-35594732Y-26510885D01*
X-35594308Y-26515997D01*
X-35593051Y-26520964D01*
X-35593049Y-26520971D01*
X-35540689Y-26727735D01*
X-35538023Y-26738261D01*
X-35535963Y-26742957D01*
X-35447983Y-26943533D01*
X-35447980Y-26943539D01*
X-35445922Y-26948230D01*
X-35443122Y-26952516D01*
X-35443118Y-26952523D01*
X-35370800Y-27063213D01*
X-35320518Y-27140176D01*
X-35165231Y-27308863D01*
X-35161185Y-27312012D01*
X-35161184Y-27312013D01*
X-34988345Y-27446539D01*
X-34988342Y-27446541D01*
X-34984296Y-27449690D01*
X-34782650Y-27558815D01*
X-34565793Y-27633262D01*
X-34339640Y-27671000D01*
X-34115493Y-27671000D01*
X-34110360Y-27671000D01*
X-33884207Y-27633262D01*
X-33667350Y-27558815D01*
X-33465704Y-27449690D01*
X-33429713Y-27421677D01*
X-30500178Y-27421677D01*
X-30492073Y-27432865D01*
X-30483683Y-27439395D01*
X-30475117Y-27444991D01*
X-30283731Y-27548564D01*
X-30274377Y-27552667D01*
X-30068553Y-27623326D01*
X-30058641Y-27625837D01*
X-29843998Y-27661655D01*
X-29833803Y-27662500D01*
X-29616197Y-27662500D01*
X-29606003Y-27661655D01*
X-29391360Y-27625837D01*
X-29381448Y-27623326D01*
X-29175624Y-27552667D01*
X-29166270Y-27548564D01*
X-28974886Y-27444993D01*
X-28966318Y-27439395D01*
X-28957928Y-27432865D01*
X-28949824Y-27421676D01*
X-28956484Y-27409570D01*
X-29713458Y-26652595D01*
X-29725000Y-26645931D01*
X-29736543Y-26652595D01*
X-30493517Y-27409569D01*
X-30500178Y-27421677D01*
X-33429713Y-27421677D01*
X-33284769Y-27308863D01*
X-33129482Y-27140176D01*
X-33004078Y-26948230D01*
X-33003664Y-26948500D01*
X-32970977Y-26910897D01*
X-32921545Y-26889063D01*
X-32919173Y-26888591D01*
X-32915130Y-26888059D01*
X-32671390Y-26822747D01*
X-32438260Y-26726180D01*
X-32219728Y-26600010D01*
X-32019535Y-26446396D01*
X-31865756Y-26292617D01*
X-31104288Y-26292617D01*
X-31086319Y-26509476D01*
X-31084637Y-26519564D01*
X-31031213Y-26730527D01*
X-31027897Y-26740184D01*
X-30940481Y-26939473D01*
X-30935615Y-26948463D01*
X-30865693Y-27055489D01*
X-30857726Y-27063213D01*
X-30848346Y-27057290D01*
X-30090097Y-26299042D01*
X-30083433Y-26287500D01*
X-30090097Y-26275957D01*
X-30848346Y-25517708D01*
X-30857726Y-25511785D01*
X-30865694Y-25519510D01*
X-30935609Y-25626526D01*
X-30940484Y-25635534D01*
X-31027897Y-25834815D01*
X-31031213Y-25844472D01*
X-31084637Y-26055435D01*
X-31086319Y-26065523D01*
X-31104288Y-26282383D01*
X-31104288Y-26292617D01*
X-31865756Y-26292617D01*
X-31841104Y-26267965D01*
X-31687490Y-26067772D01*
X-31561320Y-25849240D01*
X-31464753Y-25616110D01*
X-31399441Y-25372370D01*
X-31370601Y-25153321D01*
X-30500178Y-25153321D01*
X-30493518Y-25165428D01*
X-29725000Y-25933947D01*
X-28601656Y-27057290D01*
X-28592276Y-27063213D01*
X-28584309Y-27055488D01*
X-28514385Y-26948463D01*
X-28509520Y-26939473D01*
X-28422104Y-26740184D01*
X-28418788Y-26730527D01*
X-28365364Y-26519564D01*
X-28363682Y-26509476D01*
X-28345712Y-26292617D01*
X-28345712Y-26282383D01*
X-28363682Y-26065523D01*
X-28365364Y-26055435D01*
X-28418788Y-25844472D01*
X-28422104Y-25834815D01*
X-28509520Y-25635526D01*
X-28514386Y-25626536D01*
X-28563215Y-25551796D01*
X-28583176Y-25491530D01*
X-28570694Y-25429284D01*
X-28529040Y-25381374D01*
X-28469137Y-25360357D01*
X-28230443Y-25341572D01*
X-27991908Y-25284305D01*
X-27765268Y-25190427D01*
X-27556104Y-25062252D01*
X-27418256Y-24944518D01*
X-26400000Y-24944518D01*
X-26399647Y-24951114D01*
X-26394427Y-24999667D01*
X-26390889Y-25014641D01*
X-26346453Y-25133777D01*
X-26338038Y-25149189D01*
X-26262502Y-25250092D01*
X-26250093Y-25262501D01*
X-26149190Y-25338037D01*
X-26133778Y-25346452D01*
X-26014642Y-25390888D01*
X-25999668Y-25394426D01*
X-25951115Y-25399646D01*
X-25944518Y-25400000D01*
X-25266326Y-25400000D01*
X-25253451Y-25396549D01*
X-25250000Y-25383674D01*
X-24750000Y-25383674D01*
X-24746550Y-25396549D01*
X-24733674Y-25400000D01*
X-24055482Y-25400000D01*
X-24048886Y-25399646D01*
X-24000333Y-25394426D01*
X-23985359Y-25390888D01*
X-23866223Y-25346452D01*
X-23850811Y-25338037D01*
X-23749908Y-25262501D01*
X-23737499Y-25250092D01*
X-23661963Y-25149189D01*
X-23653547Y-25133776D01*
X-23631060Y-25073486D01*
X-23595108Y-25022271D01*
X-23538726Y-24995133D01*
X-23476270Y-24998982D01*
X-23423648Y-25032836D01*
X-23417220Y-25039818D01*
X-23233017Y-25183190D01*
X-23228510Y-25185629D01*
X-23228507Y-25185631D01*
X-23046172Y-25284305D01*
X-23027727Y-25294287D01*
X-22806951Y-25370080D01*
X-22576712Y-25408500D01*
X-22348421Y-25408500D01*
X-22343288Y-25408500D01*
X-22113049Y-25370080D01*
X-21892273Y-25294287D01*
X-21686983Y-25183190D01*
X-21502780Y-25039818D01*
X-21344686Y-24868083D01*
X-21217016Y-24672669D01*
X-21123251Y-24458907D01*
X-21065949Y-24232626D01*
X-21046673Y-24000000D01*
X-21065949Y-23767374D01*
X-21123251Y-23541093D01*
X-21217016Y-23327331D01*
X-21220366Y-23322204D01*
X-21323514Y-23164323D01*
X-21344686Y-23131917D01*
X-21479604Y-22985358D01*
X-21499312Y-22963949D01*
X-21499314Y-22963947D01*
X-21502780Y-22960182D01*
X-21686983Y-22816810D01*
X-21691488Y-22814372D01*
X-21691494Y-22814368D01*
X-21887767Y-22708151D01*
X-21887773Y-22708148D01*
X-21892273Y-22705713D01*
X-21897114Y-22704051D01*
X-21897121Y-22704048D01*
X-22108196Y-22631586D01*
X-22108197Y-22631585D01*
X-22113049Y-22629920D01*
X-22118099Y-22629077D01*
X-22118108Y-22629075D01*
X-22338226Y-22592344D01*
X-22338235Y-22592343D01*
X-22343288Y-22591500D01*
X-22576712Y-22591500D01*
X-22581765Y-22592343D01*
X-22581775Y-22592344D01*
X-22801893Y-22629075D01*
X-22801905Y-22629077D01*
X-22806951Y-22629920D01*
X-22811801Y-22631584D01*
X-22811805Y-22631586D01*
X-23022880Y-22704048D01*
X-23022891Y-22704052D01*
X-23027727Y-22705713D01*
X-23032224Y-22708146D01*
X-23032234Y-22708151D01*
X-23228507Y-22814368D01*
X-23228519Y-22814375D01*
X-23233017Y-22816810D01*
X-23237060Y-22819956D01*
X-23237065Y-22819960D01*
X-23413179Y-22957036D01*
X-23413185Y-22957040D01*
X-23417220Y-22960182D01*
X-23420683Y-22963943D01*
X-23420693Y-22963953D01*
X-23423652Y-22967168D01*
X-23476276Y-23001020D01*
X-23538730Y-23004865D01*
X-23595110Y-22977727D01*
X-23631060Y-22926514D01*
X-23653548Y-22866221D01*
X-23661963Y-22850810D01*
X-23737499Y-22749907D01*
X-23749908Y-22737498D01*
X-23850811Y-22661962D01*
X-23866223Y-22653547D01*
X-23985359Y-22609111D01*
X-24000333Y-22605573D01*
X-24048886Y-22600353D01*
X-24055482Y-22600000D01*
X-24733674Y-22600000D01*
X-24746550Y-22603450D01*
X-24750000Y-22616326D01*
X-24750000Y-25383674D01*
X-25250000Y-25383674D01*
X-25250000Y-24266326D01*
X-25253451Y-24253450D01*
X-25266326Y-24250000D01*
X-26383674Y-24250000D01*
X-26396550Y-24253450D01*
X-26400000Y-24266326D01*
X-26400000Y-24944518D01*
X-27418256Y-24944518D01*
X-27369567Y-24902933D01*
X-27210248Y-24716396D01*
X-27082073Y-24507232D01*
X-26988195Y-24280592D01*
X-26930928Y-24042057D01*
X-26911681Y-23797500D01*
X-26916704Y-23733674D01*
X-26400000Y-23733674D01*
X-26396550Y-23746549D01*
X-26383674Y-23750000D01*
X-25266326Y-23750000D01*
X-25253451Y-23746549D01*
X-25250000Y-23733674D01*
X-25250000Y-22616326D01*
X-25253451Y-22603450D01*
X-25266326Y-22600000D01*
X-25944518Y-22600000D01*
X-25951115Y-22600353D01*
X-25999668Y-22605573D01*
X-26014642Y-22609111D01*
X-26133778Y-22653547D01*
X-26149190Y-22661962D01*
X-26250093Y-22737498D01*
X-26262502Y-22749907D01*
X-26338038Y-22850810D01*
X-26346453Y-22866222D01*
X-26390889Y-22985358D01*
X-26394427Y-23000332D01*
X-26399647Y-23048885D01*
X-26400000Y-23055482D01*
X-26400000Y-23733674D01*
X-26916704Y-23733674D01*
X-26930928Y-23552943D01*
X-26988195Y-23314408D01*
X-27082073Y-23087768D01*
X-27105014Y-23050332D01*
X-27207705Y-22882754D01*
X-27210248Y-22878604D01*
X-27369567Y-22692067D01*
X-27428773Y-22641500D01*
X-27552397Y-22535914D01*
X-27552398Y-22535913D01*
X-27556104Y-22532748D01*
X-27560255Y-22530204D01*
X-27560258Y-22530202D01*
X-27761122Y-22407113D01*
X-27761129Y-22407109D01*
X-27765268Y-22404573D01*
X-27769763Y-22402711D01*
X-27769765Y-22402710D01*
X-27987408Y-22312559D01*
X-27991908Y-22310695D01*
X-27996637Y-22309559D01*
X-27996645Y-22309557D01*
X-28225710Y-22254564D01*
X-28225714Y-22254563D01*
X-28230443Y-22253428D01*
X-28235294Y-22253046D01*
X-28235295Y-22253046D01*
X-28470146Y-22234563D01*
X-28475000Y-22234181D01*
X-28479854Y-22234563D01*
X-28714706Y-22253046D01*
X-28714709Y-22253046D01*
X-28719557Y-22253428D01*
X-28724285Y-22254562D01*
X-28724291Y-22254564D01*
X-28953356Y-22309557D01*
X-28953368Y-22309560D01*
X-28958092Y-22310695D01*
X-28962589Y-22312557D01*
X-28962593Y-22312559D01*
X-29180236Y-22402710D01*
X-29180244Y-22402713D01*
X-29184732Y-22404573D01*
X-29188867Y-22407106D01*
X-29188879Y-22407113D01*
X-29389743Y-22530202D01*
X-29389753Y-22530208D01*
X-29393896Y-22532748D01*
X-29397597Y-22535908D01*
X-29397604Y-22535914D01*
X-29576733Y-22688906D01*
X-29576739Y-22688911D01*
X-29580433Y-22692067D01*
X-29583589Y-22695761D01*
X-29583594Y-22695767D01*
X-29736586Y-22874896D01*
X-29736592Y-22874903D01*
X-29739752Y-22878604D01*
X-29742296Y-22882754D01*
X-29742295Y-22882754D01*
X-29865387Y-23083621D01*
X-29865394Y-23083633D01*
X-29867927Y-23087768D01*
X-29869787Y-23092256D01*
X-29869790Y-23092264D01*
X-29958304Y-23305955D01*
X-29961805Y-23314408D01*
X-29962940Y-23319132D01*
X-29962943Y-23319144D01*
X-30017936Y-23548209D01*
X-30017938Y-23548215D01*
X-30019072Y-23552943D01*
X-30019454Y-23557791D01*
X-30019454Y-23557794D01*
X-30037322Y-23784834D01*
X-30038319Y-23797500D01*
X-30037937Y-23802354D01*
X-30020042Y-24029740D01*
X-30019072Y-24042057D01*
X-30017937Y-24046786D01*
X-30017936Y-24046790D01*
X-29962943Y-24275855D01*
X-29962941Y-24275863D01*
X-29961805Y-24280592D01*
X-29959941Y-24285092D01*
X-29911967Y-24400912D01*
X-29867927Y-24507232D01*
X-29865391Y-24511371D01*
X-29865387Y-24511378D01*
X-29775806Y-24657561D01*
X-29739752Y-24716396D01*
X-29739330Y-24716890D01*
X-29716706Y-24776312D01*
X-29727379Y-24840276D01*
X-29768879Y-24890105D01*
X-29829857Y-24912173D01*
X-29843998Y-24913344D01*
X-30058641Y-24949162D01*
X-30068553Y-24951673D01*
X-30274377Y-25022332D01*
X-30283731Y-25026435D01*
X-30475119Y-25130008D01*
X-30483680Y-25135601D01*
X-30492073Y-25142134D01*
X-30500178Y-25153321D01*
X-31370601Y-25153321D01*
X-31366502Y-25122190D01*
X-31366501Y-25072936D01*
X-31366500Y-25072933D01*
X-31366500Y-24998437D01*
X-31366404Y-24993569D01*
X-31365395Y-24967876D01*
X-31349546Y-24564455D01*
X-31348783Y-24554757D01*
X-31298587Y-24130649D01*
X-31297070Y-24121077D01*
X-31213759Y-23702237D01*
X-31211490Y-23692790D01*
X-31095576Y-23281788D01*
X-31092568Y-23272528D01*
X-31074377Y-23223220D01*
X-30944763Y-22871883D01*
X-30941055Y-22862929D01*
X-30762257Y-22475088D01*
X-30757860Y-22466456D01*
X-30549178Y-22093826D01*
X-30544122Y-22085577D01*
X-30306862Y-21730489D01*
X-30301149Y-21722629D01*
X-30036777Y-21387273D01*
X-30030470Y-21379887D01*
X-29740574Y-21066279D01*
X-29733728Y-21059433D01*
X-29420120Y-20769535D01*
X-29412754Y-20763244D01*
X-29077370Y-20498849D01*
X-29069523Y-20493148D01*
X-28714454Y-20255898D01*
X-28706154Y-20250813D01*
X-28333573Y-20042157D01*
X-28324920Y-20037746D01*
X-27937087Y-19858952D01*
X-27928116Y-19855237D01*
X-27527462Y-19707428D01*
X-27518225Y-19704427D01*
X-27107218Y-19588511D01*
X-27097770Y-19586243D01*
X-26678932Y-19502931D01*
X-26669360Y-19501414D01*
X-26245248Y-19451217D01*
X-26235553Y-19450455D01*
X-25806440Y-19433596D01*
X-25801571Y-19433500D01*
X-25440635Y-19433500D01*
X-25439030Y-19433500D01*
X-24710098Y-19395298D01*
X-23984164Y-19318999D01*
X-23263219Y-19204813D01*
X-22549238Y-19053051D01*
X-21844177Y-18864131D01*
X-21149971Y-18638569D01*
X-20468520Y-18376985D01*
X-19801694Y-18080095D01*
X-19151320Y-17748712D01*
X-18519180Y-17383746D01*
X-17907007Y-16986197D01*
X-17316480Y-16557153D01*
X-16749216Y-16097792D01*
X-16206771Y-15609372D01*
X-15690630Y-15093233D01*
X-15202210Y-14550787D01*
X-14742849Y-13983524D01*
X-14313806Y-13392996D01*
X-13916256Y-12780824D01*
X-13551290Y-12148684D01*
X-13219907Y-11498310D01*
X-12923017Y-10831484D01*
X-12661432Y-10150033D01*
X-12435870Y-9455827D01*
X-12246950Y-8750766D01*
X-12095188Y-8036785D01*
X-11981001Y-7315840D01*
X-11904702Y-6589906D01*
X-11866500Y-5860974D01*
X-11866500Y-5496008D01*
X-11866500Y-5419088D01*
X-11866500Y-5419087D01*
X-11866500Y139856D01*
X-11866500Y241756D01*
X-11900674Y523200D01*
X-11968523Y798473D01*
X-12069057Y1063560D01*
X-12072692Y1070485D01*
X-12199076Y1311291D01*
X-12200811Y1314597D01*
X-12335623Y1509905D01*
X-12359731Y1544832D01*
X-12359733Y1544834D01*
X-12361864Y1547922D01*
X-12549867Y1760133D01*
X-12762078Y1948136D01*
X-12765165Y1950267D01*
X-12765169Y1950270D01*
X-12992326Y2107065D01*
X-12992325Y2107065D01*
X-12995403Y2109189D01*
X-12998704Y2110922D01*
X-12998723Y2110933D01*
X-13154891Y2192896D01*
X-13187959Y2218131D01*
X-13210821Y2252882D01*
X-13212765Y2257313D01*
X-13296412Y2448013D01*
X-13299081Y2454097D01*
X-13299082Y2454098D01*
X-13301140Y2458791D01*
X-13413784Y2631206D01*
X-13421475Y2642978D01*
X-13421477Y2642980D01*
X-13424278Y2647268D01*
X-13569494Y2805013D01*
X-13598265Y2857761D01*
X-13598858Y2917848D01*
X-13571131Y2971159D01*
X-13521596Y3005174D01*
X-13403796Y3049111D01*
X-13286739Y3136739D01*
X-13199111Y3253796D01*
X-13148011Y3390799D01*
X-13141500Y3451362D01*
X-13141500Y5248638D01*
X-13148011Y5309201D01*
X-13199111Y5446204D01*
X-13286739Y5563261D01*
X-13297820Y5571556D01*
X-13396696Y5645574D01*
X-13396697Y5645575D01*
X-13403796Y5650889D01*
X-13412104Y5653988D01*
X-13412106Y5653989D01*
X-13533537Y5699281D01*
X-13533542Y5699283D01*
X-13540799Y5701989D01*
X-13548503Y5702818D01*
X-13548506Y5702818D01*
X-13598076Y5708147D01*
X-13598082Y5708148D01*
X-13601362Y5708500D01*
X-15398638Y5708500D01*
X-15401918Y5708148D01*
X-15401925Y5708147D01*
X-15451495Y5702818D01*
X-15451500Y5702818D01*
X-15459201Y5701989D01*
X-15466457Y5699283D01*
X-15466464Y5699281D01*
X-15587895Y5653989D01*
X-15587901Y5653987D01*
X-15596204Y5650889D01*
X-15603302Y5645577D01*
X-15603305Y5645574D01*
X-15706165Y5568574D01*
X-15706169Y5568571D01*
X-15713261Y5563261D01*
X-15718571Y5556169D01*
X-15718574Y5556165D01*
X-15795574Y5453305D01*
X-15795577Y5453302D01*
X-15800889Y5446204D01*
X-15803987Y5437901D01*
X-15803989Y5437895D01*
X-15849281Y5316464D01*
X-15849283Y5316457D01*
X-15851989Y5309201D01*
X-15852818Y5301500D01*
X-15852818Y5301495D01*
X-15858147Y5251925D01*
X-15858500Y5248638D01*
X-15858500Y3451362D01*
X-15858148Y3448082D01*
X-15858147Y3448076D01*
X-15856773Y3435292D01*
X-15851989Y3390799D01*
X-15849283Y3383542D01*
X-15849281Y3383537D01*
X-15803989Y3262106D01*
X-15800889Y3253796D01*
X-15795575Y3246697D01*
X-15795574Y3246696D01*
X-15719823Y3145504D01*
X-15713261Y3136739D01*
X-15596204Y3049111D01*
X-15478405Y3005174D01*
X-15428870Y2971159D01*
X-15401143Y2917848D01*
X-15401736Y2857762D01*
X-15430510Y2805009D01*
X-15572247Y2651044D01*
X-15572253Y2651037D01*
X-15575722Y2647268D01*
X-15578519Y2642988D01*
X-15578526Y2642978D01*
X-15691100Y2470669D01*
X-15698860Y2458791D01*
X-15700915Y2454108D01*
X-15700920Y2454097D01*
X-15764887Y2308264D01*
X-15789296Y2252616D01*
X-15790554Y2247651D01*
X-15790555Y2247646D01*
X-15843305Y2039343D01*
X-15843307Y2039334D01*
X-15844564Y2034368D01*
X-15844988Y2029259D01*
X-15844989Y2029249D01*
X-15854745Y1911506D01*
X-15863156Y1810000D01*
X-15862732Y1804883D01*
X-15844989Y1590752D01*
X-15844988Y1590744D01*
X-15844564Y1585632D01*
X-15843307Y1580665D01*
X-15843305Y1580658D01*
X-15790555Y1372355D01*
X-15789296Y1367384D01*
X-15787236Y1362688D01*
X-15700920Y1165904D01*
X-15700917Y1165899D01*
X-15698860Y1161209D01*
X-15639587Y1070485D01*
X-15578526Y977023D01*
X-15578523Y977019D01*
X-15575722Y972732D01*
X-15572248Y968959D01*
X-15572247Y968957D01*
X-15426712Y810865D01*
X-15426709Y810862D01*
X-15423240Y807094D01*
X-15419127Y803893D01*
X-15249624Y671961D01*
X-15249619Y671958D01*
X-15245576Y668811D01*
X-15241069Y666372D01*
X-15241066Y666370D01*
X-15209070Y649055D01*
X-15161564Y603474D01*
X-15144087Y540000D01*
X-15161564Y476526D01*
X-15209070Y430945D01*
X-15241066Y413631D01*
X-15241078Y413624D01*
X-15245576Y411189D01*
X-15249611Y408049D01*
X-15249624Y408040D01*
X-15419199Y276052D01*
X-15419205Y276048D01*
X-15423240Y272906D01*
X-15426703Y269145D01*
X-15426712Y269136D01*
X-15572247Y111044D01*
X-15572253Y111037D01*
X-15575722Y107268D01*
X-15578520Y102986D01*
X-15578532Y102970D01*
X-15677025Y-47785D01*
X-15716189Y-85779D01*
X-15767871Y-103284D01*
X-16044454Y-132355D01*
X-16044469Y-132357D01*
X-16047672Y-132694D01*
X-16050840Y-133367D01*
X-16050844Y-133368D01*
X-16383162Y-204005D01*
X-16383167Y-204006D01*
X-16386341Y-204681D01*
X-16389415Y-205679D01*
X-16389427Y-205683D01*
X-16712548Y-310673D01*
X-16712564Y-310678D01*
X-16715629Y-311675D01*
X-16718571Y-312984D01*
X-16718587Y-312991D01*
X-17028966Y-451182D01*
X-17028972Y-451184D01*
X-17031930Y-452502D01*
X-17034727Y-454116D01*
X-17034747Y-454127D01*
X-17328970Y-623998D01*
X-17331779Y-625620D01*
X-17334389Y-627515D01*
X-17334401Y-627524D01*
X-17609258Y-827220D01*
X-17609273Y-827231D01*
X-17611888Y-829132D01*
X-17614307Y-831309D01*
X-17614307Y-831310D01*
X-17866782Y-1058639D01*
X-17866792Y-1058648D01*
X-17869191Y-1060809D01*
X-17871352Y-1063208D01*
X-17871361Y-1063218D01*
X-17985393Y-1189864D01*
X-18100868Y-1318112D01*
X-18102769Y-1320727D01*
X-18102780Y-1320742D01*
X-18302476Y-1595599D01*
X-18302485Y-1595611D01*
X-18304380Y-1598221D01*
X-18306000Y-1601026D01*
X-18306002Y-1601030D01*
X-18475873Y-1895253D01*
X-18475884Y-1895273D01*
X-18477498Y-1898070D01*
X-18478816Y-1901028D01*
X-18478818Y-1901034D01*
X-18617009Y-2211413D01*
X-18617016Y-2211429D01*
X-18618325Y-2214371D01*
X-18619322Y-2217436D01*
X-18619327Y-2217452D01*
X-18724317Y-2540573D01*
X-18724321Y-2540585D01*
X-18725319Y-2543659D01*
X-18725994Y-2546833D01*
X-18725995Y-2546838D01*
X-18795272Y-2872760D01*
X-18797306Y-2882328D01*
X-18797643Y-2885531D01*
X-18797645Y-2885546D01*
X-18833161Y-3223445D01*
X-18833162Y-3223455D01*
X-18833499Y-3226666D01*
X-18833500Y-3229888D01*
X-18833500Y-3229907D01*
X-18833500Y-3327324D01*
X-18833500Y-3399784D01*
X-18833501Y-3476705D01*
X-18833500Y-3476708D01*
X-18833500Y-3476709D01*
X-18833500Y-5421768D01*
X-18833816Y-5430614D01*
X-18850581Y-5665022D01*
X-18853099Y-5682534D01*
X-18902109Y-5907828D01*
X-18907093Y-5924803D01*
X-18987668Y-6140836D01*
X-18995018Y-6156930D01*
X-19105517Y-6359293D01*
X-19115082Y-6374176D01*
X-19253255Y-6558754D01*
X-19264841Y-6572125D01*
X-19427875Y-6735159D01*
X-19441246Y-6746745D01*
X-19625824Y-6884918D01*
X-19640707Y-6894483D01*
X-19843070Y-7004982D01*
X-19859164Y-7012332D01*
X-20075197Y-7092907D01*
X-20092172Y-7097891D01*
X-20317466Y-7146901D01*
X-20334978Y-7149419D01*
X-20569386Y-7166184D01*
X-20578232Y-7166500D01*
X-22219970Y-7166500D01*
X-29795948Y-7166500D01*
X-29804058Y-7166234D01*
X-30048570Y-7150207D01*
X-30064651Y-7148090D01*
X-30300995Y-7101078D01*
X-30316662Y-7096880D01*
X-30544851Y-7019421D01*
X-30559837Y-7013214D01*
X-30561626Y-7012332D01*
X-30680657Y-6953632D01*
X-30775961Y-6906633D01*
X-30790008Y-6898523D01*
X-30990372Y-6764644D01*
X-31003240Y-6754770D01*
X-31014243Y-6745121D01*
X-31110815Y-6660429D01*
X-31184415Y-6595883D01*
X-31195884Y-6584414D01*
X-31257421Y-6514245D01*
X-31354774Y-6403235D01*
X-31364645Y-6390371D01*
X-31385411Y-6359293D01*
X-31498524Y-6190007D01*
X-31506634Y-6175960D01*
X-31524964Y-6138791D01*
X-31613218Y-5959829D01*
X-31619422Y-5944850D01*
X-31696881Y-5716661D01*
X-31701079Y-5700994D01*
X-31725674Y-5577346D01*
X-31748092Y-5464645D01*
X-31750207Y-5448589D01*
X-31766236Y-5204028D01*
X-31766500Y-5195948D01*
X-31766500Y-4921216D01*
X-30916658Y-4921216D01*
X-30909889Y-4927984D01*
X-30900235Y-4932634D01*
X-30743218Y-4987576D01*
X-30729720Y-4990657D01*
X-30564423Y-5009282D01*
X-30550577Y-5009282D01*
X-30385281Y-4990657D01*
X-30371783Y-4987576D01*
X-30214767Y-4932634D01*
X-30205112Y-4927984D01*
X-30198344Y-4921216D01*
X-29391658Y-4921216D01*
X-29384889Y-4927984D01*
X-29375235Y-4932634D01*
X-29218218Y-4987576D01*
X-29204720Y-4990657D01*
X-29039423Y-5009282D01*
X-29025577Y-5009282D01*
X-28860281Y-4990657D01*
X-28846783Y-4987576D01*
X-28689767Y-4932634D01*
X-28680112Y-4927984D01*
X-28673344Y-4921216D01*
X-28679272Y-4911781D01*
X-29020958Y-4570095D01*
X-29032500Y-4563431D01*
X-29044044Y-4570096D01*
X-29385729Y-4911780D01*
X-29391658Y-4921216D01*
X-30198344Y-4921216D01*
X-30204272Y-4911781D01*
X-30545958Y-4570095D01*
X-30557500Y-4563431D01*
X-30569044Y-4570096D01*
X-30910729Y-4911780D01*
X-30916658Y-4921216D01*
X-31766500Y-4921216D01*
X-31766500Y-4308587D01*
X-31752667Y-4251673D01*
X-31714255Y-4207458D01*
X-31659834Y-4185805D01*
X-31601546Y-4191545D01*
X-31505716Y-4225077D01*
X-31492229Y-4228155D01*
X-31456519Y-4232178D01*
X-31404431Y-4250404D01*
X-31365409Y-4289425D01*
X-31347181Y-4341513D01*
X-31343157Y-4377219D01*
X-31340077Y-4390717D01*
X-31285136Y-4547731D01*
X-31280485Y-4557389D01*
X-31273718Y-4564156D01*
X-31264283Y-4558228D01*
X-30922596Y-4216542D01*
X-30915932Y-4205000D01*
X-30199069Y-4205000D01*
X-30192405Y-4216542D01*
X-29850719Y-4558228D01*
X-29840453Y-4564679D01*
X-29835953Y-4563105D01*
X-29794999Y-4556147D01*
X-29754045Y-4563106D01*
X-29749549Y-4564679D01*
X-29739283Y-4558228D01*
X-29397596Y-4216542D01*
X-29390932Y-4205000D01*
X-28674069Y-4205000D01*
X-28667405Y-4216542D01*
X-28325719Y-4558228D01*
X-28316284Y-4564156D01*
X-28309516Y-4557388D01*
X-28304866Y-4547733D01*
X-28249923Y-4390715D01*
X-28246845Y-4377227D01*
X-28242822Y-4341518D01*
X-28224595Y-4289428D01*
X-28185572Y-4250405D01*
X-28133482Y-4232178D01*
X-28097773Y-4228155D01*
X-28084285Y-4225077D01*
X-27927267Y-4170134D01*
X-27917612Y-4165484D01*
X-27910844Y-4158716D01*
X-27916772Y-4149281D01*
X-28258458Y-3807595D01*
X-28270000Y-3800931D01*
X-28281543Y-3807595D01*
X-28667405Y-4193457D01*
X-28674069Y-4205000D01*
X-29390932Y-4205000D01*
X-29397596Y-4193457D01*
X-29783458Y-3807595D01*
X-29795000Y-3800931D01*
X-29806543Y-3807595D01*
X-30192405Y-4193457D01*
X-30199069Y-4205000D01*
X-30915932Y-4205000D01*
X-30922596Y-4193457D01*
X-31585872Y-3530181D01*
X-31617966Y-3474594D01*
X-31617966Y-3442500D01*
X-30961569Y-3442500D01*
X-30954905Y-3454042D01*
X-30569043Y-3839904D01*
X-30557500Y-3846568D01*
X-30545958Y-3839904D01*
X-30160096Y-3454042D01*
X-30153432Y-3442500D01*
X-29436569Y-3442500D01*
X-29429905Y-3454042D01*
X-29044043Y-3839904D01*
X-29032500Y-3846568D01*
X-29020958Y-3839904D01*
X-28635096Y-3454042D01*
X-28628432Y-3442500D01*
X-27911569Y-3442500D01*
X-27904905Y-3454042D01*
X-27563219Y-3795728D01*
X-27553784Y-3801656D01*
X-27547016Y-3794888D01*
X-27542366Y-3785233D01*
X-27487424Y-3628217D01*
X-27484343Y-3614719D01*
X-27465718Y-3449423D01*
X-27465718Y-3435577D01*
X-27484343Y-3270280D01*
X-27487424Y-3256782D01*
X-27542366Y-3099765D01*
X-27547016Y-3090111D01*
X-27553784Y-3083342D01*
X-27563220Y-3089271D01*
X-27904904Y-3430956D01*
X-27911569Y-3442500D01*
X-28628432Y-3442500D01*
X-28635096Y-3430957D01*
X-29020958Y-3045095D01*
X-29032500Y-3038431D01*
X-29044043Y-3045095D01*
X-29429905Y-3430957D01*
X-29436569Y-3442500D01*
X-30153432Y-3442500D01*
X-30160096Y-3430957D01*
X-30545958Y-3045095D01*
X-30557500Y-3038431D01*
X-30569043Y-3045095D01*
X-30954905Y-3430957D01*
X-30961569Y-3442500D01*
X-31617966Y-3442500D01*
X-31617966Y-3410406D01*
X-31585872Y-3354819D01*
X-30922596Y-2691542D01*
X-30915932Y-2680000D01*
X-30199069Y-2680000D01*
X-30192405Y-2691542D01*
X-29806543Y-3077404D01*
X-29795000Y-3084068D01*
X-29783458Y-3077404D01*
X-29397596Y-2691542D01*
X-29390932Y-2680000D01*
X-28674069Y-2680000D01*
X-28667405Y-2691542D01*
X-28281543Y-3077404D01*
X-28270000Y-3084068D01*
X-28258458Y-3077404D01*
X-27916772Y-2735717D01*
X-27910321Y-2725451D01*
X-27911894Y-2720955D01*
X-27918853Y-2680001D01*
X-27911895Y-2639047D01*
X-27910321Y-2634547D01*
X-27916772Y-2624281D01*
X-28258458Y-2282595D01*
X-28270000Y-2275931D01*
X-28281543Y-2282595D01*
X-28667405Y-2668457D01*
X-28674069Y-2680000D01*
X-29390932Y-2680000D01*
X-29397596Y-2668457D01*
X-29783458Y-2282595D01*
X-29795000Y-2275931D01*
X-29806543Y-2282595D01*
X-30192405Y-2668457D01*
X-30199069Y-2680000D01*
X-30915932Y-2680000D01*
X-30922596Y-2668457D01*
X-31585872Y-2005181D01*
X-31617966Y-1949594D01*
X-31617966Y-1917500D01*
X-30961569Y-1917500D01*
X-30954905Y-1929042D01*
X-30569043Y-2314904D01*
X-30557501Y-2321568D01*
X-30545958Y-2314904D01*
X-30160096Y-1929042D01*
X-30153432Y-1917500D01*
X-29436569Y-1917500D01*
X-29429905Y-1929042D01*
X-29044043Y-2314904D01*
X-29032501Y-2321568D01*
X-29020958Y-2314904D01*
X-28635096Y-1929042D01*
X-28628432Y-1917500D01*
X-27911569Y-1917500D01*
X-27904905Y-1929042D01*
X-27563219Y-2270728D01*
X-27553784Y-2276656D01*
X-27547016Y-2269888D01*
X-27542366Y-2260233D01*
X-27487424Y-2103217D01*
X-27484343Y-2089719D01*
X-27465718Y-1924423D01*
X-27465718Y-1910577D01*
X-27484343Y-1745280D01*
X-27487424Y-1731782D01*
X-27542366Y-1574765D01*
X-27547016Y-1565111D01*
X-27553784Y-1558342D01*
X-27563220Y-1564271D01*
X-27904904Y-1905956D01*
X-27911569Y-1917500D01*
X-28628432Y-1917500D01*
X-28635096Y-1905957D01*
X-29020958Y-1520095D01*
X-29032500Y-1513431D01*
X-29044043Y-1520095D01*
X-29429905Y-1905957D01*
X-29436569Y-1917500D01*
X-30153432Y-1917500D01*
X-30160096Y-1905957D01*
X-30545958Y-1520095D01*
X-30557500Y-1513431D01*
X-30569043Y-1520095D01*
X-30954905Y-1905957D01*
X-30961569Y-1917500D01*
X-31617966Y-1917500D01*
X-31617966Y-1885406D01*
X-31585872Y-1829819D01*
X-30922596Y-1166542D01*
X-30915932Y-1155000D01*
X-30199069Y-1155000D01*
X-30192405Y-1166542D01*
X-29806543Y-1552404D01*
X-29795001Y-1559068D01*
X-29783458Y-1552404D01*
X-29397596Y-1166542D01*
X-29390932Y-1155000D01*
X-28674069Y-1155000D01*
X-28667405Y-1166542D01*
X-28281543Y-1552404D01*
X-28270001Y-1559068D01*
X-28258458Y-1552404D01*
X-27916772Y-1210717D01*
X-27910844Y-1201282D01*
X-27917611Y-1194515D01*
X-27927269Y-1189864D01*
X-28084283Y-1134923D01*
X-28097781Y-1131843D01*
X-28133487Y-1127819D01*
X-28185575Y-1109591D01*
X-28224596Y-1070569D01*
X-28242822Y-1018481D01*
X-28246845Y-982771D01*
X-28249923Y-969284D01*
X-28304866Y-812265D01*
X-28309516Y-802611D01*
X-28316284Y-795842D01*
X-28325720Y-801771D01*
X-28667404Y-1143456D01*
X-28674069Y-1155000D01*
X-29390932Y-1155000D01*
X-29397596Y-1143457D01*
X-29739281Y-801772D01*
X-29749550Y-795319D01*
X-29754046Y-796893D01*
X-29795000Y-803852D01*
X-29835954Y-796894D01*
X-29840453Y-795320D01*
X-29850720Y-801771D01*
X-30192404Y-1143456D01*
X-30199069Y-1155000D01*
X-30915932Y-1155000D01*
X-30922596Y-1143457D01*
X-31264281Y-801772D01*
X-31273717Y-795843D01*
X-31280487Y-802613D01*
X-31285134Y-812264D01*
X-31340077Y-969282D01*
X-31343157Y-982779D01*
X-31347181Y-1018486D01*
X-31365408Y-1070572D01*
X-31404428Y-1109592D01*
X-31456514Y-1127819D01*
X-31492221Y-1131843D01*
X-31505718Y-1134923D01*
X-31601546Y-1168455D01*
X-31659834Y-1174195D01*
X-31714255Y-1152542D01*
X-31752667Y-1108327D01*
X-31766500Y-1051413D01*
X-31766500Y-438783D01*
X-30916657Y-438783D01*
X-30910728Y-448219D01*
X-30569043Y-789904D01*
X-30557500Y-796568D01*
X-30545958Y-789904D01*
X-30204272Y-448217D01*
X-30198345Y-438783D01*
X-29391657Y-438783D01*
X-29385728Y-448219D01*
X-29044043Y-789904D01*
X-29032500Y-796568D01*
X-29020958Y-789904D01*
X-28679272Y-448217D01*
X-28673344Y-438782D01*
X-28680111Y-432015D01*
X-28689769Y-427364D01*
X-28846783Y-372423D01*
X-28860281Y-369342D01*
X-29025577Y-350718D01*
X-29039423Y-350718D01*
X-29204720Y-369342D01*
X-29218218Y-372423D01*
X-29375236Y-427366D01*
X-29384887Y-432013D01*
X-29391657Y-438783D01*
X-30198345Y-438783D01*
X-30198344Y-438782D01*
X-30205111Y-432015D01*
X-30214769Y-427364D01*
X-30371783Y-372423D01*
X-30385281Y-369342D01*
X-30550577Y-350718D01*
X-30564423Y-350718D01*
X-30729720Y-369342D01*
X-30743218Y-372423D01*
X-30900236Y-427366D01*
X-30909887Y-432013D01*
X-30916657Y-438783D01*
X-31766500Y-438783D01*
X-31766500Y4401823D01*
X-31752985Y4458118D01*
X-31715387Y4502141D01*
X-31689244Y4521134D01*
X-31561457Y4663056D01*
X-31465970Y4828444D01*
X-31406955Y5010072D01*
X-31386993Y5200000D01*
X-31406955Y5389928D01*
X-31410228Y5400000D01*
X-29113504Y5400000D01*
X-29112825Y5393540D01*
X-29094222Y5216533D01*
X-29094221Y5216525D01*
X-29093542Y5210072D01*
X-29091537Y5203900D01*
X-29091535Y5203893D01*
X-29036535Y5034623D01*
X-29034527Y5028444D01*
X-29031280Y5022820D01*
X-29031279Y5022818D01*
X-28956383Y4893094D01*
X-28939040Y4863056D01*
X-28866578Y4782579D01*
X-28865350Y4781215D01*
X-28841737Y4742684D01*
X-28833500Y4698249D01*
X-28833500Y4680758D01*
X-28833500Y4680737D01*
X-28833499Y4678046D01*
X-28833264Y4675353D01*
X-28833263Y4675345D01*
X-28799488Y4289297D01*
X-28799187Y4285864D01*
X-28798722Y4283225D01*
X-28798719Y4283205D01*
X-28737879Y3938174D01*
X-28730824Y3898164D01*
X-28730129Y3895570D01*
X-28730128Y3895566D01*
X-28702754Y3793408D01*
X-28628931Y3517898D01*
X-28494284Y3147960D01*
X-28493142Y3145509D01*
X-28493139Y3145504D01*
X-28329054Y2793623D01*
X-28329047Y2793609D01*
X-28327907Y2791165D01*
X-28326553Y2788820D01*
X-28326551Y2788816D01*
X-28234774Y2629854D01*
X-28131066Y2450227D01*
X-27905260Y2127743D01*
X-27857906Y2071309D01*
X-27653953Y1828247D01*
X-27653946Y1828239D01*
X-27652207Y1826167D01*
X-27373833Y1547793D01*
X-27371761Y1546055D01*
X-27371754Y1546048D01*
X-27328680Y1509905D01*
X-27072257Y1294740D01*
X-26749773Y1068934D01*
X-26408835Y872093D01*
X-26406384Y870950D01*
X-26406378Y870947D01*
X-26269445Y807094D01*
X-26052040Y705716D01*
X-25682102Y571069D01*
X-25301836Y469176D01*
X-24914136Y400813D01*
X-24521954Y366501D01*
X-24405146Y366501D01*
X-24405144Y366501D01*
X-24405142Y366500D01*
X-24325114Y366500D01*
X-18407309Y366500D01*
X-18356874Y355780D01*
X-18320979Y329701D01*
X-18320429Y330310D01*
X-18315600Y325962D01*
X-18311253Y321134D01*
X-18306003Y317320D01*
X-18306000Y317317D01*
X-18201999Y241756D01*
X-18156752Y208882D01*
X-18150819Y206241D01*
X-18150818Y206240D01*
X-18001717Y139856D01*
X-17982288Y131206D01*
X-17975930Y129855D01*
X-17975928Y129854D01*
X-17939126Y122032D01*
X-17795487Y91500D01*
X-17611016Y91500D01*
X-17604513Y91500D01*
X-17417712Y131206D01*
X-17243248Y208882D01*
X-17088747Y321134D01*
X-16960960Y463056D01*
X-16865473Y628444D01*
X-16806458Y810072D01*
X-16786496Y1000000D01*
X-16806458Y1189928D01*
X-16865473Y1371556D01*
X-16960960Y1536944D01*
X-17088747Y1678866D01*
X-17093997Y1682681D01*
X-17094001Y1682684D01*
X-17237994Y1787301D01*
X-17237996Y1787303D01*
X-17243248Y1791118D01*
X-17249179Y1793759D01*
X-17249183Y1793761D01*
X-17411774Y1866151D01*
X-17411781Y1866154D01*
X-17417712Y1868794D01*
X-17424065Y1870145D01*
X-17424073Y1870147D01*
X-17598151Y1907148D01*
X-17598154Y1907149D01*
X-17604513Y1908500D01*
X-17795487Y1908500D01*
X-17801846Y1907149D01*
X-17801850Y1907148D01*
X-17975928Y1870147D01*
X-17975939Y1870144D01*
X-17982288Y1868794D01*
X-17988218Y1866155D01*
X-17988227Y1866151D01*
X-18150818Y1793761D01*
X-18150826Y1793757D01*
X-18156752Y1791118D01*
X-18162001Y1787305D01*
X-18162007Y1787301D01*
X-18306000Y1682684D01*
X-18306009Y1682677D01*
X-18311253Y1678866D01*
X-18315598Y1674042D01*
X-18320429Y1669690D01*
X-18320979Y1670300D01*
X-18356874Y1644220D01*
X-18407309Y1633500D01*
X-24321864Y1633500D01*
X-24328353Y1633670D01*
X-24354302Y1635030D01*
X-24657442Y1650919D01*
X-24670349Y1652276D01*
X-24992608Y1703317D01*
X-25005304Y1706015D01*
X-25320478Y1790466D01*
X-25332822Y1794477D01*
X-25629860Y1908500D01*
X-25637435Y1911408D01*
X-25649290Y1916686D01*
X-25715202Y1950270D01*
X-25940024Y2064823D01*
X-25951251Y2071305D01*
X-26224896Y2249012D01*
X-26235397Y2256641D01*
X-26488973Y2461984D01*
X-26498618Y2470669D01*
X-26729332Y2701383D01*
X-26738017Y2711028D01*
X-26761588Y2740135D01*
X-26943361Y2964605D01*
X-26950989Y2975105D01*
X-26963871Y2994941D01*
X-27055716Y3136371D01*
X-27075706Y3201958D01*
X-27057786Y3268141D01*
X-27007437Y3314684D01*
X-26940052Y3327356D01*
X-26876236Y3302283D01*
X-26744270Y3201022D01*
X-26516512Y3069527D01*
X-26273538Y2968886D01*
X-26019506Y2900822D01*
X-25758764Y2866498D01*
X-25627268Y2866500D01*
X-18407309Y2866500D01*
X-18356874Y2855780D01*
X-18320979Y2829701D01*
X-18320429Y2830310D01*
X-18315600Y2825962D01*
X-18311253Y2821134D01*
X-18306003Y2817320D01*
X-18306000Y2817317D01*
X-18163137Y2713521D01*
X-18156752Y2708882D01*
X-18150819Y2706241D01*
X-18150818Y2706240D01*
X-18008729Y2642978D01*
X-17982288Y2631206D01*
X-17975930Y2629855D01*
X-17975928Y2629854D01*
X-17939126Y2622032D01*
X-17795487Y2591500D01*
X-17611016Y2591500D01*
X-17604513Y2591500D01*
X-17417712Y2631206D01*
X-17243248Y2708882D01*
X-17088747Y2821134D01*
X-16960960Y2963056D01*
X-16865473Y3128444D01*
X-16806458Y3310072D01*
X-16786496Y3500000D01*
X-16806458Y3689928D01*
X-16865473Y3871556D01*
X-16960960Y4036944D01*
X-17088747Y4178866D01*
X-17093997Y4182681D01*
X-17094001Y4182684D01*
X-17237994Y4287301D01*
X-17237996Y4287303D01*
X-17243248Y4291118D01*
X-17249179Y4293759D01*
X-17249183Y4293761D01*
X-17411774Y4366151D01*
X-17411781Y4366154D01*
X-17417712Y4368794D01*
X-17424065Y4370145D01*
X-17424073Y4370147D01*
X-17598151Y4407148D01*
X-17598154Y4407149D01*
X-17604513Y4408500D01*
X-17795487Y4408500D01*
X-17801846Y4407149D01*
X-17801850Y4407148D01*
X-17975928Y4370147D01*
X-17975939Y4370144D01*
X-17982288Y4368794D01*
X-17988218Y4366155D01*
X-17988227Y4366151D01*
X-18150818Y4293761D01*
X-18150826Y4293757D01*
X-18156752Y4291118D01*
X-18162001Y4287305D01*
X-18162007Y4287301D01*
X-18306000Y4182684D01*
X-18306009Y4182677D01*
X-18311253Y4178866D01*
X-18315598Y4174042D01*
X-18320429Y4169690D01*
X-18320979Y4170300D01*
X-18356874Y4144220D01*
X-18407309Y4133500D01*
X-25550361Y4133500D01*
X-25550364Y4133501D01*
X-25550367Y4133501D01*
X-25550377Y4133501D01*
X-25621199Y4133501D01*
X-25633352Y4134098D01*
X-25759349Y4146506D01*
X-25783189Y4151248D01*
X-25898486Y4186221D01*
X-25920945Y4195523D01*
X-26027209Y4252322D01*
X-26047414Y4265822D01*
X-26140553Y4342260D01*
X-26157741Y4359448D01*
X-26188708Y4397181D01*
X-26234180Y4452589D01*
X-26247678Y4472790D01*
X-26304481Y4579061D01*
X-26313780Y4601515D01*
X-26339500Y4686308D01*
X-26341870Y4749273D01*
X-26312989Y4805273D01*
X-26260960Y4863056D01*
X-26165473Y5028444D01*
X-26106458Y5210072D01*
X-26086496Y5400000D01*
X-26106458Y5589928D01*
X-26165473Y5771556D01*
X-26260960Y5936944D01*
X-26388747Y6078866D01*
X-26393997Y6082681D01*
X-26394001Y6082684D01*
X-26537994Y6187301D01*
X-26537996Y6187303D01*
X-26543248Y6191118D01*
X-26549179Y6193759D01*
X-26549183Y6193761D01*
X-26711774Y6266151D01*
X-26711781Y6266154D01*
X-26717712Y6268794D01*
X-26724065Y6270145D01*
X-26724073Y6270147D01*
X-26898151Y6307148D01*
X-26898154Y6307149D01*
X-26904513Y6308500D01*
X-27095487Y6308500D01*
X-27101846Y6307149D01*
X-27101850Y6307148D01*
X-27275928Y6270147D01*
X-27275939Y6270144D01*
X-27282288Y6268794D01*
X-27288218Y6266155D01*
X-27288227Y6266151D01*
X-27450816Y6193762D01*
X-27450825Y6193758D01*
X-27456752Y6191118D01*
X-27527117Y6139996D01*
X-27574219Y6119025D01*
X-27625781Y6119025D01*
X-27672885Y6139997D01*
X-27737989Y6187298D01*
X-27737996Y6187302D01*
X-27743248Y6191118D01*
X-27749179Y6193759D01*
X-27749183Y6193761D01*
X-27911774Y6266151D01*
X-27911781Y6266154D01*
X-27917712Y6268794D01*
X-27924065Y6270145D01*
X-27924073Y6270147D01*
X-28098151Y6307148D01*
X-28098154Y6307149D01*
X-28104513Y6308500D01*
X-28295487Y6308500D01*
X-28301846Y6307149D01*
X-28301850Y6307148D01*
X-28475928Y6270147D01*
X-28475939Y6270144D01*
X-28482288Y6268794D01*
X-28488218Y6266155D01*
X-28488227Y6266151D01*
X-28650818Y6193761D01*
X-28650826Y6193757D01*
X-28656752Y6191118D01*
X-28662001Y6187305D01*
X-28662007Y6187301D01*
X-28806000Y6082684D01*
X-28806009Y6082677D01*
X-28811253Y6078866D01*
X-28815597Y6074043D01*
X-28815600Y6074039D01*
X-28896933Y5983709D01*
X-28939040Y5936944D01*
X-28942286Y5931324D01*
X-28942289Y5931318D01*
X-29031279Y5777183D01*
X-29031282Y5777178D01*
X-29034527Y5771556D01*
X-29036533Y5765384D01*
X-29036535Y5765378D01*
X-29091535Y5596108D01*
X-29091537Y5596099D01*
X-29093542Y5589928D01*
X-29094220Y5583478D01*
X-29094222Y5583468D01*
X-29108102Y5451396D01*
X-29113504Y5400000D01*
X-31410228Y5400000D01*
X-31465970Y5571556D01*
X-31561457Y5736944D01*
X-31689244Y5878866D01*
X-31694494Y5882681D01*
X-31694498Y5882684D01*
X-31838491Y5987301D01*
X-31838493Y5987303D01*
X-31843745Y5991118D01*
X-31849676Y5993759D01*
X-31849680Y5993761D01*
X-32012271Y6066151D01*
X-32012278Y6066154D01*
X-32018209Y6068794D01*
X-32024562Y6070145D01*
X-32024570Y6070147D01*
X-32198648Y6107148D01*
X-32198651Y6107149D01*
X-32205010Y6108500D01*
X-32395984Y6108500D01*
X-32402343Y6107149D01*
X-32402347Y6107148D01*
X-32576425Y6070147D01*
X-32576436Y6070144D01*
X-32582785Y6068794D01*
X-32588723Y6066151D01*
X-32588724Y6066150D01*
X-32749814Y5994429D01*
X-32800249Y5983709D01*
X-32850684Y5994429D01*
X-32938780Y6033652D01*
X-33017712Y6068794D01*
X-33024065Y6070145D01*
X-33024073Y6070147D01*
X-33198151Y6107148D01*
X-33198154Y6107149D01*
X-33204513Y6108500D01*
X-33395487Y6108500D01*
X-33401846Y6107149D01*
X-33401850Y6107148D01*
X-33575928Y6070147D01*
X-33575939Y6070144D01*
X-33582288Y6068794D01*
X-33588218Y6066155D01*
X-33588227Y6066151D01*
X-33750818Y5993761D01*
X-33750826Y5993757D01*
X-33756752Y5991118D01*
X-33762001Y5987305D01*
X-33762007Y5987301D01*
X-33906000Y5882684D01*
X-33906009Y5882677D01*
X-33911253Y5878866D01*
X-33915597Y5874043D01*
X-33915600Y5874039D01*
X-34013438Y5765378D01*
X-34039040Y5736944D01*
X-34042286Y5731324D01*
X-34042289Y5731318D01*
X-34131279Y5577183D01*
X-34131282Y5577178D01*
X-34134527Y5571556D01*
X-34136533Y5565384D01*
X-34136535Y5565378D01*
X-34191535Y5396108D01*
X-34191537Y5396099D01*
X-34193542Y5389928D01*
X-34194220Y5383478D01*
X-34194222Y5383468D01*
X-34202027Y5309201D01*
X-34213504Y5200000D01*
X-34212825Y5193540D01*
X-34194222Y5016533D01*
X-34194221Y5016525D01*
X-34193542Y5010072D01*
X-34191537Y5003900D01*
X-34191535Y5003893D01*
X-34136535Y4834623D01*
X-34134527Y4828444D01*
X-34131280Y4822820D01*
X-34131279Y4822818D01*
X-34047695Y4678046D01*
X-34039040Y4663056D01*
X-33976347Y4593428D01*
X-33965350Y4581215D01*
X-33941736Y4542681D01*
X-33933500Y4498243D01*
X-33933500Y-4800418D01*
X-33933501Y-4800422D01*
X-33933500Y-4877343D01*
X-33933500Y-4917192D01*
X-33933492Y-4917263D01*
X-33933487Y-4917402D01*
X-33933486Y-5064224D01*
X-33933486Y-5064244D01*
X-33933485Y-5067097D01*
X-33933220Y-5069956D01*
X-33898731Y-5442125D01*
X-33898729Y-5442143D01*
X-33898465Y-5444986D01*
X-33897942Y-5447787D01*
X-33897939Y-5447804D01*
X-33829273Y-5815117D01*
X-33828728Y-5818032D01*
X-33827949Y-5820771D01*
X-33827947Y-5820778D01*
X-33726887Y-6175960D01*
X-33724868Y-6183053D01*
X-33723832Y-6185727D01*
X-33723828Y-6185739D01*
X-33609299Y-6481368D01*
X-33587772Y-6536934D01*
X-33586503Y-6539482D01*
X-33586497Y-6539496D01*
X-33419888Y-6874088D01*
X-33419881Y-6874101D01*
X-33418609Y-6876655D01*
X-33417103Y-6879087D01*
X-33417102Y-6879089D01*
X-33220327Y-7196892D01*
X-33220321Y-7196901D01*
X-33218823Y-7199320D01*
X-33132032Y-7314250D01*
X-33002850Y-7485315D01*
X-32990118Y-7502174D01*
X-32734445Y-7782634D01*
X-32453986Y-8038308D01*
X-32451716Y-8040022D01*
X-32451715Y-8040023D01*
X-32153413Y-8265293D01*
X-32153406Y-8265298D01*
X-32151132Y-8267015D01*
X-32148709Y-8268515D01*
X-32148705Y-8268518D01*
X-32128985Y-8280728D01*
X-31828469Y-8466802D01*
X-31825908Y-8468077D01*
X-31825903Y-8468080D01*
X-31663712Y-8548842D01*
X-31488748Y-8635966D01*
X-31134868Y-8773063D01*
X-30769847Y-8876924D01*
X-30396801Y-8946663D01*
X-30018912Y-8981684D01*
X-29909184Y-8981685D01*
X-29909179Y-8981687D01*
X-29909168Y-8981687D01*
X-29829158Y-8981687D01*
X-29752237Y-8981688D01*
X-29752233Y-8981687D01*
X-20623045Y-8981687D01*
X-20546174Y-8981687D01*
X-20546124Y-8981694D01*
X-20546124Y-8981700D01*
X-20370268Y-8981701D01*
X-20020248Y-8947229D01*
X-19675293Y-8878615D01*
X-19338724Y-8776519D01*
X-19013784Y-8641925D01*
X-18940120Y-8602551D01*
X-15827312Y-8602551D01*
X-15826944Y-8613780D01*
X-15774832Y-8808263D01*
X-15771144Y-8818397D01*
X-15675887Y-9022676D01*
X-15670499Y-9032008D01*
X-15541216Y-9216643D01*
X-15534279Y-9224909D01*
X-15374910Y-9384278D01*
X-15366644Y-9391215D01*
X-15182009Y-9520498D01*
X-15172677Y-9525886D01*
X-14968398Y-9621143D01*
X-14958264Y-9624831D01*
X-14763781Y-9676943D01*
X-14752552Y-9677311D01*
X-14750000Y-9666369D01*
X-14750000Y-8616326D01*
X-14753451Y-8603450D01*
X-14766326Y-8600000D01*
X-15816369Y-8600000D01*
X-15827312Y-8602551D01*
X-18940120Y-8602551D01*
X-18703600Y-8476129D01*
X-18411162Y-8280728D01*
X-18139284Y-8057603D01*
X-17890586Y-7808904D01*
X-17667463Y-7537026D01*
X-17472063Y-7244586D01*
X-17306268Y-6934402D01*
X-17171675Y-6609461D01*
X-17069581Y-6272892D01*
X-17000968Y-5927936D01*
X-16966498Y-5577916D01*
X-16966500Y-5402060D01*
X-16966500Y-5398015D01*
X-16966184Y-5389168D01*
X-16960648Y-5311780D01*
X-16951964Y-5190365D01*
X-16949446Y-5172857D01*
X-16945979Y-5156920D01*
X-16908019Y-4982426D01*
X-16903043Y-4965482D01*
X-16834935Y-4782882D01*
X-16827594Y-4766807D01*
X-16734191Y-4595756D01*
X-16724635Y-4580887D01*
X-16607842Y-4424871D01*
X-16596269Y-4411516D01*
X-16458464Y-4273714D01*
X-16445107Y-4262140D01*
X-16289096Y-4145353D01*
X-16274230Y-4135798D01*
X-16103175Y-4042398D01*
X-16087098Y-4035056D01*
X-15904500Y-3966952D01*
X-15887538Y-3961972D01*
X-15781092Y-3938817D01*
X-15731571Y-3938166D01*
X-15685746Y-3956946D01*
X-15650925Y-3992162D01*
X-15578530Y-4102972D01*
X-15578522Y-4102982D01*
X-15575722Y-4107268D01*
X-15572248Y-4111041D01*
X-15572247Y-4111043D01*
X-15426712Y-4269135D01*
X-15426709Y-4269138D01*
X-15423240Y-4272906D01*
X-15402013Y-4289428D01*
X-15249624Y-4408039D01*
X-15249619Y-4408042D01*
X-15245576Y-4411189D01*
X-15241069Y-4413628D01*
X-15241066Y-4413630D01*
X-15209070Y-4430945D01*
X-15161564Y-4476526D01*
X-15144087Y-4540000D01*
X-15161564Y-4603474D01*
X-15209070Y-4649055D01*
X-15241066Y-4666369D01*
X-15241078Y-4666376D01*
X-15245576Y-4668811D01*
X-15249611Y-4671951D01*
X-15249624Y-4671960D01*
X-15419199Y-4803948D01*
X-15419205Y-4803952D01*
X-15423240Y-4807094D01*
X-15426703Y-4810855D01*
X-15426712Y-4810864D01*
X-15572247Y-4968956D01*
X-15572253Y-4968963D01*
X-15575722Y-4972732D01*
X-15578519Y-4977012D01*
X-15578526Y-4977022D01*
X-15696058Y-5156920D01*
X-15698860Y-5161209D01*
X-15700915Y-5165892D01*
X-15700920Y-5165903D01*
X-15781353Y-5349275D01*
X-15789296Y-5367384D01*
X-15790554Y-5372349D01*
X-15790555Y-5372354D01*
X-15843305Y-5580657D01*
X-15843307Y-5580666D01*
X-15844564Y-5585632D01*
X-15844988Y-5590741D01*
X-15844989Y-5590751D01*
X-15854784Y-5708968D01*
X-15863156Y-5810000D01*
X-15862732Y-5815117D01*
X-15844989Y-6029248D01*
X-15844988Y-6029256D01*
X-15844564Y-6034368D01*
X-15843307Y-6039335D01*
X-15843305Y-6039342D01*
X-15813527Y-6156930D01*
X-15789296Y-6252616D01*
X-15787236Y-6257312D01*
X-15700920Y-6454096D01*
X-15700917Y-6454101D01*
X-15698860Y-6458791D01*
X-15682510Y-6483816D01*
X-15578526Y-6642977D01*
X-15578523Y-6642981D01*
X-15575722Y-6647268D01*
X-15572248Y-6651041D01*
X-15572247Y-6651043D01*
X-15426712Y-6809135D01*
X-15426709Y-6809138D01*
X-15423240Y-6812906D01*
X-15419199Y-6816051D01*
X-15249624Y-6948039D01*
X-15249619Y-6948042D01*
X-15245576Y-6951189D01*
X-15214061Y-6968244D01*
X-15202305Y-6974606D01*
X-15156665Y-7017155D01*
X-15137525Y-7076545D01*
X-15149733Y-7137737D01*
X-15190197Y-7185236D01*
X-15366648Y-7308788D01*
X-15374908Y-7315719D01*
X-15534281Y-7475092D01*
X-15541216Y-7483357D01*
X-15670492Y-7667982D01*
X-15675890Y-7677332D01*
X-15771144Y-7881602D01*
X-15774832Y-7891736D01*
X-15826944Y-8086219D01*
X-15827312Y-8097448D01*
X-15816369Y-8100000D01*
X-14374000Y-8100000D01*
X-14312000Y-8116613D01*
X-14266613Y-8162000D01*
X-14250000Y-8224000D01*
X-14250000Y-9666369D01*
X-14247449Y-9677311D01*
X-14236220Y-9676943D01*
X-14036509Y-9623431D01*
X-14035967Y-9625455D01*
X-13975744Y-9621520D01*
X-13914851Y-9655007D01*
X-13881535Y-9715994D01*
X-13886261Y-9785326D01*
X-14032245Y-10182689D01*
X-14034731Y-10188928D01*
X-14303242Y-10813125D01*
X-14306062Y-10819220D01*
X-14607975Y-11427971D01*
X-14611121Y-11433904D01*
X-14945540Y-12025403D01*
X-14949002Y-12031157D01*
X-15314958Y-12603691D01*
X-15318727Y-12609250D01*
X-15715147Y-13161134D01*
X-15719211Y-13166480D01*
X-16144913Y-13696079D01*
X-16149260Y-13701198D01*
X-16603044Y-14207009D01*
X-16607663Y-14211884D01*
X-17088119Y-14692340D01*
X-17092994Y-14696959D01*
X-17598805Y-15150742D01*
X-17603924Y-15155089D01*
X-18133523Y-15580792D01*
X-18138869Y-15584856D01*
X-18690753Y-15981275D01*
X-18696312Y-15985044D01*
X-19268833Y-16350991D01*
X-19274587Y-16354453D01*
X-19866114Y-16688888D01*
X-19872047Y-16692034D01*
X-20480784Y-16993940D01*
X-20486879Y-16996760D01*
X-21111076Y-17265270D01*
X-21117315Y-17267756D01*
X-21755141Y-17502082D01*
X-21761505Y-17504226D01*
X-22411064Y-17703672D01*
X-22417535Y-17705469D01*
X-23076969Y-17869462D01*
X-23083528Y-17870905D01*
X-23750831Y-17998950D01*
X-23757458Y-18000037D01*
X-24430748Y-18091771D01*
X-24437424Y-18092497D01*
X-25114675Y-18147643D01*
X-25121381Y-18148007D01*
X-25802335Y-18166455D01*
X-25805693Y-18166500D01*
X-26047912Y-18166500D01*
X-26050120Y-18166657D01*
X-26050123Y-18166658D01*
X-26532291Y-18201143D01*
X-26532313Y-18201145D01*
X-26534503Y-18201302D01*
X-26536685Y-18201615D01*
X-26536697Y-18201617D01*
X-27015176Y-18270411D01*
X-27015192Y-18270413D01*
X-27017370Y-18270727D01*
X-27019529Y-18271196D01*
X-27019542Y-18271199D01*
X-27491880Y-18373950D01*
X-27491903Y-18373955D01*
X-27494055Y-18374424D01*
X-27496167Y-18375044D01*
X-27496190Y-18375050D01*
X-27960017Y-18511242D01*
X-27960022Y-18511243D01*
X-27962128Y-18511862D01*
X-27964164Y-18512621D01*
X-27964184Y-18512628D01*
X-28417148Y-18681575D01*
X-28417161Y-18681580D01*
X-28419203Y-18682342D01*
X-28421189Y-18683248D01*
X-28421206Y-18683256D01*
X-28860930Y-18884072D01*
X-28860944Y-18884078D01*
X-28862952Y-18884996D01*
X-28864874Y-18886045D01*
X-28864905Y-18886061D01*
X-29289169Y-19117727D01*
X-29289180Y-19117733D01*
X-29291113Y-19118789D01*
X-29292959Y-19119974D01*
X-29292977Y-19119986D01*
X-29699641Y-19381334D01*
X-29699655Y-19381343D01*
X-29701504Y-19382532D01*
X-29703259Y-19383845D01*
X-29703281Y-19383861D01*
X-30090250Y-19673543D01*
X-30090264Y-19673553D01*
X-30092035Y-19674880D01*
X-30093703Y-19676325D01*
X-30093715Y-19676335D01*
X-30459030Y-19992883D01*
X-30459043Y-19992894D01*
X-30460714Y-19994343D01*
X-30462282Y-19995910D01*
X-30462296Y-19995924D01*
X-30804083Y-20337712D01*
X-30804097Y-20337726D01*
X-30805664Y-20339294D01*
X-30807113Y-20340965D01*
X-30807124Y-20340978D01*
X-31123672Y-20706294D01*
X-31123682Y-20706305D01*
X-31125127Y-20707974D01*
X-31126454Y-20709745D01*
X-31126464Y-20709759D01*
X-31416145Y-21096728D01*
X-31416161Y-21096750D01*
X-31417474Y-21098505D01*
X-31418662Y-21100352D01*
X-31418670Y-21100365D01*
X-31680028Y-21507047D01*
X-31680040Y-21507065D01*
X-31681216Y-21508897D01*
X-31682261Y-21510810D01*
X-31682273Y-21510831D01*
X-31913942Y-21935103D01*
X-31913948Y-21935114D01*
X-31915009Y-21937058D01*
X-31915932Y-21939078D01*
X-31915937Y-21939089D01*
X-32116743Y-22378794D01*
X-32117662Y-22380807D01*
X-32118425Y-22382852D01*
X-32118433Y-22382872D01*
X-32287366Y-22835804D01*
X-32288141Y-22837883D01*
X-32288763Y-22839998D01*
X-32288767Y-22840013D01*
X-32424953Y-23303820D01*
X-32424959Y-23303843D01*
X-32425579Y-23305955D01*
X-32426048Y-23308107D01*
X-32426053Y-23308130D01*
X-32527068Y-23772493D01*
X-32529275Y-23782640D01*
X-32529589Y-23784818D01*
X-32529591Y-23784834D01*
X-32598385Y-24263314D01*
X-32598700Y-24265508D01*
X-32598857Y-24267697D01*
X-32598859Y-24267720D01*
X-32630947Y-24716396D01*
X-32633500Y-24752099D01*
X-32633500Y-24754315D01*
X-32633500Y-24989044D01*
X-32634280Y-25002929D01*
X-32648435Y-25128541D01*
X-32654614Y-25155611D01*
X-32694049Y-25268308D01*
X-32706097Y-25293326D01*
X-32769625Y-25394429D01*
X-32786937Y-25416137D01*
X-32871363Y-25500563D01*
X-32893071Y-25517875D01*
X-32919058Y-25534204D01*
X-32979662Y-25553095D01*
X-33041674Y-25539518D01*
X-33088840Y-25497032D01*
X-33092435Y-25491530D01*
X-33129482Y-25434824D01*
X-33149154Y-25413455D01*
X-33223672Y-25332506D01*
X-33284769Y-25266137D01*
X-33288817Y-25262986D01*
X-33461656Y-25128460D01*
X-33461662Y-25128456D01*
X-33465704Y-25125310D01*
X-33478960Y-25118136D01*
X-33662844Y-25018623D01*
X-33662850Y-25018620D01*
X-33667350Y-25016185D01*
X-33672191Y-25014523D01*
X-33672198Y-25014520D01*
X-33879354Y-24943404D01*
X-33879355Y-24943403D01*
X-33884207Y-24941738D01*
X-33889257Y-24940895D01*
X-33889266Y-24940893D01*
X-34105298Y-24904844D01*
X-34105307Y-24904843D01*
X-34110360Y-24904000D01*
X-34115491Y-24904000D01*
X-34120599Y-24903577D01*
X-34120484Y-24902183D01*
X-34176494Y-24886979D01*
X-34221982Y-24840589D01*
X-34237769Y-24777566D01*
X-34219521Y-24715211D01*
X-34124154Y-24559583D01*
X-34092073Y-24507232D01*
X-33998195Y-24280592D01*
X-33940928Y-24042057D01*
X-33921681Y-23797500D01*
X-33940928Y-23552943D01*
X-33998195Y-23314408D01*
X-34092073Y-23087768D01*
X-34115014Y-23050332D01*
X-34217705Y-22882754D01*
X-34220248Y-22878604D01*
X-34379567Y-22692067D01*
X-34438773Y-22641500D01*
X-34562397Y-22535914D01*
X-34562398Y-22535913D01*
X-34566104Y-22532748D01*
X-34570255Y-22530204D01*
X-34570258Y-22530202D01*
X-34771122Y-22407113D01*
X-34771129Y-22407109D01*
X-34775268Y-22404573D01*
X-34779763Y-22402711D01*
X-34779765Y-22402710D01*
X-34997408Y-22312559D01*
X-35001908Y-22310695D01*
X-35006637Y-22309559D01*
X-35006645Y-22309557D01*
X-35235710Y-22254564D01*
X-35235714Y-22254563D01*
X-35240443Y-22253428D01*
X-35245294Y-22253046D01*
X-35245295Y-22253046D01*
X-35480146Y-22234563D01*
X-35485000Y-22234181D01*
X-35489854Y-22234563D01*
X-35724706Y-22253046D01*
X-35724709Y-22253046D01*
X-35729557Y-22253428D01*
X-35734285Y-22254562D01*
X-35734291Y-22254564D01*
X-35963356Y-22309557D01*
X-35963368Y-22309560D01*
X-35968092Y-22310695D01*
X-35972589Y-22312557D01*
X-35972593Y-22312559D01*
X-36190236Y-22402710D01*
X-36190244Y-22402713D01*
X-36194732Y-22404573D01*
X-36198867Y-22407106D01*
X-36198879Y-22407113D01*
X-36399743Y-22530202D01*
X-36399753Y-22530208D01*
X-36403896Y-22532748D01*
X-36407597Y-22535908D01*
X-36407604Y-22535914D01*
X-36586733Y-22688906D01*
X-36586739Y-22688911D01*
X-36590433Y-22692067D01*
X-36593589Y-22695761D01*
X-36593594Y-22695767D01*
X-36746586Y-22874896D01*
X-36746592Y-22874903D01*
X-36749752Y-22878604D01*
X-36752296Y-22882754D01*
X-36752295Y-22882754D01*
X-36875387Y-23083621D01*
X-36875394Y-23083633D01*
X-36877927Y-23087768D01*
X-36879787Y-23092256D01*
X-36879790Y-23092264D01*
X-36968304Y-23305955D01*
X-36971805Y-23314408D01*
X-36972940Y-23319132D01*
X-36972943Y-23319144D01*
X-37027936Y-23548209D01*
X-37027938Y-23548215D01*
X-37029072Y-23552943D01*
X-37029454Y-23557791D01*
X-37029454Y-23557794D01*
X-37047322Y-23784834D01*
X-37048319Y-23797500D01*
X-41093251Y-23797500D01*
X-41164255Y-23712180D01*
X-41180672Y-23697470D01*
X-41362618Y-23534446D01*
X-41362622Y-23534442D01*
X-41365998Y-23531418D01*
X-41591910Y-23381956D01*
X-41596004Y-23380036D01*
X-41596009Y-23380034D01*
X-41833071Y-23268904D01*
X-41833075Y-23268902D01*
X-41837176Y-23266980D01*
X-41841523Y-23265672D01*
X-41841526Y-23265671D01*
X-42092228Y-23190246D01*
X-42092229Y-23190245D01*
X-42096569Y-23188940D01*
X-42101043Y-23188281D01*
X-42101050Y-23188280D01*
X-42360087Y-23150158D01*
X-42360093Y-23150157D01*
X-42364561Y-23149500D01*
X-42567631Y-23149500D01*
X-42569880Y-23149664D01*
X-42569891Y-23149665D01*
X-42765637Y-23163992D01*
X-42765641Y-23163992D01*
X-42770156Y-23164323D01*
X-42774574Y-23165307D01*
X-42774580Y-23165308D01*
X-43030123Y-23222232D01*
X-43030139Y-23222236D01*
X-43034553Y-23223220D01*
X-43038784Y-23224838D01*
X-43038790Y-23224840D01*
X-43283327Y-23318367D01*
X-43283337Y-23318371D01*
X-43287558Y-23319986D01*
X-43291506Y-23322201D01*
X-43291511Y-23322204D01*
X-43519824Y-23450340D01*
X-43519829Y-23450343D01*
X-43523777Y-23452559D01*
X-43527361Y-23455325D01*
X-43527365Y-23455329D01*
X-43734593Y-23615343D01*
X-43734606Y-23615354D01*
X-43738177Y-23618112D01*
X-43741315Y-23621366D01*
X-43741322Y-23621373D01*
X-43923042Y-23809857D01*
X-43923048Y-23809864D01*
X-43926186Y-23813119D01*
X-43928811Y-23816787D01*
X-43928821Y-23816800D01*
X-44081166Y-24029740D01*
X-44081170Y-24029745D01*
X-44083799Y-24033421D01*
X-44085868Y-24037444D01*
X-44085871Y-24037450D01*
X-44205584Y-24270293D01*
X-44205589Y-24270304D01*
X-44207656Y-24274325D01*
X-44209116Y-24278602D01*
X-44209121Y-24278616D01*
X-44293652Y-24526395D01*
X-44293656Y-24526407D01*
X-44295118Y-24530695D01*
X-44295943Y-24535159D01*
X-44295943Y-24535161D01*
X-44343496Y-24792606D01*
X-44343498Y-24792619D01*
X-44344319Y-24797067D01*
X-44344485Y-24801593D01*
X-44344485Y-24801599D01*
X-44352549Y-25022271D01*
X-44354212Y-25067765D01*
X-47496698Y-25067765D01*
X-47499395Y-25002562D01*
X-47499500Y-24997439D01*
X-47499500Y-20124000D01*
X-47482887Y-20062000D01*
X-47437500Y-20016613D01*
X-47375500Y-20000000D01*
X-38701326Y-20000000D01*
X-38685000Y-20000000D01*
X-38685000Y16000000D01*
X-38701326Y16000000D01*
X-47375500Y16000000D01*
X-47437500Y16016613D01*
X-47482887Y16062000D01*
X-47499500Y16124000D01*
X-47499500Y24932235D01*
X-44354212Y24932235D01*
X-44353718Y24927738D01*
X-44353717Y24927733D01*
X-44325083Y24667494D01*
X-44325082Y24667487D01*
X-44324586Y24662982D01*
X-44323441Y24658602D01*
X-44323439Y24658592D01*
X-44291170Y24535162D01*
X-44256072Y24400912D01*
X-44254307Y24396758D01*
X-44254304Y24396750D01*
X-44151901Y24155777D01*
X-44150130Y24151610D01*
X-44147774Y24147749D01*
X-44147771Y24147744D01*
X-44053025Y23992498D01*
X-44009018Y23920390D01*
X-43835745Y23712180D01*
X-43832370Y23709156D01*
X-43832369Y23709155D01*
X-43715430Y23604377D01*
X-43634002Y23531418D01*
X-43408090Y23381956D01*
X-43162824Y23266980D01*
X-42903431Y23188940D01*
X-42635439Y23149500D01*
X-42434631Y23149500D01*
X-42432369Y23149500D01*
X-42229844Y23164323D01*
X-41965447Y23223220D01*
X-41712442Y23319986D01*
X-41476223Y23452559D01*
X-41261823Y23618112D01*
X-41073814Y23813119D01*
X-40916201Y24033421D01*
X-40857295Y24147995D01*
X-33978500Y24147995D01*
X-33978203Y24144978D01*
X-33978202Y24144961D01*
X-33963783Y23998563D01*
X-33963782Y23998557D01*
X-33963185Y23992498D01*
X-33961418Y23986673D01*
X-33961417Y23986668D01*
X-33914310Y23831376D01*
X-33902659Y23792969D01*
X-33804369Y23609083D01*
X-33672094Y23447906D01*
X-33510917Y23315631D01*
X-33327031Y23217341D01*
X-33127502Y23156815D01*
X-32920000Y23136378D01*
X-32712498Y23156815D01*
X-32512969Y23217341D01*
X-32329083Y23315631D01*
X-32167906Y23447906D01*
X-32035631Y23609083D01*
X-31937341Y23792969D01*
X-31876815Y23992498D01*
X-31861500Y24147995D01*
X-25338500Y24147995D01*
X-25338203Y24144978D01*
X-25338202Y24144961D01*
X-25323783Y23998563D01*
X-25323782Y23998557D01*
X-25323185Y23992498D01*
X-25321418Y23986673D01*
X-25321417Y23986668D01*
X-25274310Y23831376D01*
X-25262659Y23792969D01*
X-25164369Y23609083D01*
X-25032094Y23447906D01*
X-24870917Y23315631D01*
X-24687031Y23217341D01*
X-24487502Y23156815D01*
X-24280000Y23136378D01*
X-24072498Y23156815D01*
X-23872969Y23217341D01*
X-23689083Y23315631D01*
X-23527906Y23447906D01*
X-23395631Y23609083D01*
X-23297341Y23792969D01*
X-23236815Y23992498D01*
X-23221500Y24147995D01*
X-23221500Y24852005D01*
X-23236815Y25007502D01*
X-23297341Y25207031D01*
X-23395631Y25390917D01*
X-23527906Y25552094D01*
X-23689083Y25684369D01*
X-23721673Y25701789D01*
X-23867595Y25779787D01*
X-23867600Y25779789D01*
X-23872969Y25782659D01*
X-23911376Y25794310D01*
X-24066668Y25841417D01*
X-24066673Y25841418D01*
X-24072498Y25843185D01*
X-24078557Y25843782D01*
X-24078563Y25843783D01*
X-24273939Y25863025D01*
X-24280000Y25863622D01*
X-24286061Y25863025D01*
X-24481438Y25843783D01*
X-24481446Y25843782D01*
X-24487502Y25843185D01*
X-24493326Y25841419D01*
X-24493333Y25841417D01*
X-24681200Y25784428D01*
X-24681202Y25784428D01*
X-24687031Y25782659D01*
X-24692398Y25779791D01*
X-24692406Y25779787D01*
X-24865549Y25687239D01*
X-24865555Y25687236D01*
X-24870917Y25684369D01*
X-24875618Y25680512D01*
X-24875624Y25680507D01*
X-25027388Y25555957D01*
X-25027393Y25555953D01*
X-25032094Y25552094D01*
X-25035953Y25547393D01*
X-25035957Y25547388D01*
X-25160507Y25395624D01*
X-25160512Y25395618D01*
X-25164369Y25390917D01*
X-25167236Y25385555D01*
X-25167239Y25385549D01*
X-25259787Y25212406D01*
X-25259791Y25212398D01*
X-25262659Y25207031D01*
X-25264428Y25201202D01*
X-25264428Y25201200D01*
X-25321417Y25013333D01*
X-25321419Y25013326D01*
X-25323185Y25007502D01*
X-25323782Y25001446D01*
X-25323783Y25001438D01*
X-25338202Y24855040D01*
X-25338203Y24855022D01*
X-25338500Y24852005D01*
X-25338500Y24147995D01*
X-31861500Y24147995D01*
X-31861500Y24852005D01*
X-31876815Y25007502D01*
X-31937341Y25207031D01*
X-32035631Y25390917D01*
X-32167906Y25552094D01*
X-32329083Y25684369D01*
X-32361673Y25701789D01*
X-32507595Y25779787D01*
X-32507600Y25779789D01*
X-32512969Y25782659D01*
X-32551376Y25794310D01*
X-32706668Y25841417D01*
X-32706673Y25841418D01*
X-32712498Y25843185D01*
X-32718557Y25843782D01*
X-32718563Y25843783D01*
X-32913939Y25863025D01*
X-32920000Y25863622D01*
X-32926061Y25863025D01*
X-33121438Y25843783D01*
X-33121446Y25843782D01*
X-33127502Y25843185D01*
X-33133326Y25841419D01*
X-33133333Y25841417D01*
X-33321200Y25784428D01*
X-33321202Y25784428D01*
X-33327031Y25782659D01*
X-33332398Y25779791D01*
X-33332406Y25779787D01*
X-33505549Y25687239D01*
X-33505555Y25687236D01*
X-33510917Y25684369D01*
X-33515618Y25680512D01*
X-33515624Y25680507D01*
X-33667388Y25555957D01*
X-33667393Y25555953D01*
X-33672094Y25552094D01*
X-33675953Y25547393D01*
X-33675957Y25547388D01*
X-33800507Y25395624D01*
X-33800512Y25395618D01*
X-33804369Y25390917D01*
X-33807236Y25385555D01*
X-33807239Y25385549D01*
X-33899787Y25212406D01*
X-33899791Y25212398D01*
X-33902659Y25207031D01*
X-33904428Y25201202D01*
X-33904428Y25201200D01*
X-33961417Y25013333D01*
X-33961419Y25013326D01*
X-33963185Y25007502D01*
X-33963782Y25001446D01*
X-33963783Y25001438D01*
X-33978202Y24855040D01*
X-33978203Y24855022D01*
X-33978500Y24852005D01*
X-33978500Y24147995D01*
X-40857295Y24147995D01*
X-40792344Y24274325D01*
X-40704882Y24530695D01*
X-40655681Y24797067D01*
X-40645788Y25067765D01*
X-40675414Y25337018D01*
X-40743928Y25599088D01*
X-40849870Y25848390D01*
X-40990982Y26079610D01*
X-41164255Y26287820D01*
X-41218919Y26336799D01*
X-41362618Y26465554D01*
X-41362622Y26465558D01*
X-41365998Y26468582D01*
X-41591910Y26618044D01*
X-41596004Y26619964D01*
X-41596009Y26619966D01*
X-41833071Y26731096D01*
X-41833075Y26731098D01*
X-41837176Y26733020D01*
X-41841523Y26734328D01*
X-41841526Y26734329D01*
X-42092228Y26809754D01*
X-42092229Y26809755D01*
X-42096569Y26811060D01*
X-42101043Y26811719D01*
X-42101050Y26811720D01*
X-42360087Y26849842D01*
X-42360093Y26849843D01*
X-42364561Y26850500D01*
X-42567631Y26850500D01*
X-42569880Y26850336D01*
X-42569891Y26850335D01*
X-42765637Y26836008D01*
X-42765641Y26836008D01*
X-42770156Y26835677D01*
X-42774574Y26834693D01*
X-42774580Y26834692D01*
X-43030123Y26777768D01*
X-43030139Y26777764D01*
X-43034553Y26776780D01*
X-43038784Y26775162D01*
X-43038790Y26775160D01*
X-43283327Y26681633D01*
X-43283337Y26681629D01*
X-43287558Y26680014D01*
X-43291506Y26677799D01*
X-43291511Y26677796D01*
X-43519824Y26549660D01*
X-43519829Y26549657D01*
X-43523777Y26547441D01*
X-43527361Y26544675D01*
X-43527365Y26544671D01*
X-43734593Y26384657D01*
X-43734606Y26384646D01*
X-43738177Y26381888D01*
X-43741315Y26378634D01*
X-43741322Y26378627D01*
X-43923042Y26190143D01*
X-43923048Y26190136D01*
X-43926186Y26186881D01*
X-43928811Y26183213D01*
X-43928821Y26183200D01*
X-44081166Y25970260D01*
X-44081170Y25970255D01*
X-44083799Y25966579D01*
X-44085868Y25962556D01*
X-44085871Y25962550D01*
X-44205584Y25729707D01*
X-44205589Y25729696D01*
X-44207656Y25725675D01*
X-44209116Y25721398D01*
X-44209121Y25721384D01*
X-44293652Y25473605D01*
X-44293656Y25473593D01*
X-44295118Y25469305D01*
X-44295943Y25464841D01*
X-44295943Y25464839D01*
X-44343496Y25207394D01*
X-44343498Y25207381D01*
X-44344319Y25202933D01*
X-44344485Y25198407D01*
X-44344485Y25198401D01*
X-44351829Y24997438D01*
X-44354212Y24932235D01*
X-47499500Y24932235D01*
X-47499500Y24997439D01*
X-47499394Y25002563D01*
X-47498516Y25023783D01*
X-47490512Y25217313D01*
X-47481948Y25413460D01*
X-47481119Y25423327D01*
X-47454509Y25636805D01*
X-47428422Y25834955D01*
X-47426849Y25844184D01*
X-47382938Y26053608D01*
X-47382703Y26054698D01*
X-47339316Y26250401D01*
X-47337115Y26258889D01*
X-47276125Y26463747D01*
X-47275663Y26465257D01*
X-47215296Y26656716D01*
X-47212577Y26664435D01*
X-47134926Y26863436D01*
X-47134117Y26865447D01*
X-47057238Y27051049D01*
X-47054126Y27057949D01*
X-46960413Y27249643D01*
X-46959055Y27252333D01*
X-46866333Y27430449D01*
X-46862882Y27436638D01*
X-46839952Y27475119D01*
X-46753705Y27619861D01*
X-46751850Y27622871D01*
X-46643910Y27792303D01*
X-46640279Y27797684D01*
X-46532959Y27947995D01*
X-33978500Y27947995D01*
X-33978203Y27944978D01*
X-33978202Y27944961D01*
X-33963783Y27798563D01*
X-33963782Y27798557D01*
X-33963185Y27792498D01*
X-33961418Y27786673D01*
X-33961417Y27786668D01*
X-33925277Y27667530D01*
X-33902659Y27592969D01*
X-33899789Y27587600D01*
X-33899787Y27587595D01*
X-33807239Y27414452D01*
X-33804369Y27409083D01*
X-33672094Y27247906D01*
X-33510917Y27115631D01*
X-33327031Y27017341D01*
X-33127502Y26956815D01*
X-32920000Y26936378D01*
X-32712498Y26956815D01*
X-32512969Y27017341D01*
X-32329083Y27115631D01*
X-32167906Y27247906D01*
X-32035631Y27409083D01*
X-31937341Y27592969D01*
X-31876815Y27792498D01*
X-31861500Y27947995D01*
X-25338500Y27947995D01*
X-25338203Y27944978D01*
X-25338202Y27944961D01*
X-25323783Y27798563D01*
X-25323782Y27798557D01*
X-25323185Y27792498D01*
X-25321418Y27786673D01*
X-25321417Y27786668D01*
X-25285277Y27667530D01*
X-25262659Y27592969D01*
X-25259789Y27587600D01*
X-25259787Y27587595D01*
X-25167239Y27414452D01*
X-25164369Y27409083D01*
X-25032094Y27247906D01*
X-24870917Y27115631D01*
X-24687031Y27017341D01*
X-24487502Y26956815D01*
X-24280000Y26936378D01*
X-24072498Y26956815D01*
X-23872969Y27017341D01*
X-23689083Y27115631D01*
X-23527906Y27247906D01*
X-23395631Y27409083D01*
X-23297341Y27592969D01*
X-23236815Y27792498D01*
X-23221500Y27947995D01*
X-23221500Y28652005D01*
X-23236815Y28807502D01*
X-23297341Y29007031D01*
X-23395631Y29190917D01*
X-23527906Y29352094D01*
X-23621735Y29429098D01*
X-23684377Y29480507D01*
X-23684378Y29480508D01*
X-23689083Y29484369D01*
X-23711301Y29496245D01*
X-23867595Y29579787D01*
X-23867600Y29579789D01*
X-23872969Y29582659D01*
X-23911376Y29594310D01*
X-24066668Y29641417D01*
X-24066673Y29641418D01*
X-24072498Y29643185D01*
X-24078557Y29643782D01*
X-24078563Y29643783D01*
X-24260492Y29661701D01*
X-24280000Y29663622D01*
X-24297856Y29661864D01*
X-24481438Y29643783D01*
X-24481446Y29643782D01*
X-24487502Y29643185D01*
X-24493326Y29641419D01*
X-24493333Y29641417D01*
X-24681200Y29584428D01*
X-24681202Y29584428D01*
X-24687031Y29582659D01*
X-24692398Y29579791D01*
X-24692406Y29579787D01*
X-24865549Y29487239D01*
X-24865555Y29487236D01*
X-24870917Y29484369D01*
X-24875618Y29480512D01*
X-24875624Y29480507D01*
X-25027388Y29355957D01*
X-25027393Y29355953D01*
X-25032094Y29352094D01*
X-25035953Y29347393D01*
X-25035957Y29347388D01*
X-25160507Y29195624D01*
X-25160512Y29195618D01*
X-25164369Y29190917D01*
X-25167236Y29185555D01*
X-25167239Y29185549D01*
X-25259787Y29012406D01*
X-25259791Y29012398D01*
X-25262659Y29007031D01*
X-25264428Y29001202D01*
X-25264428Y29001200D01*
X-25321417Y28813333D01*
X-25321419Y28813326D01*
X-25323185Y28807502D01*
X-25323782Y28801446D01*
X-25323783Y28801438D01*
X-25338202Y28655040D01*
X-25338203Y28655022D01*
X-25338500Y28652005D01*
X-25338500Y27947995D01*
X-31861500Y27947995D01*
X-31861500Y28652005D01*
X-31876815Y28807502D01*
X-31937341Y29007031D01*
X-32035631Y29190917D01*
X-32167906Y29352094D01*
X-32261735Y29429098D01*
X-32324377Y29480507D01*
X-32324378Y29480508D01*
X-32329083Y29484369D01*
X-32351301Y29496245D01*
X-32507595Y29579787D01*
X-32507600Y29579789D01*
X-32512969Y29582659D01*
X-32551376Y29594310D01*
X-32706668Y29641417D01*
X-32706673Y29641418D01*
X-32712498Y29643185D01*
X-32718557Y29643782D01*
X-32718563Y29643783D01*
X-32900492Y29661701D01*
X-32920000Y29663622D01*
X-32937856Y29661864D01*
X-33121438Y29643783D01*
X-33121446Y29643782D01*
X-33127502Y29643185D01*
X-33133326Y29641419D01*
X-33133333Y29641417D01*
X-33321200Y29584428D01*
X-33321202Y29584428D01*
X-33327031Y29582659D01*
X-33332398Y29579791D01*
X-33332406Y29579787D01*
X-33505549Y29487239D01*
X-33505555Y29487236D01*
X-33510917Y29484369D01*
X-33515618Y29480512D01*
X-33515624Y29480507D01*
X-33667388Y29355957D01*
X-33667393Y29355953D01*
X-33672094Y29352094D01*
X-33675953Y29347393D01*
X-33675957Y29347388D01*
X-33800507Y29195624D01*
X-33800512Y29195618D01*
X-33804369Y29190917D01*
X-33807236Y29185555D01*
X-33807239Y29185549D01*
X-33899787Y29012406D01*
X-33899791Y29012398D01*
X-33902659Y29007031D01*
X-33904428Y29001202D01*
X-33904428Y29001200D01*
X-33961417Y28813333D01*
X-33961419Y28813326D01*
X-33963185Y28807502D01*
X-33963782Y28801446D01*
X-33963783Y28801438D01*
X-33978202Y28655040D01*
X-33978203Y28655022D01*
X-33978500Y28652005D01*
X-33978500Y27947995D01*
X-46532959Y27947995D01*
X-46516365Y27971236D01*
X-46513898Y27974567D01*
X-46391599Y28133952D01*
X-46387886Y28138555D01*
X-46250097Y28301242D01*
X-46246973Y28304789D01*
X-46111189Y28452972D01*
X-46107560Y28456762D01*
X-45956762Y28607560D01*
X-45952972Y28611189D01*
X-45804789Y28746973D01*
X-45801242Y28750097D01*
X-45638555Y28887886D01*
X-45633952Y28891599D01*
X-45474567Y29013898D01*
X-45471236Y29016365D01*
X-45297684Y29140279D01*
X-45292303Y29143910D01*
X-45122871Y29251850D01*
X-45119861Y29253705D01*
X-44936627Y29362889D01*
X-44930449Y29366333D01*
X-44752333Y29459055D01*
X-44749643Y29460413D01*
X-44557949Y29554126D01*
X-44551049Y29557238D01*
X-44365447Y29634117D01*
X-44363436Y29634926D01*
X-44164435Y29712577D01*
X-44156716Y29715296D01*
X-43965257Y29775663D01*
X-43963747Y29776125D01*
X-43758889Y29837115D01*
X-43750401Y29839316D01*
X-43554698Y29882703D01*
X-43553608Y29882938D01*
X-43344184Y29926849D01*
X-43334955Y29928422D01*
X-43136805Y29954509D01*
X-42923327Y29981119D01*
X-42913460Y29981948D01*
X-42717372Y29990510D01*
X-42502563Y29999395D01*
X-42497439Y29999500D01*
X-14637500Y29999500D01*
X-14575500Y29982887D01*
G37*
G04 #@! TD.AperFunction*
G04 #@! TA.AperFunction,Conductor*
G36*
X-5061404Y9649067D02*
G01*
X-5015831Y9601670D01*
X-5000899Y9537637D01*
X-5001528Y9521612D01*
X-5001243Y9517979D01*
X-5001242Y9517975D01*
X-4997273Y9467535D01*
X-4997272Y9467525D01*
X-4996986Y9463896D01*
X-4996277Y9460330D01*
X-4996275Y9460318D01*
X-4976083Y9358806D01*
X-4973437Y9345502D01*
X-4970379Y9338869D01*
X-4970377Y9338863D01*
X-4955438Y9306460D01*
X-4922898Y9235877D01*
X-4892648Y9186514D01*
X-4890381Y9183638D01*
X-4890380Y9183637D01*
X-4827515Y9103893D01*
X-4817918Y9091720D01*
X401267Y3872535D01*
X404498Y3870056D01*
X504385Y3793408D01*
X507611Y3790933D01*
X563198Y3758839D01*
X566945Y3757287D01*
X566949Y3757285D01*
X611283Y3738921D01*
X687047Y3707538D01*
X819953Y3690040D01*
X880088Y3690040D01*
X884141Y3690040D01*
X1017047Y3707538D01*
X1140896Y3758839D01*
X1196483Y3790933D01*
X1199704Y3793406D01*
X1199709Y3793408D01*
X1284965Y3858828D01*
X1338919Y3882569D01*
X1397739Y3878714D01*
X1448133Y3848135D01*
X1478713Y3797741D01*
X1482568Y3738921D01*
X1458828Y3684967D01*
X1390932Y3596484D01*
X1388908Y3592979D01*
X1388903Y3592971D01*
X1360872Y3544421D01*
X1360868Y3544414D01*
X1358838Y3540897D01*
X1357290Y3537162D01*
X1357283Y3537146D01*
X1310646Y3424556D01*
X1310644Y3424550D01*
X1307537Y3417048D01*
X1306476Y3408993D01*
X1306476Y3408991D01*
X1294060Y3314684D01*
X1290039Y3284142D01*
X1290039Y3219954D01*
X1290568Y3215936D01*
X1299517Y3147960D01*
X1307537Y3087048D01*
X1310644Y3079545D01*
X1310646Y3079541D01*
X1357283Y2966951D01*
X1357288Y2966941D01*
X1358838Y2963199D01*
X1360871Y2959677D01*
X1360872Y2959676D01*
X1361707Y2958229D01*
X1390932Y2907612D01*
X1393396Y2904401D01*
X1393400Y2904395D01*
X1430705Y2855780D01*
X1472534Y2801268D01*
X1475413Y2798389D01*
X1475414Y2798388D01*
X8230193Y-3956391D01*
X8260203Y-4005022D01*
X8265217Y-4061948D01*
X8244170Y-4115076D01*
X8201533Y-4153125D01*
X8174361Y-4167830D01*
X8174336Y-4167844D01*
X8172098Y-4169056D01*
X8169962Y-4170450D01*
X8169946Y-4170461D01*
X7814890Y-4402430D01*
X7812746Y-4403831D01*
X7810733Y-4405397D01*
X7810727Y-4405402D01*
X7476034Y-4665903D01*
X7476021Y-4665913D01*
X7474009Y-4667480D01*
X7472132Y-4669207D01*
X7472120Y-4669218D01*
X7160076Y-4956474D01*
X7160064Y-4956485D01*
X7158201Y-4958201D01*
X7156485Y-4960064D01*
X7156474Y-4960076D01*
X6869218Y-5272120D01*
X6869207Y-5272132D01*
X6867480Y-5274009D01*
X6865913Y-5276021D01*
X6865903Y-5276034D01*
X6620950Y-5590751D01*
X6603831Y-5612746D01*
X6602433Y-5614885D01*
X6602430Y-5614890D01*
X6370456Y-5969954D01*
X6370448Y-5969966D01*
X6369056Y-5972098D01*
X6367840Y-5974344D01*
X6367837Y-5974350D01*
X6175232Y-6330256D01*
X6164758Y-6349610D01*
X6163729Y-6351955D01*
X6163726Y-6351962D01*
X5993363Y-6740356D01*
X5993352Y-6740383D01*
X5992334Y-6742705D01*
X5991509Y-6745108D01*
X5991504Y-6745121D01*
X5853786Y-7146286D01*
X5853779Y-7146307D01*
X5852960Y-7148695D01*
X5852339Y-7151143D01*
X5852333Y-7151167D01*
X5748217Y-7562325D01*
X5748213Y-7562342D01*
X5747589Y-7564808D01*
X5747170Y-7567317D01*
X5747167Y-7567333D01*
X5689289Y-7914198D01*
X5676941Y-7988202D01*
X5676732Y-7990723D01*
X5676727Y-7990764D01*
X5671715Y-8051256D01*
X5655526Y-8103016D01*
X5568721Y-8253366D01*
X5568718Y-8253371D01*
X5565473Y-8258993D01*
X5563467Y-8265165D01*
X5563465Y-8265171D01*
X5508465Y-8434441D01*
X5508463Y-8434450D01*
X5506458Y-8440621D01*
X5505780Y-8447071D01*
X5505778Y-8447081D01*
X5502574Y-8477571D01*
X5486496Y-8630549D01*
X5487175Y-8637005D01*
X5487175Y-8637009D01*
X5505778Y-8814016D01*
X5505779Y-8814024D01*
X5506458Y-8820477D01*
X5508463Y-8826649D01*
X5508465Y-8826656D01*
X5558839Y-8981688D01*
X5565473Y-9002105D01*
X5568720Y-9007729D01*
X5568721Y-9007731D01*
X5624887Y-9105013D01*
X5641500Y-9167013D01*
X5641500Y-22758189D01*
X5626552Y-22817211D01*
X5588887Y-22858121D01*
X5589424Y-22858811D01*
X5415801Y-22993948D01*
X5415795Y-22993952D01*
X5411760Y-22997094D01*
X5408297Y-23000855D01*
X5408288Y-23000864D01*
X5262753Y-23158956D01*
X5262747Y-23158963D01*
X5259278Y-23162732D01*
X5256481Y-23167012D01*
X5256474Y-23167022D01*
X5168809Y-23301205D01*
X5124017Y-23342438D01*
X5065000Y-23357383D01*
X5005983Y-23342438D01*
X4961191Y-23301205D01*
X4873525Y-23167022D01*
X4873523Y-23167020D01*
X4870722Y-23162732D01*
X4842355Y-23131917D01*
X4721711Y-23000864D01*
X4721708Y-23000861D01*
X4718240Y-22997094D01*
X4666774Y-22957036D01*
X4544623Y-22861960D01*
X4544615Y-22861955D01*
X4540576Y-22858811D01*
X4398481Y-22781913D01*
X4350977Y-22736333D01*
X4333500Y-22672859D01*
X4333500Y-13288760D01*
X4333500Y-13287488D01*
X4295061Y-12333641D01*
X4218246Y-11382115D01*
X4103179Y-10434454D01*
X3950047Y-9492195D01*
X3759098Y-8556866D01*
X3530642Y-7629984D01*
X3265050Y-6713053D01*
X2962752Y-5807560D01*
X2908694Y-5665022D01*
X2774727Y-5311780D01*
X2624238Y-4914973D01*
X2250059Y-4036741D01*
X2241117Y-4017897D01*
X1841354Y-3175415D01*
X1841349Y-3175405D01*
X1840819Y-3174288D01*
X1801706Y-3099765D01*
X1557541Y-2634547D01*
X1397185Y-2329013D01*
X919874Y-1502287D01*
X409662Y-695450D01*
X-132625Y90188D01*
X-565598Y666370D01*
X-705351Y852347D01*
X-705352Y852349D01*
X-706107Y853353D01*
X-743275Y898876D01*
X-1309044Y1591818D01*
X-1309057Y1591833D01*
X-1309852Y1592807D01*
X-1701041Y2034368D01*
X-1942039Y2306399D01*
X-1942057Y2306419D01*
X-1942884Y2307352D01*
X-2604173Y2995827D01*
X-3175320Y3544421D01*
X-3291737Y3656241D01*
X-3291738Y3656242D01*
X-3292648Y3657116D01*
X-3293580Y3657942D01*
X-3293602Y3657962D01*
X-3813194Y4118280D01*
X-4007193Y4290148D01*
X-4008164Y4290941D01*
X-4008183Y4290957D01*
X-4745668Y4893094D01*
X-4745678Y4893102D01*
X-4746647Y4893893D01*
X-4812179Y4943137D01*
X-5508819Y5466629D01*
X-5508826Y5466634D01*
X-5509812Y5467375D01*
X-6227760Y5962939D01*
X-6294427Y6008956D01*
X-6294432Y6008959D01*
X-6295450Y6009662D01*
X-7102287Y6519874D01*
X-7929013Y6997185D01*
X-7932936Y6999244D01*
X-8773191Y7440244D01*
X-8773221Y7440259D01*
X-8774288Y7440819D01*
X-8775386Y7441340D01*
X-8775416Y7441355D01*
X-9635618Y7849527D01*
X-9635653Y7849543D01*
X-9636741Y7850059D01*
X-10514973Y8224238D01*
X-10516142Y8224682D01*
X-10516156Y8224687D01*
X-11406374Y8562303D01*
X-11406409Y8562316D01*
X-11407560Y8562752D01*
X-11714962Y8665378D01*
X-12311875Y8864657D01*
X-12311888Y8864661D01*
X-12313053Y8865050D01*
X-12314254Y8865398D01*
X-12314264Y8865401D01*
X-13228792Y9130297D01*
X-13228805Y9130301D01*
X-13229984Y9130642D01*
X-14101705Y9345502D01*
X-14155681Y9358806D01*
X-14155685Y9358807D01*
X-14156866Y9359098D01*
X-14158050Y9359340D01*
X-14158069Y9359344D01*
X-14460111Y9421006D01*
X-14514374Y9446978D01*
X-14550028Y9495432D01*
X-14558680Y9554965D01*
X-14538294Y9611564D01*
X-14493669Y9651907D01*
X-14435308Y9666500D01*
X-5124803Y9666500D01*
X-5061404Y9649067D01*
G37*
G04 #@! TD.AperFunction*
G04 #@! TA.AperFunction,Conductor*
G36*
X2354254Y5092292D02*
G01*
X2409996Y5080444D01*
X2434633Y5072439D01*
X2486683Y5049265D01*
X2509126Y5036307D01*
X2555218Y5002819D01*
X2574483Y4985473D01*
X2612601Y4943137D01*
X2627835Y4922168D01*
X2656320Y4872832D01*
X2666865Y4849150D01*
X2684468Y4794975D01*
X2689858Y4769616D01*
X2695812Y4712961D01*
X2695812Y4687041D01*
X2689858Y4630386D01*
X2684468Y4605027D01*
X2666865Y4550852D01*
X2656320Y4527170D01*
X2627835Y4477834D01*
X2612601Y4456865D01*
X2574483Y4414529D01*
X2555216Y4397181D01*
X2509129Y4363697D01*
X2486679Y4350735D01*
X2434638Y4327565D01*
X2409985Y4319555D01*
X2350643Y4306941D01*
X2337016Y4304828D01*
X2241611Y4295431D01*
X2241607Y4295431D01*
X2238587Y4295133D01*
X2235603Y4294540D01*
X2235600Y4294539D01*
X2194132Y4286291D01*
X2194119Y4286288D01*
X2191134Y4285694D01*
X2188219Y4284810D01*
X2188208Y4284807D01*
X2100636Y4258242D01*
X2100630Y4258240D01*
X2094803Y4256472D01*
X2089433Y4253602D01*
X2089429Y4253600D01*
X2008713Y4210456D01*
X2008702Y4210450D01*
X2006024Y4209018D01*
X2003498Y4207331D01*
X2003491Y4207326D01*
X1968323Y4183827D01*
X1968316Y4183823D01*
X1965796Y4182138D01*
X1963456Y4180219D01*
X1963443Y4180208D01*
X1915871Y4141166D01*
X1861132Y4115350D01*
X1800693Y4118518D01*
X1748953Y4149916D01*
X1718236Y4202063D01*
X1715861Y4262538D01*
X1742393Y4316934D01*
X1763738Y4342260D01*
X1772722Y4352919D01*
X1796961Y4387216D01*
X1841092Y4462509D01*
X1871835Y4544188D01*
X1883236Y4584610D01*
X1899705Y4670327D01*
X1910141Y4769624D01*
X1915528Y4794966D01*
X1933135Y4849156D01*
X1943674Y4872827D01*
X1972162Y4922169D01*
X1987397Y4943137D01*
X2002676Y4960107D01*
X2025518Y4985476D01*
X2044775Y5002815D01*
X2090876Y5036310D01*
X2113311Y5049263D01*
X2165368Y5072440D01*
X2190002Y5080444D01*
X2245743Y5092292D01*
X2271517Y5095000D01*
X2328483Y5095000D01*
X2354254Y5092292D01*
G37*
G04 #@! TD.AperFunction*
G04 #@! TD*
M02*
