G04 #@! TF.GenerationSoftware,KiCad,Pcbnew,7.0.0-da2b9df05c~163~ubuntu22.04.1*
G04 #@! TF.CreationDate,2023-02-20T23:21:24+01:00*
G04 #@! TF.ProjectId,Bluetooth_receiver,426c7565-746f-46f7-9468-5f7265636569,rev?*
G04 #@! TF.SameCoordinates,Original*
G04 #@! TF.FileFunction,Other,Comment*
%FSLAX46Y46*%
G04 Gerber Fmt 4.6, Leading zero omitted, Abs format (unit mm)*
G04 Created by KiCad (PCBNEW 7.0.0-da2b9df05c~163~ubuntu22.04.1) date 2023-02-20 23:21:24*
%MOMM*%
%LPD*%
G01*
G04 APERTURE LIST*
%ADD10C,0.150000*%
G04 APERTURE END LIST*
D10*
G04 #@! TO.C,U1*
X-44303334Y-4761904D02*
X-44303334Y-4285714D01*
X-44017620Y-4857142D02*
X-45017620Y-4523809D01*
X-45017620Y-4523809D02*
X-44017620Y-4190476D01*
X-44684286Y-3857142D02*
X-44017620Y-3857142D01*
X-44589048Y-3857142D02*
X-44636667Y-3809523D01*
X-44636667Y-3809523D02*
X-44684286Y-3714285D01*
X-44684286Y-3714285D02*
X-44684286Y-3571428D01*
X-44684286Y-3571428D02*
X-44636667Y-3476190D01*
X-44636667Y-3476190D02*
X-44541429Y-3428571D01*
X-44541429Y-3428571D02*
X-44017620Y-3428571D01*
X-44684286Y-3095237D02*
X-44684286Y-2714285D01*
X-45017620Y-2952380D02*
X-44160477Y-2952380D01*
X-44160477Y-2952380D02*
X-44065239Y-2904761D01*
X-44065239Y-2904761D02*
X-44017620Y-2809523D01*
X-44017620Y-2809523D02*
X-44017620Y-2714285D01*
X-44065239Y-1999999D02*
X-44017620Y-2095237D01*
X-44017620Y-2095237D02*
X-44017620Y-2285713D01*
X-44017620Y-2285713D02*
X-44065239Y-2380951D01*
X-44065239Y-2380951D02*
X-44160477Y-2428570D01*
X-44160477Y-2428570D02*
X-44541429Y-2428570D01*
X-44541429Y-2428570D02*
X-44636667Y-2380951D01*
X-44636667Y-2380951D02*
X-44684286Y-2285713D01*
X-44684286Y-2285713D02*
X-44684286Y-2095237D01*
X-44684286Y-2095237D02*
X-44636667Y-1999999D01*
X-44636667Y-1999999D02*
X-44541429Y-1952380D01*
X-44541429Y-1952380D02*
X-44446191Y-1952380D01*
X-44446191Y-1952380D02*
X-44350953Y-2428570D01*
X-44684286Y-1523808D02*
X-44017620Y-1523808D01*
X-44589048Y-1523808D02*
X-44636667Y-1476189D01*
X-44636667Y-1476189D02*
X-44684286Y-1380951D01*
X-44684286Y-1380951D02*
X-44684286Y-1238094D01*
X-44684286Y-1238094D02*
X-44636667Y-1142856D01*
X-44636667Y-1142856D02*
X-44541429Y-1095237D01*
X-44541429Y-1095237D02*
X-44017620Y-1095237D01*
X-44684286Y-619046D02*
X-44017620Y-619046D01*
X-44589048Y-619046D02*
X-44636667Y-571427D01*
X-44636667Y-571427D02*
X-44684286Y-476189D01*
X-44684286Y-476189D02*
X-44684286Y-333332D01*
X-44684286Y-333332D02*
X-44636667Y-238094D01*
X-44636667Y-238094D02*
X-44541429Y-190475D01*
X-44541429Y-190475D02*
X-44017620Y-190475D01*
X-44017620Y714287D02*
X-44541429Y714287D01*
X-44541429Y714287D02*
X-44636667Y666668D01*
X-44636667Y666668D02*
X-44684286Y571430D01*
X-44684286Y571430D02*
X-44684286Y380954D01*
X-44684286Y380954D02*
X-44636667Y285716D01*
X-44065239Y714287D02*
X-44017620Y619049D01*
X-44017620Y619049D02*
X-44017620Y380954D01*
X-44017620Y380954D02*
X-44065239Y285716D01*
X-44065239Y285716D02*
X-44160477Y238097D01*
X-44160477Y238097D02*
X-44255715Y238097D01*
X-44255715Y238097D02*
X-44350953Y285716D01*
X-44350953Y285716D02*
X-44398572Y380954D01*
X-44398572Y380954D02*
X-44398572Y619049D01*
X-44398572Y619049D02*
X-44446191Y714287D01*
X-50630239Y-13930952D02*
X-52630239Y-13930952D01*
X-50630239Y-12788095D02*
X-51773096Y-13645238D01*
X-52630239Y-12788095D02*
X-51487381Y-13930952D01*
X-51677858Y-11930952D02*
X-51677858Y-11264285D01*
X-50630239Y-10978571D02*
X-50630239Y-11930952D01*
X-50630239Y-11930952D02*
X-52630239Y-11930952D01*
X-52630239Y-11930952D02*
X-52630239Y-10978571D01*
X-51677858Y-10121428D02*
X-51677858Y-9454761D01*
X-50630239Y-9169047D02*
X-50630239Y-10121428D01*
X-50630239Y-10121428D02*
X-52630239Y-10121428D01*
X-52630239Y-10121428D02*
X-52630239Y-9169047D01*
X-50630239Y-8311904D02*
X-52630239Y-8311904D01*
X-52630239Y-8311904D02*
X-52630239Y-7549999D01*
X-52630239Y-7549999D02*
X-52535000Y-7359523D01*
X-52535000Y-7359523D02*
X-52439762Y-7264285D01*
X-52439762Y-7264285D02*
X-52249286Y-7169047D01*
X-52249286Y-7169047D02*
X-51963572Y-7169047D01*
X-51963572Y-7169047D02*
X-51773096Y-7264285D01*
X-51773096Y-7264285D02*
X-51677858Y-7359523D01*
X-51677858Y-7359523D02*
X-51582620Y-7549999D01*
X-51582620Y-7549999D02*
X-51582620Y-8311904D01*
X-51392143Y-6311904D02*
X-51392143Y-4788095D01*
X-52630239Y-3454762D02*
X-52630239Y-3073809D01*
X-52630239Y-3073809D02*
X-52535000Y-2883333D01*
X-52535000Y-2883333D02*
X-52344524Y-2692857D01*
X-52344524Y-2692857D02*
X-51963572Y-2597619D01*
X-51963572Y-2597619D02*
X-51296905Y-2597619D01*
X-51296905Y-2597619D02*
X-50915953Y-2692857D01*
X-50915953Y-2692857D02*
X-50725477Y-2883333D01*
X-50725477Y-2883333D02*
X-50630239Y-3073809D01*
X-50630239Y-3073809D02*
X-50630239Y-3454762D01*
X-50630239Y-3454762D02*
X-50725477Y-3645238D01*
X-50725477Y-3645238D02*
X-50915953Y-3835714D01*
X-50915953Y-3835714D02*
X-51296905Y-3930952D01*
X-51296905Y-3930952D02*
X-51963572Y-3930952D01*
X-51963572Y-3930952D02*
X-52344524Y-3835714D01*
X-52344524Y-3835714D02*
X-52535000Y-3645238D01*
X-52535000Y-3645238D02*
X-52630239Y-3454762D01*
X-52630239Y-1740476D02*
X-51011191Y-1740476D01*
X-51011191Y-1740476D02*
X-50820715Y-1645238D01*
X-50820715Y-1645238D02*
X-50725477Y-1550000D01*
X-50725477Y-1550000D02*
X-50630239Y-1359524D01*
X-50630239Y-1359524D02*
X-50630239Y-978571D01*
X-50630239Y-978571D02*
X-50725477Y-788095D01*
X-50725477Y-788095D02*
X-50820715Y-692857D01*
X-50820715Y-692857D02*
X-51011191Y-597619D01*
X-51011191Y-597619D02*
X-52630239Y-597619D01*
X-52630239Y69048D02*
X-52630239Y1211905D01*
X-50630239Y640476D02*
X-52630239Y640476D01*
X-52630239Y2888096D02*
X-52630239Y4221429D01*
X-52630239Y4221429D02*
X-50630239Y2888096D01*
X-50630239Y2888096D02*
X-50630239Y4221429D01*
X-52630239Y5364286D02*
X-52630239Y5745239D01*
X-52630239Y5745239D02*
X-52535000Y5935715D01*
X-52535000Y5935715D02*
X-52344524Y6126191D01*
X-52344524Y6126191D02*
X-51963572Y6221429D01*
X-51963572Y6221429D02*
X-51296905Y6221429D01*
X-51296905Y6221429D02*
X-50915953Y6126191D01*
X-50915953Y6126191D02*
X-50725477Y5935715D01*
X-50725477Y5935715D02*
X-50630239Y5745239D01*
X-50630239Y5745239D02*
X-50630239Y5364286D01*
X-50630239Y5364286D02*
X-50725477Y5173810D01*
X-50725477Y5173810D02*
X-50915953Y4983334D01*
X-50915953Y4983334D02*
X-51296905Y4888096D01*
X-51296905Y4888096D02*
X-51963572Y4888096D01*
X-51963572Y4888096D02*
X-52344524Y4983334D01*
X-52344524Y4983334D02*
X-52535000Y5173810D01*
X-52535000Y5173810D02*
X-52630239Y5364286D01*
X-50630239Y7078572D02*
X-52630239Y7078572D01*
X-52630239Y7078572D02*
X-50630239Y8221429D01*
X-50630239Y8221429D02*
X-52630239Y8221429D01*
X-51677858Y9173810D02*
X-51677858Y9840477D01*
X-50630239Y10126191D02*
X-50630239Y9173810D01*
X-50630239Y9173810D02*
X-52630239Y9173810D01*
X-52630239Y9173810D02*
X-52630239Y10126191D01*
G04 #@! TO.C,H3*
X45700000Y-25000000D02*
G75*
G03*
X45700000Y-25000000I-3200000J0D01*
G01*
G04 #@! TO.C,H1*
X-39300000Y25000000D02*
G75*
G03*
X-39300000Y25000000I-3200000J0D01*
G01*
G04 #@! TO.C,H2*
X45700000Y25000000D02*
G75*
G03*
X45700000Y25000000I-3200000J0D01*
G01*
G04 #@! TO.C,H4*
X-39300000Y-25000000D02*
G75*
G03*
X-39300000Y-25000000I-3200000J0D01*
G01*
G04 #@! TD*
M02*
